<?xml version="1.0" encoding="utf-8"?>
<svg xmlns="http://www.w3.org/2000/svg" xmlns:xlink="http://www.w3.org/1999/xlink" width="400" height="400" viewBox="0 0 1600 1600">
<defs>
  <clipPath id="clip420">
    <rect x="0" y="0" width="1600" height="1600"/>
  </clipPath>
</defs>
<path clip-path="url(#clip420)" d="M0 1600 L1600 1600 L1600 0 L0 0  Z" fill="#ffffff" fill-rule="evenodd" fill-opacity="1"/>
<defs>
  <clipPath id="clip421">
    <rect x="320" y="160" width="1121" height="1121"/>
  </clipPath>
</defs>
<path clip-path="url(#clip420)" d="M134.272 678.888 L1552.76 678.888 L1552.76 153.712 L134.272 153.712  Z" fill="#ffffff" fill-rule="evenodd" fill-opacity="1"/>
<defs>
  <clipPath id="clip422">
    <rect x="134" y="153" width="1419" height="526"/>
  </clipPath>
</defs>
<polyline clip-path="url(#clip422)" style="stroke:#000000; stroke-linecap:round; stroke-linejoin:round; stroke-width:2; stroke-opacity:0.1; fill:none" points="134.272,678.888 134.272,153.712 "/>
<polyline clip-path="url(#clip422)" style="stroke:#000000; stroke-linecap:round; stroke-linejoin:round; stroke-width:2; stroke-opacity:0.1; fill:none" points="488.893,678.888 488.893,153.712 "/>
<polyline clip-path="url(#clip422)" style="stroke:#000000; stroke-linecap:round; stroke-linejoin:round; stroke-width:2; stroke-opacity:0.1; fill:none" points="843.514,678.888 843.514,153.712 "/>
<polyline clip-path="url(#clip422)" style="stroke:#000000; stroke-linecap:round; stroke-linejoin:round; stroke-width:2; stroke-opacity:0.1; fill:none" points="1198.13,678.888 1198.13,153.712 "/>
<polyline clip-path="url(#clip422)" style="stroke:#000000; stroke-linecap:round; stroke-linejoin:round; stroke-width:2; stroke-opacity:0.1; fill:none" points="1552.76,678.888 1552.76,153.712 "/>
<polyline clip-path="url(#clip420)" style="stroke:#000000; stroke-linecap:round; stroke-linejoin:round; stroke-width:4; stroke-opacity:1; fill:none" points="134.272,678.888 1552.76,678.888 "/>
<polyline clip-path="url(#clip420)" style="stroke:#000000; stroke-linecap:round; stroke-linejoin:round; stroke-width:4; stroke-opacity:1; fill:none" points="134.272,678.888 134.272,659.99 "/>
<polyline clip-path="url(#clip420)" style="stroke:#000000; stroke-linecap:round; stroke-linejoin:round; stroke-width:4; stroke-opacity:1; fill:none" points="488.893,678.888 488.893,659.99 "/>
<polyline clip-path="url(#clip420)" style="stroke:#000000; stroke-linecap:round; stroke-linejoin:round; stroke-width:4; stroke-opacity:1; fill:none" points="843.514,678.888 843.514,659.99 "/>
<polyline clip-path="url(#clip420)" style="stroke:#000000; stroke-linecap:round; stroke-linejoin:round; stroke-width:4; stroke-opacity:1; fill:none" points="1198.13,678.888 1198.13,659.99 "/>
<polyline clip-path="url(#clip420)" style="stroke:#000000; stroke-linecap:round; stroke-linejoin:round; stroke-width:4; stroke-opacity:1; fill:none" points="1552.76,678.888 1552.76,659.99 "/>
<path clip-path="url(#clip420)" d="M134.272 703.407 Q130.661 703.407 128.832 706.971 Q127.027 710.513 127.027 717.643 Q127.027 724.749 128.832 728.314 Q130.661 731.855 134.272 731.855 Q137.906 731.855 139.712 728.314 Q141.541 724.749 141.541 717.643 Q141.541 710.513 139.712 706.971 Q137.906 703.407 134.272 703.407 M134.272 699.703 Q140.082 699.703 143.138 704.309 Q146.217 708.893 146.217 717.643 Q146.217 726.369 143.138 730.976 Q140.082 735.559 134.272 735.559 Q128.462 735.559 125.383 730.976 Q122.328 726.369 122.328 717.643 Q122.328 708.893 125.383 704.309 Q128.462 699.703 134.272 699.703 Z" fill="#000000" fill-rule="nonzero" fill-opacity="1" /><path clip-path="url(#clip420)" d="M483.546 730.953 L499.865 730.953 L499.865 734.888 L477.921 734.888 L477.921 730.953 Q480.583 728.198 485.166 723.568 Q489.773 718.916 490.953 717.573 Q493.199 715.05 494.078 713.314 Q494.981 711.555 494.981 709.865 Q494.981 707.11 493.037 705.374 Q491.115 703.638 488.013 703.638 Q485.814 703.638 483.361 704.402 Q480.93 705.166 478.152 706.717 L478.152 701.995 Q480.976 700.86 483.43 700.282 Q485.884 699.703 487.921 699.703 Q493.291 699.703 496.486 702.388 Q499.68 705.073 499.68 709.564 Q499.68 711.694 498.87 713.615 Q498.083 715.513 495.976 718.106 Q495.398 718.777 492.296 721.994 Q489.194 725.189 483.546 730.953 Z" fill="#000000" fill-rule="nonzero" fill-opacity="1" /><path clip-path="url(#clip420)" d="M846.523 704.402 L834.718 722.851 L846.523 722.851 L846.523 704.402 M845.296 700.328 L851.176 700.328 L851.176 722.851 L856.107 722.851 L856.107 726.74 L851.176 726.74 L851.176 734.888 L846.523 734.888 L846.523 726.74 L830.921 726.74 L830.921 722.226 L845.296 700.328 Z" fill="#000000" fill-rule="nonzero" fill-opacity="1" /><path clip-path="url(#clip420)" d="M1198.54 715.744 Q1195.39 715.744 1193.54 717.897 Q1191.71 720.05 1191.71 723.8 Q1191.71 727.527 1193.54 729.703 Q1195.39 731.855 1198.54 731.855 Q1201.69 731.855 1203.52 729.703 Q1205.37 727.527 1205.37 723.8 Q1205.37 720.05 1203.52 717.897 Q1201.69 715.744 1198.54 715.744 M1207.82 701.092 L1207.82 705.351 Q1206.06 704.518 1204.26 704.078 Q1202.48 703.638 1200.72 703.638 Q1196.09 703.638 1193.63 706.763 Q1191.2 709.888 1190.85 716.207 Q1192.22 714.194 1194.28 713.129 Q1196.34 712.041 1198.82 712.041 Q1204.03 712.041 1207.04 715.212 Q1210.07 718.36 1210.07 723.8 Q1210.07 729.124 1206.92 732.342 Q1203.77 735.559 1198.54 735.559 Q1192.54 735.559 1189.37 730.976 Q1186.2 726.369 1186.2 717.643 Q1186.2 709.448 1190.09 704.587 Q1193.98 699.703 1200.53 699.703 Q1202.29 699.703 1204.07 700.05 Q1205.88 700.397 1207.82 701.092 Z" fill="#000000" fill-rule="nonzero" fill-opacity="1" /><path clip-path="url(#clip420)" d="M1552.76 718.476 Q1549.42 718.476 1547.5 720.258 Q1545.6 722.041 1545.6 725.166 Q1545.6 728.291 1547.5 730.073 Q1549.42 731.855 1552.76 731.855 Q1556.09 731.855 1558.01 730.073 Q1559.93 728.268 1559.93 725.166 Q1559.93 722.041 1558.01 720.258 Q1556.11 718.476 1552.76 718.476 M1548.08 716.485 Q1545.07 715.744 1543.38 713.684 Q1541.71 711.624 1541.71 708.661 Q1541.71 704.518 1544.65 702.11 Q1547.62 699.703 1552.76 699.703 Q1557.92 699.703 1560.86 702.11 Q1563.8 704.518 1563.8 708.661 Q1563.8 711.624 1562.11 713.684 Q1560.44 715.744 1557.45 716.485 Q1560.83 717.272 1562.71 719.564 Q1564.61 721.856 1564.61 725.166 Q1564.61 730.189 1561.53 732.874 Q1558.47 735.559 1552.76 735.559 Q1547.04 735.559 1543.96 732.874 Q1540.9 730.189 1540.9 725.166 Q1540.9 721.856 1542.8 719.564 Q1544.7 717.272 1548.08 716.485 M1546.37 709.101 Q1546.37 711.786 1548.03 713.291 Q1549.72 714.795 1552.76 714.795 Q1555.77 714.795 1557.45 713.291 Q1559.17 711.786 1559.17 709.101 Q1559.17 706.416 1557.45 704.911 Q1555.77 703.407 1552.76 703.407 Q1549.72 703.407 1548.03 704.911 Q1546.37 706.416 1546.37 709.101 Z" fill="#000000" fill-rule="nonzero" fill-opacity="1" /><polyline clip-path="url(#clip420)" style="stroke:#000000; stroke-linecap:round; stroke-linejoin:round; stroke-width:4; stroke-opacity:1; fill:none" points="134.272,678.888 134.272,153.712 "/>
<path clip-path="url(#clip420)" d="M37.7368 490.651 L43.2113 490.651 Q41.8427 493.134 41.1743 495.649 Q40.474 498.131 40.474 500.677 Q40.474 506.375 44.1025 509.526 Q47.6991 512.677 54.224 512.677 Q60.7488 512.677 64.3773 509.526 Q67.9739 506.375 67.9739 500.677 Q67.9739 498.131 67.3055 495.649 Q66.6053 493.134 65.2366 490.651 L70.6475 490.651 Q71.7933 493.102 72.3662 495.744 Q72.9392 498.354 72.9392 501.314 Q72.9392 509.367 67.8784 514.109 Q62.8177 518.852 54.224 518.852 Q45.503 518.852 40.5059 514.077 Q35.5088 509.271 35.5088 500.932 Q35.5088 498.227 36.0817 495.649 Q36.6228 493.07 37.7368 490.651 Z" fill="#000000" fill-rule="nonzero" fill-opacity="1" /><path clip-path="url(#clip420)" d="M54.0967 464.266 Q54.0967 471.363 55.7199 474.101 Q57.3432 476.838 61.2581 476.838 Q64.3773 476.838 66.2233 474.801 Q68.0376 472.732 68.0376 469.199 Q68.0376 464.329 64.6001 461.401 Q61.1308 458.441 55.4016 458.441 L54.0967 458.441 L54.0967 464.266 M51.6777 452.585 L72.0161 452.585 L72.0161 458.441 L66.6053 458.441 Q69.8518 460.446 71.4114 463.438 Q72.9392 466.43 72.9392 470.759 Q72.9392 476.233 69.8836 479.48 Q66.7962 482.694 61.64 482.694 Q55.6244 482.694 52.5689 478.684 Q49.5134 474.642 49.5134 466.653 L49.5134 458.441 L48.9404 458.441 Q44.8982 458.441 42.702 461.115 Q40.474 463.756 40.474 468.562 Q40.474 471.618 41.2061 474.514 Q41.9382 477.411 43.4023 480.084 L37.9914 480.084 Q36.7501 476.87 36.1454 473.846 Q35.5088 470.822 35.5088 467.958 Q35.5088 460.223 39.5192 456.404 Q43.5296 452.585 51.6777 452.585 Z" fill="#000000" fill-rule="nonzero" fill-opacity="1" /><path clip-path="url(#clip420)" d="M50.5 410.889 L72.0161 410.889 L72.0161 416.746 L50.691 416.746 Q45.6303 416.746 43.1158 418.719 Q40.6014 420.692 40.6014 424.639 Q40.6014 429.382 43.6251 432.119 Q46.6488 434.856 51.8687 434.856 L72.0161 434.856 L72.0161 440.744 L36.3682 440.744 L36.3682 434.856 L41.9063 434.856 Q38.6917 432.755 37.1002 429.923 Q35.5088 427.058 35.5088 423.334 Q35.5088 417.191 39.3282 414.04 Q43.1158 410.889 50.5 410.889 Z" fill="#000000" fill-rule="nonzero" fill-opacity="1" /><path clip-path="url(#clip420)" d="M54.0967 383.007 Q54.0967 390.105 55.7199 392.842 Q57.3432 395.58 61.2581 395.58 Q64.3773 395.58 66.2233 393.543 Q68.0376 391.474 68.0376 387.941 Q68.0376 383.071 64.6001 380.143 Q61.1308 377.183 55.4016 377.183 L54.0967 377.183 L54.0967 383.007 M51.6777 371.326 L72.0161 371.326 L72.0161 377.183 L66.6053 377.183 Q69.8518 379.188 71.4114 382.18 Q72.9392 385.172 72.9392 389.5 Q72.9392 394.975 69.8836 398.221 Q66.7962 401.436 61.64 401.436 Q55.6244 401.436 52.5689 397.426 Q49.5134 393.383 49.5134 385.394 L49.5134 377.183 L48.9404 377.183 Q44.8982 377.183 42.702 379.856 Q40.474 382.498 40.474 387.304 Q40.474 390.36 41.2061 393.256 Q41.9382 396.153 43.4023 398.826 L37.9914 398.826 Q36.7501 395.611 36.1454 392.588 Q35.5088 389.564 35.5088 386.699 Q35.5088 378.965 39.5192 375.146 Q43.5296 371.326 51.6777 371.326 Z" fill="#000000" fill-rule="nonzero" fill-opacity="1" /><path clip-path="url(#clip420)" d="M22.4909 359.263 L22.4909 353.407 L72.0161 353.407 L72.0161 359.263 L22.4909 359.263 Z" fill="#000000" fill-rule="nonzero" fill-opacity="1" /><path clip-path="url(#clip420)" d="M24.4961 320.178 L24.4961 313.748 L72.0161 313.748 L72.0161 320.178 L24.4961 320.178 Z" fill="#000000" fill-rule="nonzero" fill-opacity="1" /><path clip-path="url(#clip420)" d="M278.251 12.096 L313.008 12.096 L313.008 18.9825 L286.434 18.9825 L286.434 36.8065 L310.415 36.8065 L310.415 43.6931 L286.434 43.6931 L286.434 72.576 L278.251 72.576 L278.251 12.096 Z" fill="#000000" fill-rule="nonzero" fill-opacity="1" /><path clip-path="url(#clip420)" d="M340.27 32.4315 Q334.275 32.4315 330.791 37.1306 Q327.307 41.7891 327.307 49.9314 Q327.307 58.0738 330.751 62.7728 Q334.234 67.4314 340.27 67.4314 Q346.225 67.4314 349.709 62.7323 Q353.193 58.0333 353.193 49.9314 Q353.193 41.8701 349.709 37.1711 Q346.225 32.4315 340.27 32.4315 M340.27 26.1121 Q349.992 26.1121 355.542 32.4315 Q361.092 38.7509 361.092 49.9314 Q361.092 61.0714 355.542 67.4314 Q349.992 73.7508 340.27 73.7508 Q330.508 73.7508 324.958 67.4314 Q319.449 61.0714 319.449 49.9314 Q319.449 38.7509 324.958 32.4315 Q330.508 26.1121 340.27 26.1121 Z" fill="#000000" fill-rule="nonzero" fill-opacity="1" /><path clip-path="url(#clip420)" d="M399.737 34.1734 Q398.482 33.4443 396.983 33.1202 Q395.525 32.7556 393.742 32.7556 Q387.423 32.7556 384.02 36.8875 Q380.658 40.9789 380.658 48.6757 L380.658 72.576 L373.164 72.576 L373.164 27.2059 L380.658 27.2059 L380.658 34.2544 Q383.007 30.1225 386.775 28.1376 Q390.542 26.1121 395.93 26.1121 Q396.699 26.1121 397.631 26.2337 Q398.563 26.3147 399.697 26.5172 L399.737 34.1734 Z" fill="#000000" fill-rule="nonzero" fill-opacity="1" /><path clip-path="url(#clip420)" d="M441.421 35.9153 Q444.216 30.8922 448.105 28.5022 Q451.994 26.1121 457.26 26.1121 Q464.349 26.1121 468.198 31.0947 Q472.046 36.0368 472.046 45.1919 L472.046 72.576 L464.552 72.576 L464.552 45.4349 Q464.552 38.913 462.243 35.7533 Q459.934 32.5936 455.194 32.5936 Q449.402 32.5936 446.039 36.4419 Q442.677 40.2903 442.677 46.9338 L442.677 72.576 L435.183 72.576 L435.183 45.4349 Q435.183 38.8725 432.874 35.7533 Q430.565 32.5936 425.744 32.5936 Q420.032 32.5936 416.67 36.4824 Q413.308 40.3308 413.308 46.9338 L413.308 72.576 L405.814 72.576 L405.814 27.2059 L413.308 27.2059 L413.308 34.2544 Q415.86 30.082 419.425 28.0971 Q422.99 26.1121 427.891 26.1121 Q432.833 26.1121 436.277 28.6237 Q439.76 31.1352 441.421 35.9153 Z" fill="#000000" fill-rule="nonzero" fill-opacity="1" /><path clip-path="url(#clip420)" d="M507.532 49.7694 Q498.499 49.7694 495.015 51.8354 Q491.531 53.9013 491.531 58.8839 Q491.531 62.8538 494.124 65.2034 Q496.757 67.5124 501.253 67.5124 Q507.451 67.5124 511.178 63.1374 Q514.945 58.7219 514.945 51.4303 L514.945 49.7694 L507.532 49.7694 M522.399 46.6907 L522.399 72.576 L514.945 72.576 L514.945 65.6895 Q512.393 69.8214 508.585 71.8063 Q504.777 73.7508 499.268 73.7508 Q492.301 73.7508 488.169 69.8619 Q484.077 65.9325 484.077 59.3701 Q484.077 51.7138 489.181 47.825 Q494.326 43.9361 504.494 43.9361 L514.945 43.9361 L514.945 43.2069 Q514.945 38.0623 511.542 35.2672 Q508.18 32.4315 502.063 32.4315 Q498.174 32.4315 494.488 33.3632 Q490.802 34.295 487.399 36.1584 L487.399 29.2718 Q491.49 27.692 495.339 26.9223 Q499.187 26.1121 502.833 26.1121 Q512.677 26.1121 517.538 31.2163 Q522.399 36.3204 522.399 46.6907 Z" fill="#000000" fill-rule="nonzero" fill-opacity="1" /><path clip-path="url(#clip420)" d="M593.978 34.0924 L593.978 9.54393 L601.432 9.54393 L601.432 72.576 L593.978 72.576 L593.978 65.7705 Q591.629 69.8214 588.023 71.8063 Q584.459 73.7508 579.436 73.7508 Q571.212 73.7508 566.027 67.1883 Q560.882 60.6258 560.882 49.9314 Q560.882 39.2371 566.027 32.6746 Q571.212 26.1121 579.436 26.1121 Q584.459 26.1121 588.023 28.0971 Q591.629 30.0415 593.978 34.0924 M568.579 49.9314 Q568.579 58.1548 571.941 62.8538 Q575.344 67.5124 581.258 67.5124 Q587.173 67.5124 590.576 62.8538 Q593.978 58.1548 593.978 49.9314 Q593.978 41.7081 590.576 37.0496 Q587.173 32.3505 581.258 32.3505 Q575.344 32.3505 571.941 37.0496 Q568.579 41.7081 568.579 49.9314 Z" fill="#000000" fill-rule="nonzero" fill-opacity="1" /><path clip-path="url(#clip420)" d="M655.593 48.0275 L655.593 51.6733 L621.322 51.6733 Q621.808 59.3701 625.94 63.421 Q630.112 67.4314 637.526 67.4314 Q641.819 67.4314 645.83 66.3781 Q649.881 65.3249 653.851 63.2184 L653.851 70.267 Q649.84 71.9684 645.627 72.8596 Q641.414 73.7508 637.08 73.7508 Q626.224 73.7508 619.864 67.4314 Q613.544 61.1119 613.544 50.3365 Q613.544 39.1965 619.54 32.6746 Q625.575 26.1121 635.784 26.1121 Q644.939 26.1121 650.245 32.0264 Q655.593 37.9003 655.593 48.0275 M648.139 45.84 Q648.058 39.7232 644.696 36.0774 Q641.374 32.4315 635.865 32.4315 Q629.626 32.4315 625.859 35.9558 Q622.132 39.4801 621.565 45.8805 L648.139 45.84 Z" fill="#000000" fill-rule="nonzero" fill-opacity="1" /><path clip-path="url(#clip420)" d="M719.07 17.6457 Q710.158 17.6457 704.892 24.2892 Q699.666 30.9327 699.666 42.3968 Q699.666 53.8203 704.892 60.4638 Q710.158 67.1073 719.07 67.1073 Q727.982 67.1073 733.167 60.4638 Q738.393 53.8203 738.393 42.3968 Q738.393 30.9327 733.167 24.2892 Q727.982 17.6457 719.07 17.6457 M719.07 11.0023 Q731.79 11.0023 739.406 19.5497 Q747.021 28.0566 747.021 42.3968 Q747.021 56.6965 739.406 65.2439 Q731.79 73.7508 719.07 73.7508 Q706.31 73.7508 698.654 65.2439 Q691.038 56.737 691.038 42.3968 Q691.038 28.0566 698.654 19.5497 Q706.31 11.0023 719.07 11.0023 Z" fill="#000000" fill-rule="nonzero" fill-opacity="1" /><path clip-path="url(#clip420)" d="M797.212 45.1919 L797.212 72.576 L789.759 72.576 L789.759 45.4349 Q789.759 38.994 787.247 35.7938 Q784.735 32.5936 779.712 32.5936 Q773.676 32.5936 770.193 36.4419 Q766.709 40.2903 766.709 46.9338 L766.709 72.576 L759.215 72.576 L759.215 27.2059 L766.709 27.2059 L766.709 34.2544 Q769.382 30.163 772.988 28.1376 Q776.634 26.1121 781.373 26.1121 Q789.191 26.1121 793.202 30.9732 Q797.212 35.7938 797.212 45.1919 Z" fill="#000000" fill-rule="nonzero" fill-opacity="1" /><path clip-path="url(#clip420)" d="M841.934 34.0924 L841.934 9.54393 L849.388 9.54393 L849.388 72.576 L841.934 72.576 L841.934 65.7705 Q839.585 69.8214 835.979 71.8063 Q832.415 73.7508 827.391 73.7508 Q819.168 73.7508 813.983 67.1883 Q808.838 60.6258 808.838 49.9314 Q808.838 39.2371 813.983 32.6746 Q819.168 26.1121 827.391 26.1121 Q832.415 26.1121 835.979 28.0971 Q839.585 30.0415 841.934 34.0924 M816.535 49.9314 Q816.535 58.1548 819.897 62.8538 Q823.3 67.5124 829.214 67.5124 Q835.129 67.5124 838.531 62.8538 Q841.934 58.1548 841.934 49.9314 Q841.934 41.7081 838.531 37.0496 Q835.129 32.3505 829.214 32.3505 Q823.3 32.3505 819.897 37.0496 Q816.535 41.7081 816.535 49.9314 Z" fill="#000000" fill-rule="nonzero" fill-opacity="1" /><path clip-path="url(#clip420)" d="M885.36 49.7694 Q876.326 49.7694 872.843 51.8354 Q869.359 53.9013 869.359 58.8839 Q869.359 62.8538 871.951 65.2034 Q874.584 67.5124 879.081 67.5124 Q885.279 67.5124 889.006 63.1374 Q892.773 58.7219 892.773 51.4303 L892.773 49.7694 L885.36 49.7694 M900.227 46.6907 L900.227 72.576 L892.773 72.576 L892.773 65.6895 Q890.221 69.8214 886.413 71.8063 Q882.605 73.7508 877.096 73.7508 Q870.128 73.7508 865.997 69.8619 Q861.905 65.9325 861.905 59.3701 Q861.905 51.7138 867.009 47.825 Q872.154 43.9361 882.322 43.9361 L892.773 43.9361 L892.773 43.2069 Q892.773 38.0623 889.37 35.2672 Q886.008 32.4315 879.891 32.4315 Q876.002 32.4315 872.316 33.3632 Q868.63 34.295 865.227 36.1584 L865.227 29.2718 Q869.318 27.692 873.167 26.9223 Q877.015 26.1121 880.661 26.1121 Q890.505 26.1121 895.366 31.2163 Q900.227 36.3204 900.227 46.6907 Z" fill="#000000" fill-rule="nonzero" fill-opacity="1" /><path clip-path="url(#clip420)" d="M933.89 12.096 L985.053 12.096 L985.053 18.9825 L963.583 18.9825 L963.583 72.576 L955.359 72.576 L955.359 18.9825 L933.89 18.9825 L933.89 12.096 Z" fill="#000000" fill-rule="nonzero" fill-opacity="1" /><path clip-path="url(#clip420)" d="M1006.72 34.1734 Q1005.47 33.4443 1003.97 33.1202 Q1002.51 32.7556 1000.73 32.7556 Q994.41 32.7556 991.007 36.8875 Q987.645 40.9789 987.645 48.6757 L987.645 72.576 L980.151 72.576 L980.151 27.2059 L987.645 27.2059 L987.645 34.2544 Q989.995 30.1225 993.762 28.1376 Q997.529 26.1121 1002.92 26.1121 Q1003.69 26.1121 1004.62 26.2337 Q1005.55 26.3147 1006.68 26.5172 L1006.72 34.1734 Z" fill="#000000" fill-rule="nonzero" fill-opacity="1" /><path clip-path="url(#clip420)" d="M1035.16 49.7694 Q1026.13 49.7694 1022.65 51.8354 Q1019.16 53.9013 1019.16 58.8839 Q1019.16 62.8538 1021.75 65.2034 Q1024.39 67.5124 1028.88 67.5124 Q1035.08 67.5124 1038.81 63.1374 Q1042.58 58.7219 1042.58 51.4303 L1042.58 49.7694 L1035.16 49.7694 M1050.03 46.6907 L1050.03 72.576 L1042.58 72.576 L1042.58 65.6895 Q1040.02 69.8214 1036.22 71.8063 Q1032.41 73.7508 1026.9 73.7508 Q1019.93 73.7508 1015.8 69.8619 Q1011.71 65.9325 1011.71 59.3701 Q1011.71 51.7138 1016.81 47.825 Q1021.96 43.9361 1032.12 43.9361 L1042.58 43.9361 L1042.58 43.2069 Q1042.58 38.0623 1039.17 35.2672 Q1035.81 32.4315 1029.69 32.4315 Q1025.8 32.4315 1022.12 33.3632 Q1018.43 34.295 1015.03 36.1584 L1015.03 29.2718 Q1019.12 27.692 1022.97 26.9223 Q1026.82 26.1121 1030.46 26.1121 Q1040.31 26.1121 1045.17 31.2163 Q1050.03 36.3204 1050.03 46.6907 Z" fill="#000000" fill-rule="nonzero" fill-opacity="1" /><path clip-path="url(#clip420)" d="M1103.1 45.1919 L1103.1 72.576 L1095.64 72.576 L1095.64 45.4349 Q1095.64 38.994 1093.13 35.7938 Q1090.62 32.5936 1085.6 32.5936 Q1079.56 32.5936 1076.08 36.4419 Q1072.59 40.2903 1072.59 46.9338 L1072.59 72.576 L1065.1 72.576 L1065.1 27.2059 L1072.59 27.2059 L1072.59 34.2544 Q1075.27 30.163 1078.87 28.1376 Q1082.52 26.1121 1087.26 26.1121 Q1095.08 26.1121 1099.09 30.9732 Q1103.1 35.7938 1103.1 45.1919 Z" fill="#000000" fill-rule="nonzero" fill-opacity="1" /><path clip-path="url(#clip420)" d="M1146.89 28.5427 L1146.89 35.5912 Q1143.73 33.9709 1140.32 33.1607 Q1136.92 32.3505 1133.28 32.3505 Q1127.73 32.3505 1124.93 34.0519 Q1122.18 35.7533 1122.18 39.156 Q1122.18 41.7486 1124.16 43.2475 Q1126.15 44.7058 1132.14 46.0426 L1134.69 46.6097 Q1142.63 48.3111 1145.95 51.4303 Q1149.32 54.509 1149.32 60.0587 Q1149.32 66.3781 1144.29 70.0644 Q1139.31 73.7508 1130.56 73.7508 Q1126.92 73.7508 1122.95 73.0216 Q1119.02 72.3329 1114.64 70.9151 L1114.64 63.2184 Q1118.77 65.3654 1122.78 66.4591 Q1126.79 67.5124 1130.72 67.5124 Q1135.99 67.5124 1138.82 65.73 Q1141.66 63.9071 1141.66 60.6258 Q1141.66 57.5877 1139.59 55.9673 Q1137.57 54.3469 1130.64 52.8481 L1128.05 52.2405 Q1121.12 50.7821 1118.04 47.7845 Q1114.97 44.7463 1114.97 39.4801 Q1114.97 33.0797 1119.5 29.5959 Q1124.04 26.1121 1132.38 26.1121 Q1136.52 26.1121 1140.16 26.7198 Q1143.81 27.3274 1146.89 28.5427 Z" fill="#000000" fill-rule="nonzero" fill-opacity="1" /><path clip-path="url(#clip420)" d="M1196.51 35.9153 Q1199.3 30.8922 1203.19 28.5022 Q1207.08 26.1121 1212.35 26.1121 Q1219.44 26.1121 1223.29 31.0947 Q1227.13 36.0368 1227.13 45.1919 L1227.13 72.576 L1219.64 72.576 L1219.64 45.4349 Q1219.64 38.913 1217.33 35.7533 Q1215.02 32.5936 1210.28 32.5936 Q1204.49 32.5936 1201.13 36.4419 Q1197.77 40.2903 1197.77 46.9338 L1197.77 72.576 L1190.27 72.576 L1190.27 45.4349 Q1190.27 38.8725 1187.96 35.7533 Q1185.65 32.5936 1180.83 32.5936 Q1175.12 32.5936 1171.76 36.4824 Q1168.4 40.3308 1168.4 46.9338 L1168.4 72.576 L1160.9 72.576 L1160.9 27.2059 L1168.4 27.2059 L1168.4 34.2544 Q1170.95 30.082 1174.51 28.0971 Q1178.08 26.1121 1182.98 26.1121 Q1187.92 26.1121 1191.37 28.6237 Q1194.85 31.1352 1196.51 35.9153 Z" fill="#000000" fill-rule="nonzero" fill-opacity="1" /><path clip-path="url(#clip420)" d="M1242 27.2059 L1249.46 27.2059 L1249.46 72.576 L1242 72.576 L1242 27.2059 M1242 9.54393 L1249.46 9.54393 L1249.46 18.9825 L1242 18.9825 L1242 9.54393 Z" fill="#000000" fill-rule="nonzero" fill-opacity="1" /><path clip-path="url(#clip420)" d="M1272.42 14.324 L1272.42 27.2059 L1287.78 27.2059 L1287.78 32.9987 L1272.42 32.9987 L1272.42 57.6282 Q1272.42 63.1779 1273.92 64.7578 Q1275.46 66.3376 1280.12 66.3376 L1287.78 66.3376 L1287.78 72.576 L1280.12 72.576 Q1271.49 72.576 1268.21 69.3758 Q1264.93 66.1351 1264.93 57.6282 L1264.93 32.9987 L1259.46 32.9987 L1259.46 27.2059 L1264.93 27.2059 L1264.93 14.324 L1272.42 14.324 Z" fill="#000000" fill-rule="nonzero" fill-opacity="1" /><path clip-path="url(#clip420)" d="M1297.58 27.2059 L1305.03 27.2059 L1305.03 72.576 L1297.58 72.576 L1297.58 27.2059 M1297.58 9.54393 L1305.03 9.54393 L1305.03 18.9825 L1297.58 18.9825 L1297.58 9.54393 Z" fill="#000000" fill-rule="nonzero" fill-opacity="1" /><path clip-path="url(#clip420)" d="M1350.48 34.0924 L1350.48 9.54393 L1357.94 9.54393 L1357.94 72.576 L1350.48 72.576 L1350.48 65.7705 Q1348.14 69.8214 1344.53 71.8063 Q1340.97 73.7508 1335.94 73.7508 Q1327.72 73.7508 1322.53 67.1883 Q1317.39 60.6258 1317.39 49.9314 Q1317.39 39.2371 1322.53 32.6746 Q1327.72 26.1121 1335.94 26.1121 Q1340.97 26.1121 1344.53 28.0971 Q1348.14 30.0415 1350.48 34.0924 M1325.09 49.9314 Q1325.09 58.1548 1328.45 62.8538 Q1331.85 67.5124 1337.76 67.5124 Q1343.68 67.5124 1347.08 62.8538 Q1350.48 58.1548 1350.48 49.9314 Q1350.48 41.7081 1347.08 37.0496 Q1343.68 32.3505 1337.76 32.3505 Q1331.85 32.3505 1328.45 37.0496 Q1325.09 41.7081 1325.09 49.9314 Z" fill="#000000" fill-rule="nonzero" fill-opacity="1" /><path clip-path="url(#clip420)" d="M1393.91 49.7694 Q1384.88 49.7694 1381.39 51.8354 Q1377.91 53.9013 1377.91 58.8839 Q1377.91 62.8538 1380.5 65.2034 Q1383.13 67.5124 1387.63 67.5124 Q1393.83 67.5124 1397.56 63.1374 Q1401.32 58.7219 1401.32 51.4303 L1401.32 49.7694 L1393.91 49.7694 M1408.78 46.6907 L1408.78 72.576 L1401.32 72.576 L1401.32 65.6895 Q1398.77 69.8214 1394.96 71.8063 Q1391.16 73.7508 1385.65 73.7508 Q1378.68 73.7508 1374.55 69.8619 Q1370.46 65.9325 1370.46 59.3701 Q1370.46 51.7138 1375.56 47.825 Q1380.7 43.9361 1390.87 43.9361 L1401.32 43.9361 L1401.32 43.2069 Q1401.32 38.0623 1397.92 35.2672 Q1394.56 32.4315 1388.44 32.4315 Q1384.55 32.4315 1380.87 33.3632 Q1377.18 34.295 1373.78 36.1584 L1373.78 29.2718 Q1377.87 27.692 1381.72 26.9223 Q1385.57 26.1121 1389.21 26.1121 Q1399.06 26.1121 1403.92 31.2163 Q1408.78 36.3204 1408.78 46.6907 Z" fill="#000000" fill-rule="nonzero" fill-opacity="1" /><polyline clip-path="url(#clip422)" style="stroke:#009af9; stroke-linecap:round; stroke-linejoin:round; stroke-width:4; stroke-opacity:1; fill:none" points="134.272,394.418 164.453,394.418 164.453,499.336 194.633,499.336 194.633,197.339 224.814,197.339 224.814,575.589 254.994,575.589 254.994,343.036 285.175,343.036 285.175,435.801 315.355,435.801 315.355,247.423 345.536,247.423 345.536,468.995 375.716,468.995 375.716,321.154 405.897,321.154 405.897,555.607 436.077,555.607 436.077,359.025 466.258,359.025 466.258,302.915 496.438,302.915 496.438,492.888 526.619,492.888 526.619,377.837 556.799,377.837 556.799,429.856 586.98,429.856 586.98,439.702 617.16,439.702 617.16,297.126 647.341,297.126 647.341,399.359 677.521,399.359 677.521,607.059 707.702,607.059 707.702,624.12 737.882,624.12 737.882,456.74 768.063,456.74 768.063,370.123 798.243,370.123 798.243,511.05 828.424,511.05 828.424,368.523 858.604,368.523 858.604,197.477 888.785,197.477 888.785,396.674 918.965,396.674 918.965,455.125 949.146,455.125 949.146,452.852 979.326,452.852 979.326,307.281 1009.51,307.281 1009.51,413.789 1039.69,413.789 1039.69,541.412 1069.87,541.412 1069.87,439.927 1100.05,439.927 1100.05,524.533 1130.23,524.533 1130.23,323.413 1160.41,323.413 1160.41,369.241 1190.59,369.241 1190.59,363.127 1220.77,363.127 1220.77,449.123 1250.95,449.123 1250.95,391.353 1281.13,391.353 1281.13,267.943 1311.31,267.943 1311.31,372.115 1341.49,372.115 1341.49,434.858 1371.67,434.858 1371.67,416.25 1401.85,416.25 1401.85,313.07 1432.03,313.07 1432.03,403.331 1462.21,403.331 1462.21,383.084 1492.39,383.084 1492.39,416.057 1522.58,416.057 1522.58,565.762 1552.76,565.762 1552.76,446.993 "/>
<polyline clip-path="url(#clip422)" style="stroke:#e26f46; stroke-linecap:round; stroke-linejoin:round; stroke-width:4; stroke-opacity:1; fill:none" stroke-dasharray="16, 10" points="134.272,394.418 164.453,394.418 164.453,499.336 194.633,499.336 194.633,197.339 224.814,197.339 224.814,575.589 254.994,575.589 254.994,343.036 285.175,343.036 285.175,435.801 315.355,435.801 315.355,247.423 345.536,247.423 345.536,468.995 375.716,468.995 375.716,321.154 405.897,321.154 405.897,555.607 436.077,555.607 436.077,359.025 466.258,359.025 466.258,302.915 496.438,302.915 496.438,492.888 526.619,492.888 526.619,377.837 556.799,377.837 556.799,429.856 586.98,429.856 586.98,439.702 617.16,439.702 617.16,297.126 647.341,297.126 647.341,399.359 677.521,399.359 677.521,607.059 707.702,607.059 707.702,624.12 737.882,624.12 737.882,456.74 768.063,456.74 768.063,370.123 798.243,370.123 798.243,511.05 828.424,511.05 828.424,368.523 858.604,368.523 858.604,197.477 888.785,197.477 888.785,396.674 918.965,396.674 918.965,455.125 949.146,455.125 949.146,452.852 979.326,452.852 979.326,307.281 1009.51,307.281 1009.51,413.789 1039.69,413.789 1039.69,541.412 1069.87,541.412 1069.87,439.927 1100.05,439.927 1100.05,524.533 1130.23,524.533 1130.23,323.413 1160.41,323.413 1160.41,369.241 1190.59,369.241 1190.59,363.127 1220.77,363.127 1220.77,449.123 1250.95,449.123 1250.95,391.353 1281.13,391.353 1281.13,267.943 1311.31,267.943 1311.31,372.115 1341.49,372.115 1341.49,434.858 1371.67,434.858 1371.67,416.25 1401.85,416.25 1401.85,313.07 1432.03,313.07 1432.03,403.331 1462.21,403.331 1462.21,383.084 1492.39,383.084 1492.39,416.057 1522.58,416.057 1522.58,565.762 1552.76,565.762 1552.76,446.993 "/>
<path clip-path="url(#clip420)" d="M134.272 1382.14 L1552.76 1382.14 L1552.76 856.964 L134.272 856.964  Z" fill="#ffffff" fill-rule="evenodd" fill-opacity="1"/>
<defs>
  <clipPath id="clip423">
    <rect x="134" y="856" width="1419" height="526"/>
  </clipPath>
</defs>
<polyline clip-path="url(#clip423)" style="stroke:#000000; stroke-linecap:round; stroke-linejoin:round; stroke-width:2; stroke-opacity:0.1; fill:none" points="134.272,1382.14 134.272,856.964 "/>
<polyline clip-path="url(#clip423)" style="stroke:#000000; stroke-linecap:round; stroke-linejoin:round; stroke-width:2; stroke-opacity:0.1; fill:none" points="488.893,1382.14 488.893,856.964 "/>
<polyline clip-path="url(#clip423)" style="stroke:#000000; stroke-linecap:round; stroke-linejoin:round; stroke-width:2; stroke-opacity:0.1; fill:none" points="843.514,1382.14 843.514,856.964 "/>
<polyline clip-path="url(#clip423)" style="stroke:#000000; stroke-linecap:round; stroke-linejoin:round; stroke-width:2; stroke-opacity:0.1; fill:none" points="1198.13,1382.14 1198.13,856.964 "/>
<polyline clip-path="url(#clip423)" style="stroke:#000000; stroke-linecap:round; stroke-linejoin:round; stroke-width:2; stroke-opacity:0.1; fill:none" points="1552.76,1382.14 1552.76,856.964 "/>
<polyline clip-path="url(#clip420)" style="stroke:#000000; stroke-linecap:round; stroke-linejoin:round; stroke-width:4; stroke-opacity:1; fill:none" points="134.272,1382.14 1552.76,1382.14 "/>
<polyline clip-path="url(#clip420)" style="stroke:#000000; stroke-linecap:round; stroke-linejoin:round; stroke-width:4; stroke-opacity:1; fill:none" points="134.272,1382.14 134.272,1363.24 "/>
<polyline clip-path="url(#clip420)" style="stroke:#000000; stroke-linecap:round; stroke-linejoin:round; stroke-width:4; stroke-opacity:1; fill:none" points="488.893,1382.14 488.893,1363.24 "/>
<polyline clip-path="url(#clip420)" style="stroke:#000000; stroke-linecap:round; stroke-linejoin:round; stroke-width:4; stroke-opacity:1; fill:none" points="843.514,1382.14 843.514,1363.24 "/>
<polyline clip-path="url(#clip420)" style="stroke:#000000; stroke-linecap:round; stroke-linejoin:round; stroke-width:4; stroke-opacity:1; fill:none" points="1198.13,1382.14 1198.13,1363.24 "/>
<polyline clip-path="url(#clip420)" style="stroke:#000000; stroke-linecap:round; stroke-linejoin:round; stroke-width:4; stroke-opacity:1; fill:none" points="1552.76,1382.14 1552.76,1363.24 "/>
<path clip-path="url(#clip420)" d="M134.272 1406.66 Q130.661 1406.66 128.832 1410.22 Q127.027 1413.76 127.027 1420.89 Q127.027 1428 128.832 1431.57 Q130.661 1435.11 134.272 1435.11 Q137.906 1435.11 139.712 1431.57 Q141.541 1428 141.541 1420.89 Q141.541 1413.76 139.712 1410.22 Q137.906 1406.66 134.272 1406.66 M134.272 1402.95 Q140.082 1402.95 143.138 1407.56 Q146.217 1412.14 146.217 1420.89 Q146.217 1429.62 143.138 1434.23 Q140.082 1438.81 134.272 1438.81 Q128.462 1438.81 125.383 1434.23 Q122.328 1429.62 122.328 1420.89 Q122.328 1412.14 125.383 1407.56 Q128.462 1402.95 134.272 1402.95 Z" fill="#000000" fill-rule="nonzero" fill-opacity="1" /><path clip-path="url(#clip420)" d="M483.546 1434.2 L499.865 1434.2 L499.865 1438.14 L477.921 1438.14 L477.921 1434.2 Q480.583 1431.45 485.166 1426.82 Q489.773 1422.17 490.953 1420.83 Q493.199 1418.3 494.078 1416.57 Q494.981 1414.81 494.981 1413.12 Q494.981 1410.36 493.037 1408.63 Q491.115 1406.89 488.013 1406.89 Q485.814 1406.89 483.361 1407.65 Q480.93 1408.42 478.152 1409.97 L478.152 1405.25 Q480.976 1404.11 483.43 1403.53 Q485.884 1402.95 487.921 1402.95 Q493.291 1402.95 496.486 1405.64 Q499.68 1408.33 499.68 1412.82 Q499.68 1414.95 498.87 1416.87 Q498.083 1418.76 495.976 1421.36 Q495.398 1422.03 492.296 1425.25 Q489.194 1428.44 483.546 1434.2 Z" fill="#000000" fill-rule="nonzero" fill-opacity="1" /><path clip-path="url(#clip420)" d="M846.523 1407.65 L834.718 1426.1 L846.523 1426.1 L846.523 1407.65 M845.296 1403.58 L851.176 1403.58 L851.176 1426.1 L856.107 1426.1 L856.107 1429.99 L851.176 1429.99 L851.176 1438.14 L846.523 1438.14 L846.523 1429.99 L830.921 1429.99 L830.921 1425.48 L845.296 1403.58 Z" fill="#000000" fill-rule="nonzero" fill-opacity="1" /><path clip-path="url(#clip420)" d="M1198.54 1419 Q1195.39 1419 1193.54 1421.15 Q1191.71 1423.3 1191.71 1427.05 Q1191.71 1430.78 1193.54 1432.95 Q1195.39 1435.11 1198.54 1435.11 Q1201.69 1435.11 1203.52 1432.95 Q1205.37 1430.78 1205.37 1427.05 Q1205.37 1423.3 1203.52 1421.15 Q1201.69 1419 1198.54 1419 M1207.82 1404.34 L1207.82 1408.6 Q1206.06 1407.77 1204.26 1407.33 Q1202.48 1406.89 1200.72 1406.89 Q1196.09 1406.89 1193.63 1410.01 Q1191.2 1413.14 1190.85 1419.46 Q1192.22 1417.45 1194.28 1416.38 Q1196.34 1415.29 1198.82 1415.29 Q1204.03 1415.29 1207.04 1418.46 Q1210.07 1421.61 1210.07 1427.05 Q1210.07 1432.38 1206.92 1435.59 Q1203.77 1438.81 1198.54 1438.81 Q1192.54 1438.81 1189.37 1434.23 Q1186.2 1429.62 1186.2 1420.89 Q1186.2 1412.7 1190.09 1407.84 Q1193.98 1402.95 1200.53 1402.95 Q1202.29 1402.95 1204.07 1403.3 Q1205.88 1403.65 1207.82 1404.34 Z" fill="#000000" fill-rule="nonzero" fill-opacity="1" /><path clip-path="url(#clip420)" d="M1552.76 1421.73 Q1549.42 1421.73 1547.5 1423.51 Q1545.6 1425.29 1545.6 1428.42 Q1545.6 1431.54 1547.5 1433.33 Q1549.42 1435.11 1552.76 1435.11 Q1556.09 1435.11 1558.01 1433.33 Q1559.93 1431.52 1559.93 1428.42 Q1559.93 1425.29 1558.01 1423.51 Q1556.11 1421.73 1552.76 1421.73 M1548.08 1419.74 Q1545.07 1419 1543.38 1416.94 Q1541.71 1414.88 1541.71 1411.91 Q1541.71 1407.77 1544.65 1405.36 Q1547.62 1402.95 1552.76 1402.95 Q1557.92 1402.95 1560.86 1405.36 Q1563.8 1407.77 1563.8 1411.91 Q1563.8 1414.88 1562.11 1416.94 Q1560.44 1419 1557.45 1419.74 Q1560.83 1420.52 1562.71 1422.82 Q1564.61 1425.11 1564.61 1428.42 Q1564.61 1433.44 1561.53 1436.13 Q1558.47 1438.81 1552.76 1438.81 Q1547.04 1438.81 1543.96 1436.13 Q1540.9 1433.44 1540.9 1428.42 Q1540.9 1425.11 1542.8 1422.82 Q1544.7 1420.52 1548.08 1419.74 M1546.37 1412.35 Q1546.37 1415.04 1548.03 1416.54 Q1549.72 1418.05 1552.76 1418.05 Q1555.77 1418.05 1557.45 1416.54 Q1559.17 1415.04 1559.17 1412.35 Q1559.17 1409.67 1557.45 1408.16 Q1555.77 1406.66 1552.76 1406.66 Q1549.72 1406.66 1548.03 1408.16 Q1546.37 1409.67 1546.37 1412.35 Z" fill="#000000" fill-rule="nonzero" fill-opacity="1" /><path clip-path="url(#clip420)" d="M771.088 1469.23 L771.088 1479.36 L783.151 1479.36 L783.151 1483.91 L771.088 1483.91 L771.088 1503.26 Q771.088 1507.62 772.266 1508.86 Q773.475 1510.1 777.136 1510.1 L783.151 1510.1 L783.151 1515 L777.136 1515 Q770.356 1515 767.778 1512.49 Q765.2 1509.94 765.2 1503.26 L765.2 1483.91 L760.903 1483.91 L760.903 1479.36 L765.2 1479.36 L765.2 1469.23 L771.088 1469.23 Z" fill="#000000" fill-rule="nonzero" fill-opacity="1" /><path clip-path="url(#clip420)" d="M811.033 1465.48 L824.528 1465.48 L824.528 1470.03 L816.889 1470.03 L816.889 1519.05 L824.528 1519.05 L824.528 1523.6 L811.033 1523.6 L811.033 1465.48 Z" fill="#000000" fill-rule="nonzero" fill-opacity="1" /><path clip-path="url(#clip420)" d="M836.4 1528.56 L836.4 1479.36 L842.257 1479.36 L842.257 1501.51 Q842.257 1506.12 844.453 1508.48 Q846.649 1510.83 850.946 1510.83 Q855.657 1510.83 858.012 1508.16 Q860.399 1505.49 860.399 1500.14 L860.399 1479.36 L866.256 1479.36 L866.256 1506.79 Q866.256 1508.7 866.797 1509.62 Q867.37 1510.52 868.547 1510.52 Q868.834 1510.52 869.343 1510.36 Q869.852 1510.17 870.743 1509.78 L870.743 1514.49 Q869.438 1515.23 868.261 1515.58 Q867.115 1515.93 866.001 1515.93 Q863.805 1515.93 862.5 1514.69 Q861.195 1513.44 860.717 1510.9 Q859.126 1513.41 856.802 1514.69 Q854.511 1515.93 851.392 1515.93 Q848.145 1515.93 845.853 1514.69 Q843.594 1513.44 842.257 1510.96 L842.257 1528.56 L836.4 1528.56 Z" fill="#000000" fill-rule="nonzero" fill-opacity="1" /><path clip-path="url(#clip420)" d="M901.203 1480.41 L901.203 1485.94 Q898.721 1484.67 896.047 1484.03 Q893.373 1483.4 890.509 1483.4 Q886.148 1483.4 883.952 1484.73 Q881.788 1486.07 881.788 1488.75 Q881.788 1490.78 883.347 1491.96 Q884.907 1493.11 889.618 1494.16 L891.623 1494.6 Q897.861 1495.94 900.471 1498.39 Q903.113 1500.81 903.113 1505.17 Q903.113 1510.13 899.166 1513.03 Q895.251 1515.93 888.376 1515.93 Q885.512 1515.93 882.393 1515.35 Q879.305 1514.81 875.868 1513.7 L875.868 1507.65 Q879.114 1509.34 882.265 1510.2 Q885.416 1511.03 888.504 1511.03 Q892.641 1511.03 894.869 1509.62 Q897.097 1508.19 897.097 1505.61 Q897.097 1503.23 895.474 1501.95 Q893.883 1500.68 888.44 1499.5 L886.403 1499.03 Q880.96 1497.88 878.541 1495.52 Q876.122 1493.14 876.122 1489 Q876.122 1483.97 879.687 1481.23 Q883.252 1478.5 889.809 1478.5 Q893.055 1478.5 895.92 1478.97 Q898.784 1479.45 901.203 1480.41 Z" fill="#000000" fill-rule="nonzero" fill-opacity="1" /><path clip-path="url(#clip420)" d="M926.125 1465.48 L926.125 1523.6 L912.63 1523.6 L912.63 1519.05 L920.237 1519.05 L920.237 1470.03 L912.63 1470.03 L912.63 1465.48 L926.125 1465.48 Z" fill="#000000" fill-rule="nonzero" fill-opacity="1" /><polyline clip-path="url(#clip420)" style="stroke:#000000; stroke-linecap:round; stroke-linejoin:round; stroke-width:4; stroke-opacity:1; fill:none" points="134.272,1382.14 134.272,856.964 "/>
<path clip-path="url(#clip420)" d="M37.7368 1211.31 L43.2113 1211.31 Q41.8427 1213.8 41.1743 1216.31 Q40.474 1218.79 40.474 1221.34 Q40.474 1227.04 44.1025 1230.19 Q47.6991 1233.34 54.224 1233.34 Q60.7488 1233.34 64.3773 1230.19 Q67.9739 1227.04 67.9739 1221.34 Q67.9739 1218.79 67.3055 1216.31 Q66.6053 1213.8 65.2366 1211.31 L70.6475 1211.31 Q71.7933 1213.76 72.3662 1216.41 Q72.9392 1219.02 72.9392 1221.98 Q72.9392 1230.03 67.8784 1234.77 Q62.8177 1239.51 54.224 1239.51 Q45.503 1239.51 40.5059 1234.74 Q35.5088 1229.93 35.5088 1221.59 Q35.5088 1218.89 36.0817 1216.31 Q36.6228 1213.73 37.7368 1211.31 Z" fill="#000000" fill-rule="nonzero" fill-opacity="1" /><path clip-path="url(#clip420)" d="M54.0967 1184.93 Q54.0967 1192.03 55.7199 1194.76 Q57.3432 1197.5 61.2581 1197.5 Q64.3773 1197.5 66.2233 1195.46 Q68.0376 1193.39 68.0376 1189.86 Q68.0376 1184.99 64.6001 1182.06 Q61.1308 1179.1 55.4016 1179.1 L54.0967 1179.1 L54.0967 1184.93 M51.6777 1173.25 L72.0161 1173.25 L72.0161 1179.1 L66.6053 1179.1 Q69.8518 1181.11 71.4114 1184.1 Q72.9392 1187.09 72.9392 1191.42 Q72.9392 1196.9 69.8836 1200.14 Q66.7962 1203.36 61.64 1203.36 Q55.6244 1203.36 52.5689 1199.35 Q49.5134 1195.3 49.5134 1187.31 L49.5134 1179.1 L48.9404 1179.1 Q44.8982 1179.1 42.702 1181.78 Q40.474 1184.42 40.474 1189.22 Q40.474 1192.28 41.2061 1195.18 Q41.9382 1198.07 43.4023 1200.75 L37.9914 1200.75 Q36.7501 1197.53 36.1454 1194.51 Q35.5088 1191.48 35.5088 1188.62 Q35.5088 1180.89 39.5192 1177.07 Q43.5296 1173.25 51.6777 1173.25 Z" fill="#000000" fill-rule="nonzero" fill-opacity="1" /><path clip-path="url(#clip420)" d="M50.5 1131.55 L72.0161 1131.55 L72.0161 1137.41 L50.691 1137.41 Q45.6303 1137.41 43.1158 1139.38 Q40.6014 1141.35 40.6014 1145.3 Q40.6014 1150.04 43.6251 1152.78 Q46.6488 1155.52 51.8687 1155.52 L72.0161 1155.52 L72.0161 1161.41 L36.3682 1161.41 L36.3682 1155.52 L41.9063 1155.52 Q38.6917 1153.42 37.1002 1150.58 Q35.5088 1147.72 35.5088 1144 Q35.5088 1137.85 39.3282 1134.7 Q43.1158 1131.55 50.5 1131.55 Z" fill="#000000" fill-rule="nonzero" fill-opacity="1" /><path clip-path="url(#clip420)" d="M54.0967 1103.67 Q54.0967 1110.77 55.7199 1113.5 Q57.3432 1116.24 61.2581 1116.24 Q64.3773 1116.24 66.2233 1114.2 Q68.0376 1112.14 68.0376 1108.6 Q68.0376 1103.73 64.6001 1100.8 Q61.1308 1097.84 55.4016 1097.84 L54.0967 1097.84 L54.0967 1103.67 M51.6777 1091.99 L72.0161 1091.99 L72.0161 1097.84 L66.6053 1097.84 Q69.8518 1099.85 71.4114 1102.84 Q72.9392 1105.83 72.9392 1110.16 Q72.9392 1115.64 69.8836 1118.88 Q66.7962 1122.1 61.64 1122.1 Q55.6244 1122.1 52.5689 1118.09 Q49.5134 1114.05 49.5134 1106.06 L49.5134 1097.84 L48.9404 1097.84 Q44.8982 1097.84 42.702 1100.52 Q40.474 1103.16 40.474 1107.97 Q40.474 1111.02 41.2061 1113.92 Q41.9382 1116.81 43.4023 1119.49 L37.9914 1119.49 Q36.7501 1116.27 36.1454 1113.25 Q35.5088 1110.23 35.5088 1107.36 Q35.5088 1099.63 39.5192 1095.81 Q43.5296 1091.99 51.6777 1091.99 Z" fill="#000000" fill-rule="nonzero" fill-opacity="1" /><path clip-path="url(#clip420)" d="M22.4909 1079.93 L22.4909 1074.07 L72.0161 1074.07 L72.0161 1079.93 L22.4909 1079.93 Z" fill="#000000" fill-rule="nonzero" fill-opacity="1" /><path clip-path="url(#clip420)" d="M28.8566 1021.55 Q28.8566 1028.55 34.0765 1032.69 Q39.2964 1036.8 48.3039 1036.8 Q57.2795 1036.8 62.4994 1032.69 Q67.7193 1028.55 67.7193 1021.55 Q67.7193 1014.55 62.4994 1010.48 Q57.2795 1006.37 48.3039 1006.37 Q39.2964 1006.37 34.0765 1010.48 Q28.8566 1014.55 28.8566 1021.55 M71.1568 1012.54 L80.4189 1004.08 L80.4189 1011.84 L72.8118 1018.88 Q72.8755 1019.93 72.9073 1020.5 Q72.9392 1021.04 72.9392 1021.55 Q72.9392 1031.58 66.2552 1037.59 Q59.5393 1043.58 48.3039 1043.58 Q37.0366 1043.58 30.3526 1037.59 Q23.6368 1031.58 23.6368 1021.55 Q23.6368 1011.56 30.3526 1005.57 Q37.0366 999.59 48.3039 999.59 Q56.5793 999.59 62.4676 1002.93 Q68.3558 1006.24 71.1568 1012.54 Z" fill="#000000" fill-rule="nonzero" fill-opacity="1" /><polyline clip-path="url(#clip423)" style="stroke:#009af9; stroke-linecap:round; stroke-linejoin:round; stroke-width:4; stroke-opacity:1; fill:none" points="134.272,1064.85 164.453,1064.85 164.453,964.64 194.633,964.64 194.633,1198.42 224.814,1198.42 224.814,993.874 254.994,993.874 254.994,1110.08 285.175,1110.08 285.175,1138.54 315.355,1138.54 315.355,1061.64 345.536,1061.64 345.536,1168.51 375.716,1168.51 375.716,1096.99 405.897,1096.99 405.897,1062.4 436.077,1062.4 436.077,1150.09 466.258,1150.09 466.258,1053.03 496.438,1053.03 496.438,1119.55 526.619,1119.55 526.619,1158.21 556.799,1158.21 556.799,1059.71 586.98,1059.71 586.98,1133.23 617.16,1133.23 617.16,1233.36 647.341,1233.36 647.341,1124.56 677.521,1124.56 677.521,1118.22 707.702,1118.22 707.702,1087.28 737.882,1087.28 737.882,1129.03 768.063,1129.03 768.063,953.669 798.243,953.669 798.243,1140.55 828.424,1140.55 828.424,1100.66 858.604,1100.66 858.604,1064.85 888.785,1064.85 888.785,1258.25 918.965,1258.25 918.965,1244.84 949.146,1244.84 949.146,1071.27 979.326,1071.27 979.326,992.656 1009.51,992.656 1009.51,1099.82 1039.69,1099.82 1039.69,1046.17 1069.87,1046.17 1069.87,1009.67 1100.05,1009.67 1100.05,1290.21 1130.23,1290.21 1130.23,1263.13 1160.41,1263.13 1160.41,1103.67 1190.59,1103.67 1190.59,1064.81 1220.77,1064.81 1220.77,1053.9 1250.95,1053.9 1250.95,1053.35 1281.13,1053.35 1281.13,1094.8 1311.31,1094.8 1311.31,1148.54 1341.49,1148.54 1341.49,1229.64 1371.67,1229.64 1371.67,1071.52 1401.85,1071.52 1401.85,1164.64 1432.03,1164.64 1432.03,1025.97 1462.21,1025.97 1462.21,1049.51 1492.39,1049.51 1492.39,1155.24 1522.58,1155.24 1522.58,1051.86 1552.76,1051.86 1552.76,921.312 "/>
<polyline clip-path="url(#clip423)" style="stroke:#e26f46; stroke-linecap:round; stroke-linejoin:round; stroke-width:4; stroke-opacity:1; fill:none" stroke-dasharray="16, 10" points="134.272,1064.85 164.453,1064.85 164.453,964.64 194.633,964.64 194.633,1198.42 224.814,1198.42 224.814,993.874 254.994,993.874 254.994,1110.08 285.175,1110.08 285.175,1138.54 315.355,1138.54 315.355,1061.64 345.536,1061.64 345.536,1168.51 375.716,1168.51 375.716,1096.99 405.897,1096.99 405.897,1062.4 436.077,1062.4 436.077,1150.09 466.258,1150.09 466.258,1053.03 496.438,1053.03 496.438,1119.55 526.619,1119.55 526.619,1158.21 556.799,1158.21 556.799,1059.71 586.98,1059.71 586.98,1133.23 617.16,1133.23 617.16,1233.36 647.341,1233.36 647.341,1124.56 677.521,1124.56 677.521,1118.22 707.702,1118.22 707.702,1087.28 737.882,1087.28 737.882,1129.03 768.063,1129.03 768.063,953.669 798.243,953.669 798.243,1140.55 828.424,1140.55 828.424,1100.66 858.604,1100.66 858.604,1064.85 888.785,1064.85 888.785,1258.25 918.965,1258.25 918.965,1244.84 949.146,1244.84 949.146,1071.27 979.326,1071.27 979.326,992.656 1009.51,992.656 1009.51,1099.82 1039.69,1099.82 1039.69,1046.17 1069.87,1046.17 1069.87,1009.67 1100.05,1009.67 1100.05,1290.21 1130.23,1290.21 1130.23,1263.13 1160.41,1263.13 1160.41,1103.67 1190.59,1103.67 1190.59,1064.81 1220.77,1064.81 1220.77,1053.9 1250.95,1053.9 1250.95,1053.35 1281.13,1053.35 1281.13,1094.8 1311.31,1094.8 1311.31,1148.54 1341.49,1148.54 1341.49,1229.64 1371.67,1229.64 1371.67,1071.52 1401.85,1071.52 1401.85,1164.64 1432.03,1164.64 1432.03,1025.97 1462.21,1025.97 1462.21,1049.51 1492.39,1049.51 1492.39,1155.24 1522.58,1155.24 1522.58,1051.86 1552.76,1051.86 1552.76,921.312 "/>
</svg>
