<?xml version="1.0" encoding="utf-8"?>
<svg xmlns="http://www.w3.org/2000/svg" xmlns:xlink="http://www.w3.org/1999/xlink" width="400" height="400" viewBox="0 0 1600 1600">
<defs>
  <clipPath id="clip150">
    <rect x="0" y="0" width="1600" height="1600"/>
  </clipPath>
</defs>
<path clip-path="url(#clip150)" d="M0 1600 L1600 1600 L1600 0 L0 0  Z" fill="#ffffff" fill-rule="evenodd" fill-opacity="1"/>
<defs>
  <clipPath id="clip151">
    <rect x="320" y="160" width="1121" height="1121"/>
  </clipPath>
</defs>
<path clip-path="url(#clip150)" d="M227.085 678.888 L1552.76 678.888 L1552.76 153.712 L227.085 153.712  Z" fill="#ffffff" fill-rule="evenodd" fill-opacity="1"/>
<defs>
  <clipPath id="clip152">
    <rect x="227" y="153" width="1327" height="526"/>
  </clipPath>
</defs>
<polyline clip-path="url(#clip152)" style="stroke:#000000; stroke-linecap:round; stroke-linejoin:round; stroke-width:2; stroke-opacity:0.1; fill:none" points="237.994,678.888 237.994,153.712 "/>
<polyline clip-path="url(#clip152)" style="stroke:#000000; stroke-linecap:round; stroke-linejoin:round; stroke-width:2; stroke-opacity:0.1; fill:none" points="504.087,678.888 504.087,153.712 "/>
<polyline clip-path="url(#clip152)" style="stroke:#000000; stroke-linecap:round; stroke-linejoin:round; stroke-width:2; stroke-opacity:0.1; fill:none" points="770.179,678.888 770.179,153.712 "/>
<polyline clip-path="url(#clip152)" style="stroke:#000000; stroke-linecap:round; stroke-linejoin:round; stroke-width:2; stroke-opacity:0.1; fill:none" points="1036.27,678.888 1036.27,153.712 "/>
<polyline clip-path="url(#clip152)" style="stroke:#000000; stroke-linecap:round; stroke-linejoin:round; stroke-width:2; stroke-opacity:0.1; fill:none" points="1302.36,678.888 1302.36,153.712 "/>
<polyline clip-path="url(#clip150)" style="stroke:#000000; stroke-linecap:round; stroke-linejoin:round; stroke-width:4; stroke-opacity:1; fill:none" points="227.085,678.888 1552.76,678.888 "/>
<polyline clip-path="url(#clip150)" style="stroke:#000000; stroke-linecap:round; stroke-linejoin:round; stroke-width:4; stroke-opacity:1; fill:none" points="237.994,678.888 237.994,659.99 "/>
<polyline clip-path="url(#clip150)" style="stroke:#000000; stroke-linecap:round; stroke-linejoin:round; stroke-width:4; stroke-opacity:1; fill:none" points="504.087,678.888 504.087,659.99 "/>
<polyline clip-path="url(#clip150)" style="stroke:#000000; stroke-linecap:round; stroke-linejoin:round; stroke-width:4; stroke-opacity:1; fill:none" points="770.179,678.888 770.179,659.99 "/>
<polyline clip-path="url(#clip150)" style="stroke:#000000; stroke-linecap:round; stroke-linejoin:round; stroke-width:4; stroke-opacity:1; fill:none" points="1036.27,678.888 1036.27,659.99 "/>
<polyline clip-path="url(#clip150)" style="stroke:#000000; stroke-linecap:round; stroke-linejoin:round; stroke-width:4; stroke-opacity:1; fill:none" points="1302.36,678.888 1302.36,659.99 "/>
<path clip-path="url(#clip150)" d="M237.994 703.407 Q234.383 703.407 232.555 706.971 Q230.749 710.513 230.749 717.643 Q230.749 724.749 232.555 728.314 Q234.383 731.855 237.994 731.855 Q241.629 731.855 243.434 728.314 Q245.263 724.749 245.263 717.643 Q245.263 710.513 243.434 706.971 Q241.629 703.407 237.994 703.407 M237.994 699.703 Q243.805 699.703 246.86 704.309 Q249.939 708.893 249.939 717.643 Q249.939 726.369 246.86 730.976 Q243.805 735.559 237.994 735.559 Q232.184 735.559 229.106 730.976 Q226.05 726.369 226.05 717.643 Q226.05 708.893 229.106 704.309 Q232.184 699.703 237.994 699.703 Z" fill="#000000" fill-rule="nonzero" fill-opacity="1" /><path clip-path="url(#clip150)" d="M478.774 730.953 L486.413 730.953 L486.413 704.587 L478.103 706.254 L478.103 701.995 L486.367 700.328 L491.043 700.328 L491.043 730.953 L498.682 730.953 L498.682 734.888 L478.774 734.888 L478.774 730.953 Z" fill="#000000" fill-rule="nonzero" fill-opacity="1" /><path clip-path="url(#clip150)" d="M518.126 703.407 Q514.515 703.407 512.686 706.971 Q510.881 710.513 510.881 717.643 Q510.881 724.749 512.686 728.314 Q514.515 731.855 518.126 731.855 Q521.76 731.855 523.566 728.314 Q525.394 724.749 525.394 717.643 Q525.394 710.513 523.566 706.971 Q521.76 703.407 518.126 703.407 M518.126 699.703 Q523.936 699.703 526.992 704.309 Q530.07 708.893 530.07 717.643 Q530.07 726.369 526.992 730.976 Q523.936 735.559 518.126 735.559 Q512.316 735.559 509.237 730.976 Q506.182 726.369 506.182 717.643 Q506.182 708.893 509.237 704.309 Q512.316 699.703 518.126 699.703 Z" fill="#000000" fill-rule="nonzero" fill-opacity="1" /><path clip-path="url(#clip150)" d="M748.952 730.953 L765.271 730.953 L765.271 734.888 L743.327 734.888 L743.327 730.953 Q745.989 728.198 750.572 723.568 Q755.179 718.916 756.359 717.573 Q758.605 715.05 759.484 713.314 Q760.387 711.555 760.387 709.865 Q760.387 707.11 758.443 705.374 Q756.521 703.638 753.42 703.638 Q751.221 703.638 748.767 704.402 Q746.336 705.166 743.559 706.717 L743.559 701.995 Q746.383 700.86 748.836 700.282 Q751.29 699.703 753.327 699.703 Q758.697 699.703 761.892 702.388 Q765.086 705.073 765.086 709.564 Q765.086 711.694 764.276 713.615 Q763.489 715.513 761.383 718.106 Q760.804 718.777 757.702 721.994 Q754.6 725.189 748.952 730.953 Z" fill="#000000" fill-rule="nonzero" fill-opacity="1" /><path clip-path="url(#clip150)" d="M785.086 703.407 Q781.475 703.407 779.646 706.971 Q777.841 710.513 777.841 717.643 Q777.841 724.749 779.646 728.314 Q781.475 731.855 785.086 731.855 Q788.72 731.855 790.526 728.314 Q792.355 724.749 792.355 717.643 Q792.355 710.513 790.526 706.971 Q788.72 703.407 785.086 703.407 M785.086 699.703 Q790.896 699.703 793.952 704.309 Q797.031 708.893 797.031 717.643 Q797.031 726.369 793.952 730.976 Q790.896 735.559 785.086 735.559 Q779.276 735.559 776.197 730.976 Q773.142 726.369 773.142 717.643 Q773.142 708.893 776.197 704.309 Q779.276 699.703 785.086 699.703 Z" fill="#000000" fill-rule="nonzero" fill-opacity="1" /><path clip-path="url(#clip150)" d="M1025.11 716.254 Q1028.47 716.971 1030.35 719.24 Q1032.24 721.508 1032.24 724.842 Q1032.24 729.957 1028.72 732.758 Q1025.21 735.559 1018.72 735.559 Q1016.55 735.559 1014.23 735.119 Q1011.94 734.703 1009.49 733.846 L1009.49 729.332 Q1011.43 730.467 1013.75 731.045 Q1016.06 731.624 1018.59 731.624 Q1022.98 731.624 1025.28 729.888 Q1027.59 728.152 1027.59 724.842 Q1027.59 721.786 1025.44 720.073 Q1023.31 718.337 1019.49 718.337 L1015.46 718.337 L1015.46 714.494 L1019.67 714.494 Q1023.12 714.494 1024.95 713.129 Q1026.78 711.74 1026.78 709.147 Q1026.78 706.485 1024.88 705.073 Q1023.01 703.638 1019.49 703.638 Q1017.57 703.638 1015.37 704.055 Q1013.17 704.471 1010.53 705.351 L1010.53 701.184 Q1013.19 700.444 1015.51 700.073 Q1017.85 699.703 1019.91 699.703 Q1025.23 699.703 1028.33 702.133 Q1031.43 704.541 1031.43 708.661 Q1031.43 711.532 1029.79 713.522 Q1028.15 715.49 1025.11 716.254 Z" fill="#000000" fill-rule="nonzero" fill-opacity="1" /><path clip-path="url(#clip150)" d="M1051.11 703.407 Q1047.5 703.407 1045.67 706.971 Q1043.86 710.513 1043.86 717.643 Q1043.86 724.749 1045.67 728.314 Q1047.5 731.855 1051.11 731.855 Q1054.74 731.855 1056.55 728.314 Q1058.38 724.749 1058.38 717.643 Q1058.38 710.513 1056.55 706.971 Q1054.74 703.407 1051.11 703.407 M1051.11 699.703 Q1056.92 699.703 1059.97 704.309 Q1063.05 708.893 1063.05 717.643 Q1063.05 726.369 1059.97 730.976 Q1056.92 735.559 1051.11 735.559 Q1045.3 735.559 1042.22 730.976 Q1039.16 726.369 1039.16 717.643 Q1039.16 708.893 1042.22 704.309 Q1045.3 699.703 1051.11 699.703 Z" fill="#000000" fill-rule="nonzero" fill-opacity="1" /><path clip-path="url(#clip150)" d="M1290.53 704.402 L1278.73 722.851 L1290.53 722.851 L1290.53 704.402 M1289.31 700.328 L1295.19 700.328 L1295.19 722.851 L1300.12 722.851 L1300.12 726.74 L1295.19 726.74 L1295.19 734.888 L1290.53 734.888 L1290.53 726.74 L1274.93 726.74 L1274.93 722.226 L1289.31 700.328 Z" fill="#000000" fill-rule="nonzero" fill-opacity="1" /><path clip-path="url(#clip150)" d="M1317.85 703.407 Q1314.24 703.407 1312.41 706.971 Q1310.6 710.513 1310.6 717.643 Q1310.6 724.749 1312.41 728.314 Q1314.24 731.855 1317.85 731.855 Q1321.48 731.855 1323.29 728.314 Q1325.12 724.749 1325.12 717.643 Q1325.12 710.513 1323.29 706.971 Q1321.48 703.407 1317.85 703.407 M1317.85 699.703 Q1323.66 699.703 1326.71 704.309 Q1329.79 708.893 1329.79 717.643 Q1329.79 726.369 1326.71 730.976 Q1323.66 735.559 1317.85 735.559 Q1312.04 735.559 1308.96 730.976 Q1305.9 726.369 1305.9 717.643 Q1305.9 708.893 1308.96 704.309 Q1312.04 699.703 1317.85 699.703 Z" fill="#000000" fill-rule="nonzero" fill-opacity="1" /><polyline clip-path="url(#clip152)" style="stroke:#000000; stroke-linecap:round; stroke-linejoin:round; stroke-width:2; stroke-opacity:0.1; fill:none" points="227.085,664.024 1552.76,664.024 "/>
<polyline clip-path="url(#clip152)" style="stroke:#000000; stroke-linecap:round; stroke-linejoin:round; stroke-width:2; stroke-opacity:0.1; fill:none" points="227.085,581.45 1552.76,581.45 "/>
<polyline clip-path="url(#clip152)" style="stroke:#000000; stroke-linecap:round; stroke-linejoin:round; stroke-width:2; stroke-opacity:0.1; fill:none" points="227.085,498.875 1552.76,498.875 "/>
<polyline clip-path="url(#clip152)" style="stroke:#000000; stroke-linecap:round; stroke-linejoin:round; stroke-width:2; stroke-opacity:0.1; fill:none" points="227.085,416.3 1552.76,416.3 "/>
<polyline clip-path="url(#clip152)" style="stroke:#000000; stroke-linecap:round; stroke-linejoin:round; stroke-width:2; stroke-opacity:0.1; fill:none" points="227.085,333.725 1552.76,333.725 "/>
<polyline clip-path="url(#clip152)" style="stroke:#000000; stroke-linecap:round; stroke-linejoin:round; stroke-width:2; stroke-opacity:0.1; fill:none" points="227.085,251.15 1552.76,251.15 "/>
<polyline clip-path="url(#clip152)" style="stroke:#000000; stroke-linecap:round; stroke-linejoin:round; stroke-width:2; stroke-opacity:0.1; fill:none" points="227.085,168.576 1552.76,168.576 "/>
<polyline clip-path="url(#clip150)" style="stroke:#000000; stroke-linecap:round; stroke-linejoin:round; stroke-width:4; stroke-opacity:1; fill:none" points="227.085,678.888 227.085,153.712 "/>
<polyline clip-path="url(#clip150)" style="stroke:#000000; stroke-linecap:round; stroke-linejoin:round; stroke-width:4; stroke-opacity:1; fill:none" points="227.085,664.024 245.982,664.024 "/>
<polyline clip-path="url(#clip150)" style="stroke:#000000; stroke-linecap:round; stroke-linejoin:round; stroke-width:4; stroke-opacity:1; fill:none" points="227.085,581.45 245.982,581.45 "/>
<polyline clip-path="url(#clip150)" style="stroke:#000000; stroke-linecap:round; stroke-linejoin:round; stroke-width:4; stroke-opacity:1; fill:none" points="227.085,498.875 245.982,498.875 "/>
<polyline clip-path="url(#clip150)" style="stroke:#000000; stroke-linecap:round; stroke-linejoin:round; stroke-width:4; stroke-opacity:1; fill:none" points="227.085,416.3 245.982,416.3 "/>
<polyline clip-path="url(#clip150)" style="stroke:#000000; stroke-linecap:round; stroke-linejoin:round; stroke-width:4; stroke-opacity:1; fill:none" points="227.085,333.725 245.982,333.725 "/>
<polyline clip-path="url(#clip150)" style="stroke:#000000; stroke-linecap:round; stroke-linejoin:round; stroke-width:4; stroke-opacity:1; fill:none" points="227.085,251.15 245.982,251.15 "/>
<polyline clip-path="url(#clip150)" style="stroke:#000000; stroke-linecap:round; stroke-linejoin:round; stroke-width:4; stroke-opacity:1; fill:none" points="227.085,168.576 245.982,168.576 "/>
<path clip-path="url(#clip150)" d="M142.02 664.476 L171.696 664.476 L171.696 668.411 L142.02 668.411 L142.02 664.476 Z" fill="#000000" fill-rule="nonzero" fill-opacity="1" /><path clip-path="url(#clip150)" d="M195.955 662.67 Q199.312 663.388 201.187 665.656 Q203.085 667.925 203.085 671.258 Q203.085 676.374 199.566 679.175 Q196.048 681.976 189.566 681.976 Q187.39 681.976 185.075 681.536 Q182.784 681.119 180.33 680.263 L180.33 675.749 Q182.275 676.883 184.589 677.462 Q186.904 678.041 189.427 678.041 Q193.825 678.041 196.117 676.304 Q198.432 674.568 198.432 671.258 Q198.432 668.203 196.279 666.49 Q194.15 664.754 190.33 664.754 L186.302 664.754 L186.302 660.911 L190.515 660.911 Q193.964 660.911 195.793 659.545 Q197.622 658.156 197.622 655.564 Q197.622 652.902 195.724 651.49 Q193.849 650.055 190.33 650.055 Q188.409 650.055 186.21 650.471 Q184.011 650.888 181.372 651.768 L181.372 647.601 Q184.034 646.86 186.349 646.49 Q188.687 646.119 190.747 646.119 Q196.071 646.119 199.173 648.55 Q202.274 650.957 202.274 655.078 Q202.274 657.948 200.631 659.939 Q198.987 661.906 195.955 662.67 Z" fill="#000000" fill-rule="nonzero" fill-opacity="1" /><path clip-path="url(#clip150)" d="M142.969 581.901 L172.645 581.901 L172.645 585.836 L142.969 585.836 L142.969 581.901 Z" fill="#000000" fill-rule="nonzero" fill-opacity="1" /><path clip-path="url(#clip150)" d="M186.765 594.794 L203.085 594.794 L203.085 598.73 L181.14 598.73 L181.14 594.794 Q183.802 592.04 188.386 587.41 Q192.992 582.757 194.173 581.415 Q196.418 578.892 197.298 577.156 Q198.2 575.396 198.2 573.707 Q198.2 570.952 196.256 569.216 Q194.335 567.48 191.233 567.48 Q189.034 567.48 186.58 568.244 Q184.15 569.008 181.372 570.558 L181.372 565.836 Q184.196 564.702 186.65 564.123 Q189.103 563.545 191.14 563.545 Q196.511 563.545 199.705 566.23 Q202.899 568.915 202.899 573.406 Q202.899 575.535 202.089 577.457 Q201.302 579.355 199.196 581.947 Q198.617 582.619 195.515 585.836 Q192.413 589.031 186.765 594.794 Z" fill="#000000" fill-rule="nonzero" fill-opacity="1" /><path clip-path="url(#clip150)" d="M142.599 499.326 L172.275 499.326 L172.275 503.261 L142.599 503.261 L142.599 499.326 Z" fill="#000000" fill-rule="nonzero" fill-opacity="1" /><path clip-path="url(#clip150)" d="M183.177 512.22 L190.816 512.22 L190.816 485.854 L182.506 487.521 L182.506 483.261 L190.77 481.595 L195.446 481.595 L195.446 512.22 L203.085 512.22 L203.085 516.155 L183.177 516.155 L183.177 512.22 Z" fill="#000000" fill-rule="nonzero" fill-opacity="1" /><path clip-path="url(#clip150)" d="M191.14 402.099 Q187.529 402.099 185.7 405.663 Q183.895 409.205 183.895 416.335 Q183.895 423.441 185.7 427.006 Q187.529 430.548 191.14 430.548 Q194.775 430.548 196.58 427.006 Q198.409 423.441 198.409 416.335 Q198.409 409.205 196.58 405.663 Q194.775 402.099 191.14 402.099 M191.14 398.395 Q196.95 398.395 200.006 403.001 Q203.085 407.585 203.085 416.335 Q203.085 425.062 200.006 429.668 Q196.95 434.251 191.14 434.251 Q185.33 434.251 182.251 429.668 Q179.196 425.062 179.196 416.335 Q179.196 407.585 182.251 403.001 Q185.33 398.395 191.14 398.395 Z" fill="#000000" fill-rule="nonzero" fill-opacity="1" /><path clip-path="url(#clip150)" d="M183.177 347.07 L190.816 347.07 L190.816 320.704 L182.506 322.371 L182.506 318.112 L190.77 316.445 L195.446 316.445 L195.446 347.07 L203.085 347.07 L203.085 351.005 L183.177 351.005 L183.177 347.07 Z" fill="#000000" fill-rule="nonzero" fill-opacity="1" /><path clip-path="url(#clip150)" d="M186.765 264.495 L203.085 264.495 L203.085 268.43 L181.14 268.43 L181.14 264.495 Q183.802 261.741 188.386 257.111 Q192.992 252.458 194.173 251.116 Q196.418 248.593 197.298 246.856 Q198.2 245.097 198.2 243.407 Q198.2 240.653 196.256 238.917 Q194.335 237.181 191.233 237.181 Q189.034 237.181 186.58 237.944 Q184.15 238.708 181.372 240.259 L181.372 235.537 Q184.196 234.403 186.65 233.824 Q189.103 233.245 191.14 233.245 Q196.511 233.245 199.705 235.931 Q202.899 238.616 202.899 243.106 Q202.899 245.236 202.089 247.157 Q201.302 249.055 199.196 251.648 Q198.617 252.319 195.515 255.537 Q192.413 258.731 186.765 264.495 Z" fill="#000000" fill-rule="nonzero" fill-opacity="1" /><path clip-path="url(#clip150)" d="M195.955 167.221 Q199.312 167.939 201.187 170.208 Q203.085 172.476 203.085 175.809 Q203.085 180.925 199.566 183.726 Q196.048 186.527 189.566 186.527 Q187.39 186.527 185.075 186.087 Q182.784 185.67 180.33 184.814 L180.33 180.3 Q182.275 181.434 184.589 182.013 Q186.904 182.592 189.427 182.592 Q193.825 182.592 196.117 180.856 Q198.432 179.12 198.432 175.809 Q198.432 172.754 196.279 171.041 Q194.15 169.305 190.33 169.305 L186.302 169.305 L186.302 165.462 L190.515 165.462 Q193.964 165.462 195.793 164.096 Q197.622 162.708 197.622 160.115 Q197.622 157.453 195.724 156.041 Q193.849 154.606 190.33 154.606 Q188.409 154.606 186.21 155.022 Q184.011 155.439 181.372 156.319 L181.372 152.152 Q184.034 151.411 186.349 151.041 Q188.687 150.671 190.747 150.671 Q196.071 150.671 199.173 153.101 Q202.274 155.509 202.274 159.629 Q202.274 162.499 200.631 164.49 Q198.987 166.458 195.955 167.221 Z" fill="#000000" fill-rule="nonzero" fill-opacity="1" /><path clip-path="url(#clip150)" d="M78.4164 414.603 Q73.7787 413.508 71.1701 415.473 Q70.2039 416.149 69.6564 418.629 Q69.2055 421.173 69.2055 425.231 L90.0427 430.642 Q90.2359 429.772 90.2359 427.936 Q90.2359 425.907 89.4952 423.782 Q88.7223 421.656 87.3374 419.949 Q84.3101 416.084 78.4164 414.603 M77.7079 409.74 Q83.5049 411.286 86.7255 415.279 Q90.4292 419.853 91.4276 424.329 L97.9331 423.266 Q104.31 422.365 107.788 419.692 Q108.69 419.176 108.69 417.727 Q108.69 416.825 107.788 415.666 Q106.79 414.506 105.405 413.701 L106.178 412.767 Q109.173 414.539 110.944 416.729 Q112.78 419.047 112.78 420.819 Q112.78 423.138 111.878 423.846 Q109.398 425.65 106.919 426.1 L92.3293 428.677 L92.0717 431.189 Q92.3937 431.318 93.682 431.865 Q94.9702 432.381 95.4533 432.574 Q95.9364 432.767 97.0314 433.25 Q98.0942 433.733 98.7383 434.055 Q99.3824 434.377 100.252 434.86 Q101.122 435.311 101.894 435.794 Q105.727 438.145 108.046 441.141 Q112.716 446.938 112.716 452.413 Q112.716 455.762 111.202 456.954 Q109.366 458.339 107.788 457.888 Q106.564 457.662 105.727 456.632 Q105.018 455.73 105.018 454.667 Q105.018 453.894 105.663 453.347 Q106.371 452.799 107.369 452.477 Q108.754 452.026 109.044 451.769 Q109.817 451.221 109.817 449.063 Q109.817 446.165 107.305 443.105 Q105.663 441.012 101.959 439.015 Q98.3196 437.179 93.4565 435.923 L69.5276 429.804 Q69.5276 436.728 73.0702 441.205 Q75.0348 443.814 76.9027 444.232 Q77.5146 444.426 79.0927 444.554 Q79.3504 444.587 80.2521 444.554 Q81.1217 444.49 81.3793 444.619 Q82.3777 444.877 83.4405 446.068 Q84.3745 447.389 84.3745 448.194 Q84.3745 448.967 83.5049 449.45 Q82.2811 450.255 80.0589 449.707 Q76.0976 448.806 72.5549 444.426 Q68.1105 438.854 67.2732 429.321 L65.4374 424.716 L65.6951 424.168 L67.0799 424.522 Q67.0799 418.886 67.6596 415.473 Q68.2715 411.994 70.0429 410.609 Q72.7804 408.581 77.7079 409.74 Z" fill="#000000" fill-rule="nonzero" fill-opacity="1" /><path clip-path="url(#clip150)" d="M104.761 379.602 Q105.051 379.344 105.34 379.344 Q105.63 379.344 106.468 379.988 Q107.305 380.6 108.432 381.921 Q109.559 383.241 110.622 384.948 Q111.685 386.655 112.394 389.167 Q113.134 391.679 113.134 394.32 Q113.134 399.054 109.753 401.888 Q106.371 404.69 101.186 404.69 Q97.8687 404.69 94.938 403.595 Q91.9751 402.5 89.8817 400.729 Q87.7883 398.925 86.2746 396.671 Q84.7287 394.384 83.988 392.001 Q83.2473 389.618 83.2473 387.396 Q83.2473 384.143 84.8898 382.243 Q86.5323 380.343 88.8511 380.343 Q89.3986 380.343 90.0749 380.504 Q90.7512 380.632 91.814 381.083 Q92.8768 381.502 93.9396 382.597 Q94.9702 383.692 95.6465 385.302 Q97.1602 388.877 97.1602 395.383 L97.1602 398.893 Q101.315 399.924 104.02 399.924 Q105.083 399.924 106.178 399.73 Q107.241 399.537 108.593 399.022 Q109.946 398.474 110.815 397.251 Q111.653 395.995 111.653 394.191 Q111.653 393.611 111.621 392.999 Q111.588 392.355 111.234 390.745 Q110.88 389.103 110.268 387.653 Q109.656 386.204 108.336 384.368 Q106.983 382.5 105.147 381.019 Q104.471 380.504 104.471 380.149 Q104.471 379.859 104.761 379.602 M88.8511 382.533 Q87.0798 382.533 85.8882 383.853 Q84.6965 385.141 84.6965 387.396 Q84.6965 388.104 84.8576 388.974 Q85.0186 389.843 85.6949 391.293 Q86.3712 392.71 87.4984 393.966 Q88.5934 395.222 90.7512 396.478 Q92.8768 397.734 95.7109 398.474 L95.7109 395.769 Q95.7109 394.835 95.7109 394.159 Q95.6787 393.483 95.5499 392.001 Q95.4211 390.487 95.1956 389.392 Q94.938 388.297 94.4227 386.913 Q93.9074 385.528 93.2311 384.658 Q92.5226 383.756 91.3954 383.144 Q90.2681 382.533 88.8511 382.533 Z" fill="#000000" fill-rule="nonzero" fill-opacity="1" /><path clip-path="url(#clip150)" d="M361.804 18.8205 L361.804 65.8515 L371.688 65.8515 Q384.205 65.8515 389.998 60.1802 Q395.831 54.509 395.831 42.2752 Q395.831 30.1225 389.998 24.4918 Q384.205 18.8205 371.688 18.8205 L361.804 18.8205 M353.621 12.096 L370.432 12.096 Q388.013 12.096 396.237 19.4281 Q404.46 26.7198 404.46 42.2752 Q404.46 57.9117 396.196 65.2439 Q387.932 72.576 370.432 72.576 L353.621 72.576 L353.621 12.096 Z" fill="#000000" fill-rule="nonzero" fill-opacity="1" /><path clip-path="url(#clip150)" d="M455.987 48.0275 L455.987 51.6733 L421.717 51.6733 Q422.203 59.3701 426.335 63.421 Q430.507 67.4314 437.92 67.4314 Q442.214 67.4314 446.225 66.3781 Q450.276 65.3249 454.246 63.2184 L454.246 70.267 Q450.235 71.9684 446.022 72.8596 Q441.809 73.7508 437.475 73.7508 Q426.618 73.7508 420.258 67.4314 Q413.939 61.1119 413.939 50.3365 Q413.939 39.1965 419.934 32.6746 Q425.97 26.1121 436.178 26.1121 Q445.334 26.1121 450.64 32.0264 Q455.987 37.9003 455.987 48.0275 M448.534 45.84 Q448.453 39.7232 445.09 36.0774 Q441.769 32.4315 436.26 32.4315 Q430.021 32.4315 426.254 35.9558 Q422.527 39.4801 421.96 45.8805 L448.534 45.84 Z" fill="#000000" fill-rule="nonzero" fill-opacity="1" /><path clip-path="url(#clip150)" d="M497.145 28.5427 L497.145 35.5912 Q493.985 33.9709 490.582 33.1607 Q487.179 32.3505 483.534 32.3505 Q477.984 32.3505 475.189 34.0519 Q472.434 35.7533 472.434 39.156 Q472.434 41.7486 474.419 43.2475 Q476.404 44.7058 482.399 46.0426 L484.951 46.6097 Q492.891 48.3111 496.213 51.4303 Q499.575 54.509 499.575 60.0587 Q499.575 66.3781 494.552 70.0644 Q489.569 73.7508 480.819 73.7508 Q477.174 73.7508 473.204 73.0216 Q469.274 72.3329 464.899 70.9151 L464.899 63.2184 Q469.031 65.3654 473.042 66.4591 Q477.052 67.5124 480.981 67.5124 Q486.248 67.5124 489.083 65.73 Q491.919 63.9071 491.919 60.6258 Q491.919 57.5877 489.853 55.9673 Q487.828 54.3469 480.9 52.8481 L478.308 52.2405 Q471.381 50.7821 468.302 47.7845 Q465.223 44.7463 465.223 39.4801 Q465.223 33.0797 469.76 29.5959 Q474.298 26.1121 482.642 26.1121 Q486.774 26.1121 490.42 26.7198 Q494.066 27.3274 497.145 28.5427 Z" fill="#000000" fill-rule="nonzero" fill-opacity="1" /><path clip-path="url(#clip150)" d="M544.095 28.9478 L544.095 35.9153 Q540.935 34.1734 537.735 33.3227 Q534.575 32.4315 531.334 32.4315 Q524.083 32.4315 520.073 37.0496 Q516.062 41.6271 516.062 49.9314 Q516.062 58.2358 520.073 62.8538 Q524.083 67.4314 531.334 67.4314 Q534.575 67.4314 537.735 66.5807 Q540.935 65.6895 544.095 63.9476 L544.095 70.8341 Q540.975 72.2924 537.613 73.0216 Q534.291 73.7508 530.524 73.7508 Q520.275 73.7508 514.239 67.3098 Q508.204 60.8689 508.204 49.9314 Q508.204 38.832 514.28 32.472 Q520.397 26.1121 531.01 26.1121 Q534.453 26.1121 537.735 26.8413 Q541.016 27.5299 544.095 28.9478 Z" fill="#000000" fill-rule="nonzero" fill-opacity="1" /><path clip-path="url(#clip150)" d="M583.348 34.1734 Q582.092 33.4443 580.593 33.1202 Q579.135 32.7556 577.353 32.7556 Q571.033 32.7556 567.63 36.8875 Q564.268 40.9789 564.268 48.6757 L564.268 72.576 L556.774 72.576 L556.774 27.2059 L564.268 27.2059 L564.268 34.2544 Q566.618 30.1225 570.385 28.1376 Q574.152 26.1121 579.54 26.1121 Q580.31 26.1121 581.241 26.2337 Q582.173 26.3147 583.307 26.5172 L583.348 34.1734 Z" fill="#000000" fill-rule="nonzero" fill-opacity="1" /><path clip-path="url(#clip150)" d="M591.166 27.2059 L598.62 27.2059 L598.62 72.576 L591.166 72.576 L591.166 27.2059 M591.166 9.54393 L598.62 9.54393 L598.62 18.9825 L591.166 18.9825 L591.166 9.54393 Z" fill="#000000" fill-rule="nonzero" fill-opacity="1" /><path clip-path="url(#clip150)" d="M621.426 65.7705 L621.426 89.8329 L613.932 89.8329 L613.932 27.2059 L621.426 27.2059 L621.426 34.0924 Q623.776 30.0415 627.341 28.0971 Q630.946 26.1121 635.929 26.1121 Q644.192 26.1121 649.337 32.6746 Q654.522 39.2371 654.522 49.9314 Q654.522 60.6258 649.337 67.1883 Q644.192 73.7508 635.929 73.7508 Q630.946 73.7508 627.341 71.8063 Q623.776 69.8214 621.426 65.7705 M646.785 49.9314 Q646.785 41.7081 643.382 37.0496 Q640.02 32.3505 634.106 32.3505 Q628.191 32.3505 624.789 37.0496 Q621.426 41.7081 621.426 49.9314 Q621.426 58.1548 624.789 62.8538 Q628.191 67.5124 634.106 67.5124 Q640.02 67.5124 643.382 62.8538 Q646.785 58.1548 646.785 49.9314 Z" fill="#000000" fill-rule="nonzero" fill-opacity="1" /><path clip-path="url(#clip150)" d="M699.528 28.9478 L699.528 35.9153 Q696.368 34.1734 693.168 33.3227 Q690.008 32.4315 686.767 32.4315 Q679.516 32.4315 675.506 37.0496 Q671.496 41.6271 671.496 49.9314 Q671.496 58.2358 675.506 62.8538 Q679.516 67.4314 686.767 67.4314 Q690.008 67.4314 693.168 66.5807 Q696.368 65.6895 699.528 63.9476 L699.528 70.8341 Q696.409 72.2924 693.046 73.0216 Q689.725 73.7508 685.957 73.7508 Q675.708 73.7508 669.673 67.3098 Q663.637 60.8689 663.637 49.9314 Q663.637 38.832 669.713 32.472 Q675.83 26.1121 686.443 26.1121 Q689.887 26.1121 693.168 26.8413 Q696.449 27.5299 699.528 28.9478 Z" fill="#000000" fill-rule="nonzero" fill-opacity="1" /><path clip-path="url(#clip150)" d="M712.491 27.2059 L719.944 27.2059 L719.944 72.576 L712.491 72.576 L712.491 27.2059 M712.491 9.54393 L719.944 9.54393 L719.944 18.9825 L712.491 18.9825 L712.491 9.54393 Z" fill="#000000" fill-rule="nonzero" fill-opacity="1" /><path clip-path="url(#clip150)" d="M753.121 32.4315 Q747.126 32.4315 743.642 37.1306 Q740.158 41.7891 740.158 49.9314 Q740.158 58.0738 743.602 62.7728 Q747.085 67.4314 753.121 67.4314 Q759.076 67.4314 762.56 62.7323 Q766.044 58.0333 766.044 49.9314 Q766.044 41.8701 762.56 37.1711 Q759.076 32.4315 753.121 32.4315 M753.121 26.1121 Q762.843 26.1121 768.393 32.4315 Q773.943 38.7509 773.943 49.9314 Q773.943 61.0714 768.393 67.4314 Q762.843 73.7508 753.121 73.7508 Q743.359 73.7508 737.809 67.4314 Q732.3 61.0714 732.3 49.9314 Q732.3 38.7509 737.809 32.4315 Q743.359 26.1121 753.121 26.1121 M758.752 6.22219 L766.813 6.22219 L753.607 21.4536 L747.409 21.4536 L758.752 6.22219 Z" fill="#000000" fill-rule="nonzero" fill-opacity="1" /><path clip-path="url(#clip150)" d="M824.012 45.1919 L824.012 72.576 L816.558 72.576 L816.558 45.4349 Q816.558 38.994 814.047 35.7938 Q811.535 32.5936 806.512 32.5936 Q800.476 32.5936 796.993 36.4419 Q793.509 40.2903 793.509 46.9338 L793.509 72.576 L786.015 72.576 L786.015 27.2059 L793.509 27.2059 L793.509 34.2544 Q796.182 30.163 799.788 28.1376 Q803.433 26.1121 808.173 26.1121 Q815.991 26.1121 820.002 30.9732 Q824.012 35.7938 824.012 45.1919 Z" fill="#000000" fill-rule="nonzero" fill-opacity="1" /><path clip-path="url(#clip150)" d="M904.058 48.0275 L904.058 51.6733 L869.787 51.6733 Q870.273 59.3701 874.405 63.421 Q878.578 67.4314 885.991 67.4314 Q890.285 67.4314 894.295 66.3781 Q898.346 65.3249 902.316 63.2184 L902.316 70.267 Q898.306 71.9684 894.093 72.8596 Q889.88 73.7508 885.545 73.7508 Q874.689 73.7508 868.329 67.4314 Q862.01 61.1119 862.01 50.3365 Q862.01 39.1965 868.005 32.6746 Q874.041 26.1121 884.249 26.1121 Q893.404 26.1121 898.711 32.0264 Q904.058 37.9003 904.058 48.0275 M896.604 45.84 Q896.523 39.7232 893.161 36.0774 Q889.839 32.4315 884.33 32.4315 Q878.092 32.4315 874.324 35.9558 Q870.597 39.4801 870.03 45.8805 L896.604 45.84 Z" fill="#000000" fill-rule="nonzero" fill-opacity="1" /><path clip-path="url(#clip150)" d="M954.006 45.1919 L954.006 72.576 L946.552 72.576 L946.552 45.4349 Q946.552 38.994 944.04 35.7938 Q941.529 32.5936 936.506 32.5936 Q930.47 32.5936 926.986 36.4419 Q923.502 40.2903 923.502 46.9338 L923.502 72.576 L916.008 72.576 L916.008 27.2059 L923.502 27.2059 L923.502 34.2544 Q926.176 30.163 929.781 28.1376 Q933.427 26.1121 938.167 26.1121 Q945.985 26.1121 949.995 30.9732 Q954.006 35.7938 954.006 45.1919 Z" fill="#000000" fill-rule="nonzero" fill-opacity="1" /><path clip-path="url(#clip150)" d="M995.568 12.096 L1030.32 12.096 L1030.32 18.9825 L1003.75 18.9825 L1003.75 36.8065 L1027.73 36.8065 L1027.73 43.6931 L1003.75 43.6931 L1003.75 72.576 L995.568 72.576 L995.568 12.096 Z" fill="#000000" fill-rule="nonzero" fill-opacity="1" /><path clip-path="url(#clip150)" d="M1063.22 34.1734 Q1061.96 33.4443 1060.46 33.1202 Q1059.01 32.7556 1057.22 32.7556 Q1050.9 32.7556 1047.5 36.8875 Q1044.14 40.9789 1044.14 48.6757 L1044.14 72.576 L1036.64 72.576 L1036.64 27.2059 L1044.14 27.2059 L1044.14 34.2544 Q1046.49 30.1225 1050.26 28.1376 Q1054.02 26.1121 1059.41 26.1121 Q1060.18 26.1121 1061.11 26.2337 Q1062.04 26.3147 1063.18 26.5172 L1063.22 34.1734 Z" fill="#000000" fill-rule="nonzero" fill-opacity="1" /><path clip-path="url(#clip150)" d="M1108.02 48.0275 L1108.02 51.6733 L1073.75 51.6733 Q1074.24 59.3701 1078.37 63.421 Q1082.54 67.4314 1089.95 67.4314 Q1094.25 67.4314 1098.26 66.3781 Q1102.31 65.3249 1106.28 63.2184 L1106.28 70.267 Q1102.27 71.9684 1098.06 72.8596 Q1093.84 73.7508 1089.51 73.7508 Q1078.65 73.7508 1072.29 67.4314 Q1065.97 61.1119 1065.97 50.3365 Q1065.97 39.1965 1071.97 32.6746 Q1078 26.1121 1088.21 26.1121 Q1097.37 26.1121 1102.67 32.0264 Q1108.02 37.9003 1108.02 48.0275 M1100.57 45.84 Q1100.49 39.7232 1097.12 36.0774 Q1093.8 32.4315 1088.29 32.4315 Q1082.05 32.4315 1078.29 35.9558 Q1074.56 39.4801 1073.99 45.8805 L1100.57 45.84 Z" fill="#000000" fill-rule="nonzero" fill-opacity="1" /><path clip-path="url(#clip150)" d="M1152.9 28.9478 L1152.9 35.9153 Q1149.75 34.1734 1146.55 33.3227 Q1143.39 32.4315 1140.14 32.4315 Q1132.89 32.4315 1128.88 37.0496 Q1124.87 41.6271 1124.87 49.9314 Q1124.87 58.2358 1128.88 62.8538 Q1132.89 67.4314 1140.14 67.4314 Q1143.39 67.4314 1146.55 66.5807 Q1149.75 65.6895 1152.9 63.9476 L1152.9 70.8341 Q1149.79 72.2924 1146.42 73.0216 Q1143.1 73.7508 1139.33 73.7508 Q1129.09 73.7508 1123.05 67.3098 Q1117.01 60.8689 1117.01 49.9314 Q1117.01 38.832 1123.09 32.472 Q1129.21 26.1121 1139.82 26.1121 Q1143.26 26.1121 1146.55 26.8413 Q1149.83 27.5299 1152.9 28.9478 Z" fill="#000000" fill-rule="nonzero" fill-opacity="1" /><path clip-path="url(#clip150)" d="M1165.1 54.671 L1165.1 27.2059 L1172.55 27.2059 L1172.55 54.3874 Q1172.55 60.8284 1175.06 64.0691 Q1177.57 67.2693 1182.6 67.2693 Q1188.63 67.2693 1192.12 63.421 Q1195.64 59.5726 1195.64 52.9291 L1195.64 27.2059 L1203.1 27.2059 L1203.1 72.576 L1195.64 72.576 L1195.64 65.6084 Q1192.93 69.7404 1189.32 71.7658 Q1185.76 73.7508 1181.02 73.7508 Q1173.2 73.7508 1169.15 68.8897 Q1165.1 64.0286 1165.1 54.671 M1183.85 26.1121 L1183.85 26.1121 Z" fill="#000000" fill-rule="nonzero" fill-opacity="1" /><path clip-path="url(#clip150)" d="M1257.26 48.0275 L1257.26 51.6733 L1222.99 51.6733 Q1223.47 59.3701 1227.6 63.421 Q1231.78 67.4314 1239.19 67.4314 Q1243.48 67.4314 1247.49 66.3781 Q1251.54 65.3249 1255.51 63.2184 L1255.51 70.267 Q1251.5 71.9684 1247.29 72.8596 Q1243.08 73.7508 1238.74 73.7508 Q1227.89 73.7508 1221.53 67.4314 Q1215.21 61.1119 1215.21 50.3365 Q1215.21 39.1965 1221.2 32.6746 Q1227.24 26.1121 1237.45 26.1121 Q1246.6 26.1121 1251.91 32.0264 Q1257.26 37.9003 1257.26 48.0275 M1249.8 45.84 Q1249.72 39.7232 1246.36 36.0774 Q1243.04 32.4315 1237.53 32.4315 Q1231.29 32.4315 1227.52 35.9558 Q1223.8 39.4801 1223.23 45.8805 L1249.8 45.84 Z" fill="#000000" fill-rule="nonzero" fill-opacity="1" /><path clip-path="url(#clip150)" d="M1307.2 45.1919 L1307.2 72.576 L1299.75 72.576 L1299.75 45.4349 Q1299.75 38.994 1297.24 35.7938 Q1294.73 32.5936 1289.7 32.5936 Q1283.67 32.5936 1280.18 36.4419 Q1276.7 40.2903 1276.7 46.9338 L1276.7 72.576 L1269.21 72.576 L1269.21 27.2059 L1276.7 27.2059 L1276.7 34.2544 Q1279.37 30.163 1282.98 28.1376 Q1286.63 26.1121 1291.36 26.1121 Q1299.18 26.1121 1303.19 30.9732 Q1307.2 35.7938 1307.2 45.1919 Z" fill="#000000" fill-rule="nonzero" fill-opacity="1" /><path clip-path="url(#clip150)" d="M1354.72 28.9478 L1354.72 35.9153 Q1351.56 34.1734 1348.36 33.3227 Q1345.2 32.4315 1341.96 32.4315 Q1334.71 32.4315 1330.7 37.0496 Q1326.69 41.6271 1326.69 49.9314 Q1326.69 58.2358 1330.7 62.8538 Q1334.71 67.4314 1341.96 67.4314 Q1345.2 67.4314 1348.36 66.5807 Q1351.56 65.6895 1354.72 63.9476 L1354.72 70.8341 Q1351.6 72.2924 1348.24 73.0216 Q1344.92 73.7508 1341.15 73.7508 Q1330.9 73.7508 1324.87 67.3098 Q1318.83 60.8689 1318.83 49.9314 Q1318.83 38.832 1324.91 32.472 Q1331.02 26.1121 1341.64 26.1121 Q1345.08 26.1121 1348.36 26.8413 Q1351.64 27.5299 1354.72 28.9478 Z" fill="#000000" fill-rule="nonzero" fill-opacity="1" /><path clip-path="url(#clip150)" d="M1367.68 27.2059 L1375.14 27.2059 L1375.14 72.576 L1367.68 72.576 L1367.68 27.2059 M1367.68 9.54393 L1375.14 9.54393 L1375.14 18.9825 L1367.68 18.9825 L1367.68 9.54393 Z" fill="#000000" fill-rule="nonzero" fill-opacity="1" /><path clip-path="url(#clip150)" d="M1411.35 49.7694 Q1402.32 49.7694 1398.84 51.8354 Q1395.35 53.9013 1395.35 58.8839 Q1395.35 62.8538 1397.94 65.2034 Q1400.58 67.5124 1405.07 67.5124 Q1411.27 67.5124 1415 63.1374 Q1418.77 58.7219 1418.77 51.4303 L1418.77 49.7694 L1411.35 49.7694 M1426.22 46.6907 L1426.22 72.576 L1418.77 72.576 L1418.77 65.6895 Q1416.21 69.8214 1412.41 71.8063 Q1408.6 73.7508 1403.09 73.7508 Q1396.12 73.7508 1391.99 69.8619 Q1387.9 65.9325 1387.9 59.3701 Q1387.9 51.7138 1393 47.825 Q1398.15 43.9361 1408.31 43.9361 L1418.77 43.9361 L1418.77 43.2069 Q1418.77 38.0623 1415.36 35.2672 Q1412 32.4315 1405.88 32.4315 Q1402 32.4315 1398.31 33.3632 Q1394.62 34.295 1391.22 36.1584 L1391.22 29.2718 Q1395.31 27.692 1399.16 26.9223 Q1403.01 26.1121 1406.65 26.1121 Q1416.5 26.1121 1421.36 31.2163 Q1426.22 36.3204 1426.22 46.6907 Z" fill="#000000" fill-rule="nonzero" fill-opacity="1" /><path clip-path="url(#clip152)" d="M252.604 652.024 L252.604 676.024 L276.604 676.024 L276.604 652.024 L252.604 652.024 Z" fill="#009af9" fill-rule="evenodd" fill-opacity="1" stroke="#000000" stroke-opacity="1" stroke-width="3.2"/>
<path clip-path="url(#clip152)" d="M279.213 486.875 L279.213 510.875 L303.213 510.875 L303.213 486.875 L279.213 486.875 Z" fill="#009af9" fill-rule="evenodd" fill-opacity="1" stroke="#000000" stroke-opacity="1" stroke-width="3.2"/>
<path clip-path="url(#clip152)" d="M305.822 652.024 L305.822 676.024 L329.822 676.024 L329.822 652.024 L305.822 652.024 Z" fill="#009af9" fill-rule="evenodd" fill-opacity="1" stroke="#000000" stroke-opacity="1" stroke-width="3.2"/>
<path clip-path="url(#clip152)" d="M332.431 156.576 L332.431 180.576 L356.431 180.576 L356.431 156.576 L332.431 156.576 Z" fill="#009af9" fill-rule="evenodd" fill-opacity="1" stroke="#000000" stroke-opacity="1" stroke-width="3.2"/>
<path clip-path="url(#clip152)" d="M359.041 321.725 L359.041 345.725 L383.041 345.725 L383.041 321.725 L359.041 321.725 Z" fill="#009af9" fill-rule="evenodd" fill-opacity="1" stroke="#000000" stroke-opacity="1" stroke-width="3.2"/>
<path clip-path="url(#clip152)" d="M385.65 156.576 L385.65 180.576 L409.65 180.576 L409.65 156.576 L385.65 156.576 Z" fill="#009af9" fill-rule="evenodd" fill-opacity="1" stroke="#000000" stroke-opacity="1" stroke-width="3.2"/>
<path clip-path="url(#clip152)" d="M412.259 156.576 L412.259 180.576 L436.259 180.576 L436.259 156.576 L412.259 156.576 Z" fill="#009af9" fill-rule="evenodd" fill-opacity="1" stroke="#000000" stroke-opacity="1" stroke-width="3.2"/>
<path clip-path="url(#clip152)" d="M438.868 652.024 L438.868 676.024 L462.868 676.024 L462.868 652.024 L438.868 652.024 Z" fill="#009af9" fill-rule="evenodd" fill-opacity="1" stroke="#000000" stroke-opacity="1" stroke-width="3.2"/>
<path clip-path="url(#clip152)" d="M465.477 652.024 L465.477 676.024 L489.477 676.024 L489.477 652.024 L465.477 652.024 Z" fill="#009af9" fill-rule="evenodd" fill-opacity="1" stroke="#000000" stroke-opacity="1" stroke-width="3.2"/>
<path clip-path="url(#clip152)" d="M492.087 321.725 L492.087 345.725 L516.087 345.725 L516.087 321.725 L492.087 321.725 Z" fill="#009af9" fill-rule="evenodd" fill-opacity="1" stroke="#000000" stroke-opacity="1" stroke-width="3.2"/>
<path clip-path="url(#clip152)" d="M518.696 156.576 L518.696 180.576 L542.696 180.576 L542.696 156.576 L518.696 156.576 Z" fill="#009af9" fill-rule="evenodd" fill-opacity="1" stroke="#000000" stroke-opacity="1" stroke-width="3.2"/>
<path clip-path="url(#clip152)" d="M545.305 321.725 L545.305 345.725 L569.305 345.725 L569.305 321.725 L545.305 321.725 Z" fill="#009af9" fill-rule="evenodd" fill-opacity="1" stroke="#000000" stroke-opacity="1" stroke-width="3.2"/>
<path clip-path="url(#clip152)" d="M571.914 652.024 L571.914 676.024 L595.914 676.024 L595.914 652.024 L571.914 652.024 Z" fill="#009af9" fill-rule="evenodd" fill-opacity="1" stroke="#000000" stroke-opacity="1" stroke-width="3.2"/>
<path clip-path="url(#clip152)" d="M598.523 486.875 L598.523 510.875 L622.523 510.875 L622.523 486.875 L598.523 486.875 Z" fill="#009af9" fill-rule="evenodd" fill-opacity="1" stroke="#000000" stroke-opacity="1" stroke-width="3.2"/>
<path clip-path="url(#clip152)" d="M625.133 652.024 L625.133 676.024 L649.133 676.024 L649.133 652.024 L625.133 652.024 Z" fill="#009af9" fill-rule="evenodd" fill-opacity="1" stroke="#000000" stroke-opacity="1" stroke-width="3.2"/>
<path clip-path="url(#clip152)" d="M651.742 486.875 L651.742 510.875 L675.742 510.875 L675.742 486.875 L651.742 486.875 Z" fill="#009af9" fill-rule="evenodd" fill-opacity="1" stroke="#000000" stroke-opacity="1" stroke-width="3.2"/>
<path clip-path="url(#clip152)" d="M678.351 156.576 L678.351 180.576 L702.351 180.576 L702.351 156.576 L678.351 156.576 Z" fill="#009af9" fill-rule="evenodd" fill-opacity="1" stroke="#000000" stroke-opacity="1" stroke-width="3.2"/>
<path clip-path="url(#clip152)" d="M704.96 321.725 L704.96 345.725 L728.96 345.725 L728.96 321.725 L704.96 321.725 Z" fill="#009af9" fill-rule="evenodd" fill-opacity="1" stroke="#000000" stroke-opacity="1" stroke-width="3.2"/>
<path clip-path="url(#clip152)" d="M731.57 486.875 L731.57 510.875 L755.57 510.875 L755.57 486.875 L731.57 486.875 Z" fill="#009af9" fill-rule="evenodd" fill-opacity="1" stroke="#000000" stroke-opacity="1" stroke-width="3.2"/>
<path clip-path="url(#clip152)" d="M758.179 486.875 L758.179 510.875 L782.179 510.875 L782.179 486.875 L758.179 486.875 Z" fill="#009af9" fill-rule="evenodd" fill-opacity="1" stroke="#000000" stroke-opacity="1" stroke-width="3.2"/>
<path clip-path="url(#clip152)" d="M784.788 486.875 L784.788 510.875 L808.788 510.875 L808.788 486.875 L784.788 486.875 Z" fill="#009af9" fill-rule="evenodd" fill-opacity="1" stroke="#000000" stroke-opacity="1" stroke-width="3.2"/>
<path clip-path="url(#clip152)" d="M811.397 652.024 L811.397 676.024 L835.397 676.024 L835.397 652.024 L811.397 652.024 Z" fill="#009af9" fill-rule="evenodd" fill-opacity="1" stroke="#000000" stroke-opacity="1" stroke-width="3.2"/>
<path clip-path="url(#clip152)" d="M838.006 156.576 L838.006 180.576 L862.006 180.576 L862.006 156.576 L838.006 156.576 Z" fill="#009af9" fill-rule="evenodd" fill-opacity="1" stroke="#000000" stroke-opacity="1" stroke-width="3.2"/>
<path clip-path="url(#clip152)" d="M864.616 652.024 L864.616 676.024 L888.616 676.024 L888.616 652.024 L864.616 652.024 Z" fill="#009af9" fill-rule="evenodd" fill-opacity="1" stroke="#000000" stroke-opacity="1" stroke-width="3.2"/>
<path clip-path="url(#clip152)" d="M891.225 486.875 L891.225 510.875 L915.225 510.875 L915.225 486.875 L891.225 486.875 Z" fill="#009af9" fill-rule="evenodd" fill-opacity="1" stroke="#000000" stroke-opacity="1" stroke-width="3.2"/>
<path clip-path="url(#clip152)" d="M917.834 321.725 L917.834 345.725 L941.834 345.725 L941.834 321.725 L917.834 321.725 Z" fill="#009af9" fill-rule="evenodd" fill-opacity="1" stroke="#000000" stroke-opacity="1" stroke-width="3.2"/>
<path clip-path="url(#clip152)" d="M944.443 486.875 L944.443 510.875 L968.443 510.875 L968.443 486.875 L944.443 486.875 Z" fill="#009af9" fill-rule="evenodd" fill-opacity="1" stroke="#000000" stroke-opacity="1" stroke-width="3.2"/>
<path clip-path="url(#clip152)" d="M971.053 156.576 L971.053 180.576 L995.053 180.576 L995.053 156.576 L971.053 156.576 Z" fill="#009af9" fill-rule="evenodd" fill-opacity="1" stroke="#000000" stroke-opacity="1" stroke-width="3.2"/>
<path clip-path="url(#clip152)" d="M997.662 156.576 L997.662 180.576 L1021.66 180.576 L1021.66 156.576 L997.662 156.576 Z" fill="#009af9" fill-rule="evenodd" fill-opacity="1" stroke="#000000" stroke-opacity="1" stroke-width="3.2"/>
<path clip-path="url(#clip152)" d="M1024.27 321.725 L1024.27 345.725 L1048.27 345.725 L1048.27 321.725 L1024.27 321.725 Z" fill="#009af9" fill-rule="evenodd" fill-opacity="1" stroke="#000000" stroke-opacity="1" stroke-width="3.2"/>
<path clip-path="url(#clip152)" d="M1050.88 486.875 L1050.88 510.875 L1074.88 510.875 L1074.88 486.875 L1050.88 486.875 Z" fill="#009af9" fill-rule="evenodd" fill-opacity="1" stroke="#000000" stroke-opacity="1" stroke-width="3.2"/>
<path clip-path="url(#clip152)" d="M1077.49 652.024 L1077.49 676.024 L1101.49 676.024 L1101.49 652.024 L1077.49 652.024 Z" fill="#009af9" fill-rule="evenodd" fill-opacity="1" stroke="#000000" stroke-opacity="1" stroke-width="3.2"/>
<path clip-path="url(#clip152)" d="M1104.1 486.875 L1104.1 510.875 L1128.1 510.875 L1128.1 486.875 L1104.1 486.875 Z" fill="#009af9" fill-rule="evenodd" fill-opacity="1" stroke="#000000" stroke-opacity="1" stroke-width="3.2"/>
<path clip-path="url(#clip152)" d="M1130.71 486.875 L1130.71 510.875 L1154.71 510.875 L1154.71 486.875 L1130.71 486.875 Z" fill="#009af9" fill-rule="evenodd" fill-opacity="1" stroke="#000000" stroke-opacity="1" stroke-width="3.2"/>
<path clip-path="url(#clip152)" d="M1157.32 652.024 L1157.32 676.024 L1181.32 676.024 L1181.32 652.024 L1157.32 652.024 Z" fill="#009af9" fill-rule="evenodd" fill-opacity="1" stroke="#000000" stroke-opacity="1" stroke-width="3.2"/>
<path clip-path="url(#clip152)" d="M1183.93 652.024 L1183.93 676.024 L1207.93 676.024 L1207.93 652.024 L1183.93 652.024 Z" fill="#009af9" fill-rule="evenodd" fill-opacity="1" stroke="#000000" stroke-opacity="1" stroke-width="3.2"/>
<path clip-path="url(#clip152)" d="M1210.54 321.725 L1210.54 345.725 L1234.54 345.725 L1234.54 321.725 L1210.54 321.725 Z" fill="#009af9" fill-rule="evenodd" fill-opacity="1" stroke="#000000" stroke-opacity="1" stroke-width="3.2"/>
<path clip-path="url(#clip152)" d="M1237.14 652.024 L1237.14 676.024 L1261.14 676.024 L1261.14 652.024 L1237.14 652.024 Z" fill="#009af9" fill-rule="evenodd" fill-opacity="1" stroke="#000000" stroke-opacity="1" stroke-width="3.2"/>
<path clip-path="url(#clip152)" d="M1263.75 652.024 L1263.75 676.024 L1287.75 676.024 L1287.75 652.024 L1263.75 652.024 Z" fill="#009af9" fill-rule="evenodd" fill-opacity="1" stroke="#000000" stroke-opacity="1" stroke-width="3.2"/>
<path clip-path="url(#clip152)" d="M1290.36 652.024 L1290.36 676.024 L1314.36 676.024 L1314.36 652.024 L1290.36 652.024 Z" fill="#009af9" fill-rule="evenodd" fill-opacity="1" stroke="#000000" stroke-opacity="1" stroke-width="3.2"/>
<path clip-path="url(#clip152)" d="M1316.97 652.024 L1316.97 676.024 L1340.97 676.024 L1340.97 652.024 L1316.97 652.024 Z" fill="#009af9" fill-rule="evenodd" fill-opacity="1" stroke="#000000" stroke-opacity="1" stroke-width="3.2"/>
<path clip-path="url(#clip152)" d="M1343.58 486.875 L1343.58 510.875 L1367.58 510.875 L1367.58 486.875 L1343.58 486.875 Z" fill="#009af9" fill-rule="evenodd" fill-opacity="1" stroke="#000000" stroke-opacity="1" stroke-width="3.2"/>
<path clip-path="url(#clip152)" d="M1370.19 652.024 L1370.19 676.024 L1394.19 676.024 L1394.19 652.024 L1370.19 652.024 Z" fill="#009af9" fill-rule="evenodd" fill-opacity="1" stroke="#000000" stroke-opacity="1" stroke-width="3.2"/>
<path clip-path="url(#clip152)" d="M1396.8 486.875 L1396.8 510.875 L1420.8 510.875 L1420.8 486.875 L1396.8 486.875 Z" fill="#009af9" fill-rule="evenodd" fill-opacity="1" stroke="#000000" stroke-opacity="1" stroke-width="3.2"/>
<path clip-path="url(#clip152)" d="M1423.41 321.725 L1423.41 345.725 L1447.41 345.725 L1447.41 321.725 L1423.41 321.725 Z" fill="#009af9" fill-rule="evenodd" fill-opacity="1" stroke="#000000" stroke-opacity="1" stroke-width="3.2"/>
<path clip-path="url(#clip152)" d="M1450.02 321.725 L1450.02 345.725 L1474.02 345.725 L1474.02 321.725 L1450.02 321.725 Z" fill="#009af9" fill-rule="evenodd" fill-opacity="1" stroke="#000000" stroke-opacity="1" stroke-width="3.2"/>
<path clip-path="url(#clip152)" d="M1476.63 486.875 L1476.63 510.875 L1500.63 510.875 L1500.63 486.875 L1476.63 486.875 Z" fill="#009af9" fill-rule="evenodd" fill-opacity="1" stroke="#000000" stroke-opacity="1" stroke-width="3.2"/>
<path clip-path="url(#clip152)" d="M1503.24 652.024 L1503.24 676.024 L1527.24 676.024 L1527.24 652.024 L1503.24 652.024 Z" fill="#009af9" fill-rule="evenodd" fill-opacity="1" stroke="#000000" stroke-opacity="1" stroke-width="3.2"/>
<polyline clip-path="url(#clip152)" style="stroke:#009af9; stroke-linecap:round; stroke-linejoin:round; stroke-width:4; stroke-opacity:1; fill:none" points="264.604,416.3 264.604,664.024 "/>
<polyline clip-path="url(#clip152)" style="stroke:#009af9; stroke-linecap:round; stroke-linejoin:round; stroke-width:4; stroke-opacity:1; fill:none" points="291.213,416.3 291.213,498.875 "/>
<polyline clip-path="url(#clip152)" style="stroke:#009af9; stroke-linecap:round; stroke-linejoin:round; stroke-width:4; stroke-opacity:1; fill:none" points="317.822,416.3 317.822,664.024 "/>
<polyline clip-path="url(#clip152)" style="stroke:#009af9; stroke-linecap:round; stroke-linejoin:round; stroke-width:4; stroke-opacity:1; fill:none" points="344.431,416.3 344.431,168.576 "/>
<polyline clip-path="url(#clip152)" style="stroke:#009af9; stroke-linecap:round; stroke-linejoin:round; stroke-width:4; stroke-opacity:1; fill:none" points="371.041,416.3 371.041,333.725 "/>
<polyline clip-path="url(#clip152)" style="stroke:#009af9; stroke-linecap:round; stroke-linejoin:round; stroke-width:4; stroke-opacity:1; fill:none" points="397.65,416.3 397.65,168.576 "/>
<polyline clip-path="url(#clip152)" style="stroke:#009af9; stroke-linecap:round; stroke-linejoin:round; stroke-width:4; stroke-opacity:1; fill:none" points="424.259,416.3 424.259,168.576 "/>
<polyline clip-path="url(#clip152)" style="stroke:#009af9; stroke-linecap:round; stroke-linejoin:round; stroke-width:4; stroke-opacity:1; fill:none" points="450.868,416.3 450.868,664.024 "/>
<polyline clip-path="url(#clip152)" style="stroke:#009af9; stroke-linecap:round; stroke-linejoin:round; stroke-width:4; stroke-opacity:1; fill:none" points="477.477,416.3 477.477,664.024 "/>
<polyline clip-path="url(#clip152)" style="stroke:#009af9; stroke-linecap:round; stroke-linejoin:round; stroke-width:4; stroke-opacity:1; fill:none" points="504.087,416.3 504.087,333.725 "/>
<polyline clip-path="url(#clip152)" style="stroke:#009af9; stroke-linecap:round; stroke-linejoin:round; stroke-width:4; stroke-opacity:1; fill:none" points="530.696,416.3 530.696,168.576 "/>
<polyline clip-path="url(#clip152)" style="stroke:#009af9; stroke-linecap:round; stroke-linejoin:round; stroke-width:4; stroke-opacity:1; fill:none" points="557.305,416.3 557.305,333.725 "/>
<polyline clip-path="url(#clip152)" style="stroke:#009af9; stroke-linecap:round; stroke-linejoin:round; stroke-width:4; stroke-opacity:1; fill:none" points="583.914,416.3 583.914,664.024 "/>
<polyline clip-path="url(#clip152)" style="stroke:#009af9; stroke-linecap:round; stroke-linejoin:round; stroke-width:4; stroke-opacity:1; fill:none" points="610.523,416.3 610.523,498.875 "/>
<polyline clip-path="url(#clip152)" style="stroke:#009af9; stroke-linecap:round; stroke-linejoin:round; stroke-width:4; stroke-opacity:1; fill:none" points="637.133,416.3 637.133,664.024 "/>
<polyline clip-path="url(#clip152)" style="stroke:#009af9; stroke-linecap:round; stroke-linejoin:round; stroke-width:4; stroke-opacity:1; fill:none" points="663.742,416.3 663.742,498.875 "/>
<polyline clip-path="url(#clip152)" style="stroke:#009af9; stroke-linecap:round; stroke-linejoin:round; stroke-width:4; stroke-opacity:1; fill:none" points="690.351,416.3 690.351,168.576 "/>
<polyline clip-path="url(#clip152)" style="stroke:#009af9; stroke-linecap:round; stroke-linejoin:round; stroke-width:4; stroke-opacity:1; fill:none" points="716.96,416.3 716.96,333.725 "/>
<polyline clip-path="url(#clip152)" style="stroke:#009af9; stroke-linecap:round; stroke-linejoin:round; stroke-width:4; stroke-opacity:1; fill:none" points="743.57,416.3 743.57,498.875 "/>
<polyline clip-path="url(#clip152)" style="stroke:#009af9; stroke-linecap:round; stroke-linejoin:round; stroke-width:4; stroke-opacity:1; fill:none" points="770.179,416.3 770.179,498.875 "/>
<polyline clip-path="url(#clip152)" style="stroke:#009af9; stroke-linecap:round; stroke-linejoin:round; stroke-width:4; stroke-opacity:1; fill:none" points="796.788,416.3 796.788,498.875 "/>
<polyline clip-path="url(#clip152)" style="stroke:#009af9; stroke-linecap:round; stroke-linejoin:round; stroke-width:4; stroke-opacity:1; fill:none" points="823.397,416.3 823.397,664.024 "/>
<polyline clip-path="url(#clip152)" style="stroke:#009af9; stroke-linecap:round; stroke-linejoin:round; stroke-width:4; stroke-opacity:1; fill:none" points="850.006,416.3 850.006,168.576 "/>
<polyline clip-path="url(#clip152)" style="stroke:#009af9; stroke-linecap:round; stroke-linejoin:round; stroke-width:4; stroke-opacity:1; fill:none" points="876.616,416.3 876.616,664.024 "/>
<polyline clip-path="url(#clip152)" style="stroke:#009af9; stroke-linecap:round; stroke-linejoin:round; stroke-width:4; stroke-opacity:1; fill:none" points="903.225,416.3 903.225,498.875 "/>
<polyline clip-path="url(#clip152)" style="stroke:#009af9; stroke-linecap:round; stroke-linejoin:round; stroke-width:4; stroke-opacity:1; fill:none" points="929.834,416.3 929.834,333.725 "/>
<polyline clip-path="url(#clip152)" style="stroke:#009af9; stroke-linecap:round; stroke-linejoin:round; stroke-width:4; stroke-opacity:1; fill:none" points="956.443,416.3 956.443,498.875 "/>
<polyline clip-path="url(#clip152)" style="stroke:#009af9; stroke-linecap:round; stroke-linejoin:round; stroke-width:4; stroke-opacity:1; fill:none" points="983.053,416.3 983.053,168.576 "/>
<polyline clip-path="url(#clip152)" style="stroke:#009af9; stroke-linecap:round; stroke-linejoin:round; stroke-width:4; stroke-opacity:1; fill:none" points="1009.66,416.3 1009.66,168.576 "/>
<polyline clip-path="url(#clip152)" style="stroke:#009af9; stroke-linecap:round; stroke-linejoin:round; stroke-width:4; stroke-opacity:1; fill:none" points="1036.27,416.3 1036.27,333.725 "/>
<polyline clip-path="url(#clip152)" style="stroke:#009af9; stroke-linecap:round; stroke-linejoin:round; stroke-width:4; stroke-opacity:1; fill:none" points="1062.88,416.3 1062.88,498.875 "/>
<polyline clip-path="url(#clip152)" style="stroke:#009af9; stroke-linecap:round; stroke-linejoin:round; stroke-width:4; stroke-opacity:1; fill:none" points="1089.49,416.3 1089.49,664.024 "/>
<polyline clip-path="url(#clip152)" style="stroke:#009af9; stroke-linecap:round; stroke-linejoin:round; stroke-width:4; stroke-opacity:1; fill:none" points="1116.1,416.3 1116.1,498.875 "/>
<polyline clip-path="url(#clip152)" style="stroke:#009af9; stroke-linecap:round; stroke-linejoin:round; stroke-width:4; stroke-opacity:1; fill:none" points="1142.71,416.3 1142.71,498.875 "/>
<polyline clip-path="url(#clip152)" style="stroke:#009af9; stroke-linecap:round; stroke-linejoin:round; stroke-width:4; stroke-opacity:1; fill:none" points="1169.32,416.3 1169.32,664.024 "/>
<polyline clip-path="url(#clip152)" style="stroke:#009af9; stroke-linecap:round; stroke-linejoin:round; stroke-width:4; stroke-opacity:1; fill:none" points="1195.93,416.3 1195.93,664.024 "/>
<polyline clip-path="url(#clip152)" style="stroke:#009af9; stroke-linecap:round; stroke-linejoin:round; stroke-width:4; stroke-opacity:1; fill:none" points="1222.54,416.3 1222.54,333.725 "/>
<polyline clip-path="url(#clip152)" style="stroke:#009af9; stroke-linecap:round; stroke-linejoin:round; stroke-width:4; stroke-opacity:1; fill:none" points="1249.14,416.3 1249.14,664.024 "/>
<polyline clip-path="url(#clip152)" style="stroke:#009af9; stroke-linecap:round; stroke-linejoin:round; stroke-width:4; stroke-opacity:1; fill:none" points="1275.75,416.3 1275.75,664.024 "/>
<polyline clip-path="url(#clip152)" style="stroke:#009af9; stroke-linecap:round; stroke-linejoin:round; stroke-width:4; stroke-opacity:1; fill:none" points="1302.36,416.3 1302.36,664.024 "/>
<polyline clip-path="url(#clip152)" style="stroke:#009af9; stroke-linecap:round; stroke-linejoin:round; stroke-width:4; stroke-opacity:1; fill:none" points="1328.97,416.3 1328.97,664.024 "/>
<polyline clip-path="url(#clip152)" style="stroke:#009af9; stroke-linecap:round; stroke-linejoin:round; stroke-width:4; stroke-opacity:1; fill:none" points="1355.58,416.3 1355.58,498.875 "/>
<polyline clip-path="url(#clip152)" style="stroke:#009af9; stroke-linecap:round; stroke-linejoin:round; stroke-width:4; stroke-opacity:1; fill:none" points="1382.19,416.3 1382.19,664.024 "/>
<polyline clip-path="url(#clip152)" style="stroke:#009af9; stroke-linecap:round; stroke-linejoin:round; stroke-width:4; stroke-opacity:1; fill:none" points="1408.8,416.3 1408.8,498.875 "/>
<polyline clip-path="url(#clip152)" style="stroke:#009af9; stroke-linecap:round; stroke-linejoin:round; stroke-width:4; stroke-opacity:1; fill:none" points="1435.41,416.3 1435.41,333.725 "/>
<polyline clip-path="url(#clip152)" style="stroke:#009af9; stroke-linecap:round; stroke-linejoin:round; stroke-width:4; stroke-opacity:1; fill:none" points="1462.02,416.3 1462.02,333.725 "/>
<polyline clip-path="url(#clip152)" style="stroke:#009af9; stroke-linecap:round; stroke-linejoin:round; stroke-width:4; stroke-opacity:1; fill:none" points="1488.63,416.3 1488.63,498.875 "/>
<polyline clip-path="url(#clip152)" style="stroke:#009af9; stroke-linecap:round; stroke-linejoin:round; stroke-width:4; stroke-opacity:1; fill:none" points="1515.24,416.3 1515.24,664.024 "/>
<path clip-path="url(#clip150)" d="M227.085 1382.14 L1552.76 1382.14 L1552.76 856.964 L227.085 856.964  Z" fill="#ffffff" fill-rule="evenodd" fill-opacity="1"/>
<defs>
  <clipPath id="clip153">
    <rect x="227" y="856" width="1327" height="526"/>
  </clipPath>
</defs>
<polyline clip-path="url(#clip153)" style="stroke:#000000; stroke-linecap:round; stroke-linejoin:round; stroke-width:2; stroke-opacity:0.1; fill:none" points="237.994,1382.14 237.994,856.964 "/>
<polyline clip-path="url(#clip153)" style="stroke:#000000; stroke-linecap:round; stroke-linejoin:round; stroke-width:2; stroke-opacity:0.1; fill:none" points="504.087,1382.14 504.087,856.964 "/>
<polyline clip-path="url(#clip153)" style="stroke:#000000; stroke-linecap:round; stroke-linejoin:round; stroke-width:2; stroke-opacity:0.1; fill:none" points="770.179,1382.14 770.179,856.964 "/>
<polyline clip-path="url(#clip153)" style="stroke:#000000; stroke-linecap:round; stroke-linejoin:round; stroke-width:2; stroke-opacity:0.1; fill:none" points="1036.27,1382.14 1036.27,856.964 "/>
<polyline clip-path="url(#clip153)" style="stroke:#000000; stroke-linecap:round; stroke-linejoin:round; stroke-width:2; stroke-opacity:0.1; fill:none" points="1302.36,1382.14 1302.36,856.964 "/>
<polyline clip-path="url(#clip150)" style="stroke:#000000; stroke-linecap:round; stroke-linejoin:round; stroke-width:4; stroke-opacity:1; fill:none" points="227.085,1382.14 1552.76,1382.14 "/>
<polyline clip-path="url(#clip150)" style="stroke:#000000; stroke-linecap:round; stroke-linejoin:round; stroke-width:4; stroke-opacity:1; fill:none" points="237.994,1382.14 237.994,1363.24 "/>
<polyline clip-path="url(#clip150)" style="stroke:#000000; stroke-linecap:round; stroke-linejoin:round; stroke-width:4; stroke-opacity:1; fill:none" points="504.087,1382.14 504.087,1363.24 "/>
<polyline clip-path="url(#clip150)" style="stroke:#000000; stroke-linecap:round; stroke-linejoin:round; stroke-width:4; stroke-opacity:1; fill:none" points="770.179,1382.14 770.179,1363.24 "/>
<polyline clip-path="url(#clip150)" style="stroke:#000000; stroke-linecap:round; stroke-linejoin:round; stroke-width:4; stroke-opacity:1; fill:none" points="1036.27,1382.14 1036.27,1363.24 "/>
<polyline clip-path="url(#clip150)" style="stroke:#000000; stroke-linecap:round; stroke-linejoin:round; stroke-width:4; stroke-opacity:1; fill:none" points="1302.36,1382.14 1302.36,1363.24 "/>
<path clip-path="url(#clip150)" d="M237.994 1406.66 Q234.383 1406.66 232.555 1410.22 Q230.749 1413.76 230.749 1420.89 Q230.749 1428 232.555 1431.57 Q234.383 1435.11 237.994 1435.11 Q241.629 1435.11 243.434 1431.57 Q245.263 1428 245.263 1420.89 Q245.263 1413.76 243.434 1410.22 Q241.629 1406.66 237.994 1406.66 M237.994 1402.95 Q243.805 1402.95 246.86 1407.56 Q249.939 1412.14 249.939 1420.89 Q249.939 1429.62 246.86 1434.23 Q243.805 1438.81 237.994 1438.81 Q232.184 1438.81 229.106 1434.23 Q226.05 1429.62 226.05 1420.89 Q226.05 1412.14 229.106 1407.56 Q232.184 1402.95 237.994 1402.95 Z" fill="#000000" fill-rule="nonzero" fill-opacity="1" /><path clip-path="url(#clip150)" d="M478.774 1434.2 L486.413 1434.2 L486.413 1407.84 L478.103 1409.51 L478.103 1405.25 L486.367 1403.58 L491.043 1403.58 L491.043 1434.2 L498.682 1434.2 L498.682 1438.14 L478.774 1438.14 L478.774 1434.2 Z" fill="#000000" fill-rule="nonzero" fill-opacity="1" /><path clip-path="url(#clip150)" d="M518.126 1406.66 Q514.515 1406.66 512.686 1410.22 Q510.881 1413.76 510.881 1420.89 Q510.881 1428 512.686 1431.57 Q514.515 1435.11 518.126 1435.11 Q521.76 1435.11 523.566 1431.57 Q525.394 1428 525.394 1420.89 Q525.394 1413.76 523.566 1410.22 Q521.76 1406.66 518.126 1406.66 M518.126 1402.95 Q523.936 1402.95 526.992 1407.56 Q530.07 1412.14 530.07 1420.89 Q530.07 1429.62 526.992 1434.23 Q523.936 1438.81 518.126 1438.81 Q512.316 1438.81 509.237 1434.23 Q506.182 1429.62 506.182 1420.89 Q506.182 1412.14 509.237 1407.56 Q512.316 1402.95 518.126 1402.95 Z" fill="#000000" fill-rule="nonzero" fill-opacity="1" /><path clip-path="url(#clip150)" d="M748.952 1434.2 L765.271 1434.2 L765.271 1438.14 L743.327 1438.14 L743.327 1434.2 Q745.989 1431.45 750.572 1426.82 Q755.179 1422.17 756.359 1420.83 Q758.605 1418.3 759.484 1416.57 Q760.387 1414.81 760.387 1413.12 Q760.387 1410.36 758.443 1408.63 Q756.521 1406.89 753.42 1406.89 Q751.221 1406.89 748.767 1407.65 Q746.336 1408.42 743.559 1409.97 L743.559 1405.25 Q746.383 1404.11 748.836 1403.53 Q751.29 1402.95 753.327 1402.95 Q758.697 1402.95 761.892 1405.64 Q765.086 1408.33 765.086 1412.82 Q765.086 1414.95 764.276 1416.87 Q763.489 1418.76 761.383 1421.36 Q760.804 1422.03 757.702 1425.25 Q754.6 1428.44 748.952 1434.2 Z" fill="#000000" fill-rule="nonzero" fill-opacity="1" /><path clip-path="url(#clip150)" d="M785.086 1406.66 Q781.475 1406.66 779.646 1410.22 Q777.841 1413.76 777.841 1420.89 Q777.841 1428 779.646 1431.57 Q781.475 1435.11 785.086 1435.11 Q788.72 1435.11 790.526 1431.57 Q792.355 1428 792.355 1420.89 Q792.355 1413.76 790.526 1410.22 Q788.72 1406.66 785.086 1406.66 M785.086 1402.95 Q790.896 1402.95 793.952 1407.56 Q797.031 1412.14 797.031 1420.89 Q797.031 1429.62 793.952 1434.23 Q790.896 1438.81 785.086 1438.81 Q779.276 1438.81 776.197 1434.23 Q773.142 1429.62 773.142 1420.89 Q773.142 1412.14 776.197 1407.56 Q779.276 1402.95 785.086 1402.95 Z" fill="#000000" fill-rule="nonzero" fill-opacity="1" /><path clip-path="url(#clip150)" d="M1025.11 1419.51 Q1028.47 1420.22 1030.35 1422.49 Q1032.24 1424.76 1032.24 1428.09 Q1032.24 1433.21 1028.72 1436.01 Q1025.21 1438.81 1018.72 1438.81 Q1016.55 1438.81 1014.23 1438.37 Q1011.94 1437.95 1009.49 1437.1 L1009.49 1432.58 Q1011.43 1433.72 1013.75 1434.3 Q1016.06 1434.88 1018.59 1434.88 Q1022.98 1434.88 1025.28 1433.14 Q1027.59 1431.4 1027.59 1428.09 Q1027.59 1425.04 1025.44 1423.33 Q1023.31 1421.59 1019.49 1421.59 L1015.46 1421.59 L1015.46 1417.75 L1019.67 1417.75 Q1023.12 1417.75 1024.95 1416.38 Q1026.78 1414.99 1026.78 1412.4 Q1026.78 1409.74 1024.88 1408.33 Q1023.01 1406.89 1019.49 1406.89 Q1017.57 1406.89 1015.37 1407.31 Q1013.17 1407.72 1010.53 1408.6 L1010.53 1404.44 Q1013.19 1403.7 1015.51 1403.33 Q1017.85 1402.95 1019.91 1402.95 Q1025.23 1402.95 1028.33 1405.39 Q1031.43 1407.79 1031.43 1411.91 Q1031.43 1414.78 1029.79 1416.77 Q1028.15 1418.74 1025.11 1419.51 Z" fill="#000000" fill-rule="nonzero" fill-opacity="1" /><path clip-path="url(#clip150)" d="M1051.11 1406.66 Q1047.5 1406.66 1045.67 1410.22 Q1043.86 1413.76 1043.86 1420.89 Q1043.86 1428 1045.67 1431.57 Q1047.5 1435.11 1051.11 1435.11 Q1054.74 1435.11 1056.55 1431.57 Q1058.38 1428 1058.38 1420.89 Q1058.38 1413.76 1056.55 1410.22 Q1054.74 1406.66 1051.11 1406.66 M1051.11 1402.95 Q1056.92 1402.95 1059.97 1407.56 Q1063.05 1412.14 1063.05 1420.89 Q1063.05 1429.62 1059.97 1434.23 Q1056.92 1438.81 1051.11 1438.81 Q1045.3 1438.81 1042.22 1434.23 Q1039.16 1429.62 1039.16 1420.89 Q1039.16 1412.14 1042.22 1407.56 Q1045.3 1402.95 1051.11 1402.95 Z" fill="#000000" fill-rule="nonzero" fill-opacity="1" /><path clip-path="url(#clip150)" d="M1290.53 1407.65 L1278.73 1426.1 L1290.53 1426.1 L1290.53 1407.65 M1289.31 1403.58 L1295.19 1403.58 L1295.19 1426.1 L1300.12 1426.1 L1300.12 1429.99 L1295.19 1429.99 L1295.19 1438.14 L1290.53 1438.14 L1290.53 1429.99 L1274.93 1429.99 L1274.93 1425.48 L1289.31 1403.58 Z" fill="#000000" fill-rule="nonzero" fill-opacity="1" /><path clip-path="url(#clip150)" d="M1317.85 1406.66 Q1314.24 1406.66 1312.41 1410.22 Q1310.6 1413.76 1310.6 1420.89 Q1310.6 1428 1312.41 1431.57 Q1314.24 1435.11 1317.85 1435.11 Q1321.48 1435.11 1323.29 1431.57 Q1325.12 1428 1325.12 1420.89 Q1325.12 1413.76 1323.29 1410.22 Q1321.48 1406.66 1317.85 1406.66 M1317.85 1402.95 Q1323.66 1402.95 1326.71 1407.56 Q1329.79 1412.14 1329.79 1420.89 Q1329.79 1429.62 1326.71 1434.23 Q1323.66 1438.81 1317.85 1438.81 Q1312.04 1438.81 1308.96 1434.23 Q1305.9 1429.62 1305.9 1420.89 Q1305.9 1412.14 1308.96 1407.56 Q1312.04 1402.95 1317.85 1402.95 Z" fill="#000000" fill-rule="nonzero" fill-opacity="1" /><path clip-path="url(#clip150)" d="M874.101 1465.48 L879.99 1465.48 L879.99 1494.73 L897.464 1479.36 L904.943 1479.36 L886.037 1496.03 L905.739 1515 L898.1 1515 L879.99 1497.59 L879.99 1515 L874.101 1515 L874.101 1465.48 Z" fill="#000000" fill-rule="nonzero" fill-opacity="1" /><polyline clip-path="url(#clip153)" style="stroke:#000000; stroke-linecap:round; stroke-linejoin:round; stroke-width:2; stroke-opacity:0.1; fill:none" points="227.085,1367.28 1552.76,1367.28 "/>
<polyline clip-path="url(#clip153)" style="stroke:#000000; stroke-linecap:round; stroke-linejoin:round; stroke-width:2; stroke-opacity:0.1; fill:none" points="227.085,1284.7 1552.76,1284.7 "/>
<polyline clip-path="url(#clip153)" style="stroke:#000000; stroke-linecap:round; stroke-linejoin:round; stroke-width:2; stroke-opacity:0.1; fill:none" points="227.085,1202.13 1552.76,1202.13 "/>
<polyline clip-path="url(#clip153)" style="stroke:#000000; stroke-linecap:round; stroke-linejoin:round; stroke-width:2; stroke-opacity:0.1; fill:none" points="227.085,1119.55 1552.76,1119.55 "/>
<polyline clip-path="url(#clip153)" style="stroke:#000000; stroke-linecap:round; stroke-linejoin:round; stroke-width:2; stroke-opacity:0.1; fill:none" points="227.085,1036.98 1552.76,1036.98 "/>
<polyline clip-path="url(#clip153)" style="stroke:#000000; stroke-linecap:round; stroke-linejoin:round; stroke-width:2; stroke-opacity:0.1; fill:none" points="227.085,954.402 1552.76,954.402 "/>
<polyline clip-path="url(#clip153)" style="stroke:#000000; stroke-linecap:round; stroke-linejoin:round; stroke-width:2; stroke-opacity:0.1; fill:none" points="227.085,871.828 1552.76,871.828 "/>
<polyline clip-path="url(#clip150)" style="stroke:#000000; stroke-linecap:round; stroke-linejoin:round; stroke-width:4; stroke-opacity:1; fill:none" points="227.085,1382.14 227.085,856.964 "/>
<polyline clip-path="url(#clip150)" style="stroke:#000000; stroke-linecap:round; stroke-linejoin:round; stroke-width:4; stroke-opacity:1; fill:none" points="227.085,1367.28 245.982,1367.28 "/>
<polyline clip-path="url(#clip150)" style="stroke:#000000; stroke-linecap:round; stroke-linejoin:round; stroke-width:4; stroke-opacity:1; fill:none" points="227.085,1284.7 245.982,1284.7 "/>
<polyline clip-path="url(#clip150)" style="stroke:#000000; stroke-linecap:round; stroke-linejoin:round; stroke-width:4; stroke-opacity:1; fill:none" points="227.085,1202.13 245.982,1202.13 "/>
<polyline clip-path="url(#clip150)" style="stroke:#000000; stroke-linecap:round; stroke-linejoin:round; stroke-width:4; stroke-opacity:1; fill:none" points="227.085,1119.55 245.982,1119.55 "/>
<polyline clip-path="url(#clip150)" style="stroke:#000000; stroke-linecap:round; stroke-linejoin:round; stroke-width:4; stroke-opacity:1; fill:none" points="227.085,1036.98 245.982,1036.98 "/>
<polyline clip-path="url(#clip150)" style="stroke:#000000; stroke-linecap:round; stroke-linejoin:round; stroke-width:4; stroke-opacity:1; fill:none" points="227.085,954.402 245.982,954.402 "/>
<polyline clip-path="url(#clip150)" style="stroke:#000000; stroke-linecap:round; stroke-linejoin:round; stroke-width:4; stroke-opacity:1; fill:none" points="227.085,871.828 245.982,871.828 "/>
<path clip-path="url(#clip150)" d="M142.02 1367.73 L171.696 1367.73 L171.696 1371.66 L142.02 1371.66 L142.02 1367.73 Z" fill="#000000" fill-rule="nonzero" fill-opacity="1" /><path clip-path="url(#clip150)" d="M195.955 1365.92 Q199.312 1366.64 201.187 1368.91 Q203.085 1371.18 203.085 1374.51 Q203.085 1379.63 199.566 1382.43 Q196.048 1385.23 189.566 1385.23 Q187.39 1385.23 185.075 1384.79 Q182.784 1384.37 180.33 1383.51 L180.33 1379 Q182.275 1380.14 184.589 1380.71 Q186.904 1381.29 189.427 1381.29 Q193.825 1381.29 196.117 1379.56 Q198.432 1377.82 198.432 1374.51 Q198.432 1371.45 196.279 1369.74 Q194.15 1368.01 190.33 1368.01 L186.302 1368.01 L186.302 1364.16 L190.515 1364.16 Q193.964 1364.16 195.793 1362.8 Q197.622 1361.41 197.622 1358.82 Q197.622 1356.15 195.724 1354.74 Q193.849 1353.31 190.33 1353.31 Q188.409 1353.31 186.21 1353.72 Q184.011 1354.14 181.372 1355.02 L181.372 1350.85 Q184.034 1350.11 186.349 1349.74 Q188.687 1349.37 190.747 1349.37 Q196.071 1349.37 199.173 1351.8 Q202.274 1354.21 202.274 1358.33 Q202.274 1361.2 200.631 1363.19 Q198.987 1365.16 195.955 1365.92 Z" fill="#000000" fill-rule="nonzero" fill-opacity="1" /><path clip-path="url(#clip150)" d="M142.969 1285.15 L172.645 1285.15 L172.645 1289.09 L142.969 1289.09 L142.969 1285.15 Z" fill="#000000" fill-rule="nonzero" fill-opacity="1" /><path clip-path="url(#clip150)" d="M186.765 1298.05 L203.085 1298.05 L203.085 1301.98 L181.14 1301.98 L181.14 1298.05 Q183.802 1295.29 188.386 1290.66 Q192.992 1286.01 194.173 1284.67 Q196.418 1282.14 197.298 1280.41 Q198.2 1278.65 198.2 1276.96 Q198.2 1274.2 196.256 1272.47 Q194.335 1270.73 191.233 1270.73 Q189.034 1270.73 186.58 1271.5 Q184.15 1272.26 181.372 1273.81 L181.372 1269.09 Q184.196 1267.95 186.65 1267.38 Q189.103 1266.8 191.14 1266.8 Q196.511 1266.8 199.705 1269.48 Q202.899 1272.17 202.899 1276.66 Q202.899 1278.79 202.089 1280.71 Q201.302 1282.61 199.196 1285.2 Q198.617 1285.87 195.515 1289.09 Q192.413 1292.28 186.765 1298.05 Z" fill="#000000" fill-rule="nonzero" fill-opacity="1" /><path clip-path="url(#clip150)" d="M142.599 1202.58 L172.275 1202.58 L172.275 1206.51 L142.599 1206.51 L142.599 1202.58 Z" fill="#000000" fill-rule="nonzero" fill-opacity="1" /><path clip-path="url(#clip150)" d="M183.177 1215.47 L190.816 1215.47 L190.816 1189.11 L182.506 1190.77 L182.506 1186.51 L190.77 1184.85 L195.446 1184.85 L195.446 1215.47 L203.085 1215.47 L203.085 1219.41 L183.177 1219.41 L183.177 1215.47 Z" fill="#000000" fill-rule="nonzero" fill-opacity="1" /><path clip-path="url(#clip150)" d="M191.14 1105.35 Q187.529 1105.35 185.7 1108.92 Q183.895 1112.46 183.895 1119.59 Q183.895 1126.69 185.7 1130.26 Q187.529 1133.8 191.14 1133.8 Q194.775 1133.8 196.58 1130.26 Q198.409 1126.69 198.409 1119.59 Q198.409 1112.46 196.58 1108.92 Q194.775 1105.35 191.14 1105.35 M191.14 1101.65 Q196.95 1101.65 200.006 1106.25 Q203.085 1110.84 203.085 1119.59 Q203.085 1128.31 200.006 1132.92 Q196.95 1137.5 191.14 1137.5 Q185.33 1137.5 182.251 1132.92 Q179.196 1128.31 179.196 1119.59 Q179.196 1110.84 182.251 1106.25 Q185.33 1101.65 191.14 1101.65 Z" fill="#000000" fill-rule="nonzero" fill-opacity="1" /><path clip-path="url(#clip150)" d="M183.177 1050.32 L190.816 1050.32 L190.816 1023.96 L182.506 1025.62 L182.506 1021.36 L190.77 1019.7 L195.446 1019.7 L195.446 1050.32 L203.085 1050.32 L203.085 1054.26 L183.177 1054.26 L183.177 1050.32 Z" fill="#000000" fill-rule="nonzero" fill-opacity="1" /><path clip-path="url(#clip150)" d="M186.765 967.747 L203.085 967.747 L203.085 971.682 L181.14 971.682 L181.14 967.747 Q183.802 964.993 188.386 960.363 Q192.992 955.71 194.173 954.368 Q196.418 951.845 197.298 950.108 Q198.2 948.349 198.2 946.659 Q198.2 943.905 196.256 942.169 Q194.335 940.433 191.233 940.433 Q189.034 940.433 186.58 941.196 Q184.15 941.96 181.372 943.511 L181.372 938.789 Q184.196 937.655 186.65 937.076 Q189.103 936.497 191.14 936.497 Q196.511 936.497 199.705 939.183 Q202.899 941.868 202.899 946.358 Q202.899 948.488 202.089 950.409 Q201.302 952.307 199.196 954.9 Q198.617 955.571 195.515 958.789 Q192.413 961.983 186.765 967.747 Z" fill="#000000" fill-rule="nonzero" fill-opacity="1" /><path clip-path="url(#clip150)" d="M195.955 870.473 Q199.312 871.191 201.187 873.459 Q203.085 875.728 203.085 879.061 Q203.085 884.177 199.566 886.978 Q196.048 889.779 189.566 889.779 Q187.39 889.779 185.075 889.339 Q182.784 888.922 180.33 888.066 L180.33 883.552 Q182.275 884.686 184.589 885.265 Q186.904 885.844 189.427 885.844 Q193.825 885.844 196.117 884.108 Q198.432 882.371 198.432 879.061 Q198.432 876.006 196.279 874.293 Q194.15 872.557 190.33 872.557 L186.302 872.557 L186.302 868.714 L190.515 868.714 Q193.964 868.714 195.793 867.348 Q197.622 865.96 197.622 863.367 Q197.622 860.705 195.724 859.293 Q193.849 857.858 190.33 857.858 Q188.409 857.858 186.21 858.274 Q184.011 858.691 181.372 859.571 L181.372 855.404 Q184.034 854.663 186.349 854.293 Q188.687 853.923 190.747 853.923 Q196.071 853.923 199.173 856.353 Q202.274 858.76 202.274 862.881 Q202.274 865.751 200.631 867.742 Q198.987 869.71 195.955 870.473 Z" fill="#000000" fill-rule="nonzero" fill-opacity="1" /><path clip-path="url(#clip150)" d="M66.6213 1135.13 L67.9417 1136.39 L68.618 1139.67 Q72.5471 1140.64 80.0511 1142.76 Q87.5229 1144.89 91.291 1145.82 Q102.402 1148.53 108.457 1156.1 Q112.354 1160.9 112.354 1165.21 Q112.354 1168.53 110.55 1169.88 Q108.908 1171.1 106.879 1170.62 Q105.172 1170.17 104.689 1169.56 Q103.916 1168.69 103.916 1167.53 Q103.916 1166.72 104.946 1166.08 Q105.075 1165.95 106.814 1165.95 Q108.167 1165.95 108.972 1165.4 Q109.584 1164.92 109.584 1163.18 Q109.584 1160.93 107.265 1157.9 Q105.268 1155.42 101.404 1153.49 Q97.5389 1151.59 91.774 1150.04 Q87.8449 1149.08 80.2121 1146.95 Q72.5471 1144.79 68.618 1143.83 Q68.618 1147.43 69.391 1150.43 Q70.2605 1153.58 71.6454 1155.19 Q73.1913 1157.19 75.027 1157.64 Q75.7999 1157.87 76.4763 1157.77 L78.7629 1157.77 Q79.9867 1158.06 80.8885 1159.22 Q81.4038 1159.93 81.4038 1160.73 Q81.4038 1161.51 80.7596 1162.05 Q79.5358 1162.89 77.2492 1162.31 Q73.4489 1161.41 70.7758 1158.09 Q68.4892 1155.1 67.4264 1150.78 Q66.2348 1146.11 66.2348 1140.61 Q66.2348 1139.61 66.428 1137.77 Q66.5891 1135.9 66.6213 1135.13 Z" fill="#000000" fill-rule="nonzero" fill-opacity="1" /><path clip-path="url(#clip150)" d="M101.983 1071.31 Q102.241 1071.31 103.239 1071.6 Q104.238 1071.89 105.784 1072.6 Q107.329 1073.27 108.747 1074.24 Q110.131 1075.17 111.162 1076.72 Q112.16 1078.23 112.16 1079.97 Q112.16 1082.29 110.614 1083.84 Q109.069 1085.38 106.75 1085.38 Q105.494 1085.38 103.111 1084.51 Q92.2249 1080.42 88.328 1080.42 Q83.7226 1080.42 83.7226 1084 Q83.7226 1086.03 84.5599 1087.86 Q85.3973 1089.7 86.5567 1090.89 Q87.7161 1092.08 89.0365 1093.01 Q90.357 1093.95 91.2265 1094.37 Q92.0961 1094.75 92.4826 1094.85 L108.392 1098.81 Q109.745 1099.13 110.389 1099.36 Q111.033 1099.58 111.581 1100.2 Q112.16 1100.81 112.16 1101.77 Q112.16 1102.58 111.677 1103.16 Q111.194 1103.71 110.357 1103.71 Q110.228 1103.71 109.552 1103.55 Q108.875 1103.38 107.941 1103.16 Q107.007 1102.93 106.46 1102.84 Q102.08 1101.68 101.468 1101.52 L93.803 1099.68 Q90.0027 1098.68 88.328 1098.68 Q83.7226 1098.68 83.7226 1102.26 Q83.7226 1104.03 84.3989 1105.7 Q85.043 1107.35 85.9448 1108.47 Q86.8465 1109.6 88.1026 1110.63 Q89.3264 1111.63 90.1637 1112.14 Q90.9689 1112.63 91.774 1113.01 L95.059 1113.85 Q95.9608 1114.04 99.4712 1114.98 L105.429 1116.43 Q109.874 1117.46 110.292 1117.68 Q111.194 1118.01 111.677 1118.71 Q112.16 1119.42 112.16 1120.13 Q112.16 1120.94 111.677 1121.48 Q111.194 1122.03 110.357 1122.03 Q110.228 1122.03 109.745 1121.93 Q109.262 1121.84 108.586 1121.68 Q107.909 1121.52 107.523 1121.45 L92.2893 1117.62 Q89.5196 1116.91 88.6501 1116.75 Q87.7483 1116.56 86.7499 1116.56 Q83.7226 1116.56 83.7226 1118.62 Q83.7226 1120.29 85.7193 1121.39 Q87.7161 1122.48 91.5808 1123.42 Q92.6436 1123.71 92.869 1123.9 Q93.0945 1124.06 93.0945 1124.54 Q93.0623 1125.35 92.4182 1125.35 Q92.2571 1125.35 91.2265 1125.09 Q90.196 1124.83 88.6501 1124.35 Q87.072 1123.83 86.0414 1123.29 Q85.3651 1122.97 84.9142 1122.68 Q84.4633 1122.39 83.7548 1121.81 Q83.0463 1121.23 82.6598 1120.36 Q82.2733 1119.49 82.2733 1118.42 Q82.2733 1116.07 83.787 1114.33 Q85.3007 1112.56 88.006 1112.34 Q82.2733 1108.05 82.2733 1102.06 Q82.2733 1098.68 83.9802 1096.65 Q85.6227 1094.75 88.6501 1094.53 Q82.2733 1090.08 82.2733 1083.77 Q82.2733 1080.13 84.1735 1078.17 Q86.0414 1076.2 89.3264 1076.2 Q91.0333 1076.2 94.2861 1077.07 Q97.5067 1077.94 99.117 1078.52 Q100.727 1079.1 103.819 1080.23 Q106.782 1081.42 108.521 1081.42 Q109.648 1081.42 110.164 1081.03 Q110.679 1080.65 110.679 1079.81 Q110.679 1078.52 109.938 1077.39 Q109.165 1076.27 107.909 1075.46 Q106.621 1074.62 105.333 1074.08 Q104.012 1073.53 102.531 1073.11 Q101.726 1072.85 101.532 1072.72 Q101.339 1072.56 101.339 1072.11 Q101.339 1071.31 101.983 1071.31 Z" fill="#000000" fill-rule="nonzero" fill-opacity="1" /><path clip-path="url(#clip153)" d="M252.604 1355.28 L252.604 1379.28 L276.604 1379.28 L276.604 1355.28 L252.604 1355.28 Z" fill="#009af9" fill-rule="evenodd" fill-opacity="1" stroke="#000000" stroke-opacity="1" stroke-width="3.2"/>
<path clip-path="url(#clip153)" d="M279.213 1355.28 L279.213 1379.28 L303.213 1379.28 L303.213 1355.28 L279.213 1355.28 Z" fill="#009af9" fill-rule="evenodd" fill-opacity="1" stroke="#000000" stroke-opacity="1" stroke-width="3.2"/>
<path clip-path="url(#clip153)" d="M305.822 859.828 L305.822 883.828 L329.822 883.828 L329.822 859.828 L305.822 859.828 Z" fill="#009af9" fill-rule="evenodd" fill-opacity="1" stroke="#000000" stroke-opacity="1" stroke-width="3.2"/>
<path clip-path="url(#clip153)" d="M332.431 1190.13 L332.431 1214.13 L356.431 1214.13 L356.431 1190.13 L332.431 1190.13 Z" fill="#009af9" fill-rule="evenodd" fill-opacity="1" stroke="#000000" stroke-opacity="1" stroke-width="3.2"/>
<path clip-path="url(#clip153)" d="M359.041 859.828 L359.041 883.828 L383.041 883.828 L383.041 859.828 L359.041 859.828 Z" fill="#009af9" fill-rule="evenodd" fill-opacity="1" stroke="#000000" stroke-opacity="1" stroke-width="3.2"/>
<path clip-path="url(#clip153)" d="M385.65 1355.28 L385.65 1379.28 L409.65 1379.28 L409.65 1355.28 L385.65 1355.28 Z" fill="#009af9" fill-rule="evenodd" fill-opacity="1" stroke="#000000" stroke-opacity="1" stroke-width="3.2"/>
<path clip-path="url(#clip153)" d="M412.259 1355.28 L412.259 1379.28 L436.259 1379.28 L436.259 1355.28 L412.259 1355.28 Z" fill="#009af9" fill-rule="evenodd" fill-opacity="1" stroke="#000000" stroke-opacity="1" stroke-width="3.2"/>
<path clip-path="url(#clip153)" d="M438.868 859.828 L438.868 883.828 L462.868 883.828 L462.868 859.828 L438.868 859.828 Z" fill="#009af9" fill-rule="evenodd" fill-opacity="1" stroke="#000000" stroke-opacity="1" stroke-width="3.2"/>
<path clip-path="url(#clip153)" d="M465.477 1355.28 L465.477 1379.28 L489.477 1379.28 L489.477 1355.28 L465.477 1355.28 Z" fill="#009af9" fill-rule="evenodd" fill-opacity="1" stroke="#000000" stroke-opacity="1" stroke-width="3.2"/>
<path clip-path="url(#clip153)" d="M492.087 1024.98 L492.087 1048.98 L516.087 1048.98 L516.087 1024.98 L492.087 1024.98 Z" fill="#009af9" fill-rule="evenodd" fill-opacity="1" stroke="#000000" stroke-opacity="1" stroke-width="3.2"/>
<path clip-path="url(#clip153)" d="M518.696 859.828 L518.696 883.828 L542.696 883.828 L542.696 859.828 L518.696 859.828 Z" fill="#009af9" fill-rule="evenodd" fill-opacity="1" stroke="#000000" stroke-opacity="1" stroke-width="3.2"/>
<path clip-path="url(#clip153)" d="M545.305 1355.28 L545.305 1379.28 L569.305 1379.28 L569.305 1355.28 L545.305 1355.28 Z" fill="#009af9" fill-rule="evenodd" fill-opacity="1" stroke="#000000" stroke-opacity="1" stroke-width="3.2"/>
<path clip-path="url(#clip153)" d="M571.914 1024.98 L571.914 1048.98 L595.914 1048.98 L595.914 1024.98 L571.914 1024.98 Z" fill="#009af9" fill-rule="evenodd" fill-opacity="1" stroke="#000000" stroke-opacity="1" stroke-width="3.2"/>
<path clip-path="url(#clip153)" d="M598.523 1355.28 L598.523 1379.28 L622.523 1379.28 L622.523 1355.28 L598.523 1355.28 Z" fill="#009af9" fill-rule="evenodd" fill-opacity="1" stroke="#000000" stroke-opacity="1" stroke-width="3.2"/>
<path clip-path="url(#clip153)" d="M625.133 1024.98 L625.133 1048.98 L649.133 1048.98 L649.133 1024.98 L625.133 1024.98 Z" fill="#009af9" fill-rule="evenodd" fill-opacity="1" stroke="#000000" stroke-opacity="1" stroke-width="3.2"/>
<path clip-path="url(#clip153)" d="M651.742 1024.98 L651.742 1048.98 L675.742 1048.98 L675.742 1024.98 L651.742 1024.98 Z" fill="#009af9" fill-rule="evenodd" fill-opacity="1" stroke="#000000" stroke-opacity="1" stroke-width="3.2"/>
<path clip-path="url(#clip153)" d="M678.351 859.828 L678.351 883.828 L702.351 883.828 L702.351 859.828 L678.351 859.828 Z" fill="#009af9" fill-rule="evenodd" fill-opacity="1" stroke="#000000" stroke-opacity="1" stroke-width="3.2"/>
<path clip-path="url(#clip153)" d="M704.96 859.828 L704.96 883.828 L728.96 883.828 L728.96 859.828 L704.96 859.828 Z" fill="#009af9" fill-rule="evenodd" fill-opacity="1" stroke="#000000" stroke-opacity="1" stroke-width="3.2"/>
<path clip-path="url(#clip153)" d="M731.57 1190.13 L731.57 1214.13 L755.57 1214.13 L755.57 1190.13 L731.57 1190.13 Z" fill="#009af9" fill-rule="evenodd" fill-opacity="1" stroke="#000000" stroke-opacity="1" stroke-width="3.2"/>
<path clip-path="url(#clip153)" d="M758.179 1190.13 L758.179 1214.13 L782.179 1214.13 L782.179 1190.13 L758.179 1190.13 Z" fill="#009af9" fill-rule="evenodd" fill-opacity="1" stroke="#000000" stroke-opacity="1" stroke-width="3.2"/>
<path clip-path="url(#clip153)" d="M784.788 1355.28 L784.788 1379.28 L808.788 1379.28 L808.788 1355.28 L784.788 1355.28 Z" fill="#009af9" fill-rule="evenodd" fill-opacity="1" stroke="#000000" stroke-opacity="1" stroke-width="3.2"/>
<path clip-path="url(#clip153)" d="M811.397 1190.13 L811.397 1214.13 L835.397 1214.13 L835.397 1190.13 L811.397 1190.13 Z" fill="#009af9" fill-rule="evenodd" fill-opacity="1" stroke="#000000" stroke-opacity="1" stroke-width="3.2"/>
<path clip-path="url(#clip153)" d="M838.006 1190.13 L838.006 1214.13 L862.006 1214.13 L862.006 1190.13 L838.006 1190.13 Z" fill="#009af9" fill-rule="evenodd" fill-opacity="1" stroke="#000000" stroke-opacity="1" stroke-width="3.2"/>
<path clip-path="url(#clip153)" d="M864.616 1355.28 L864.616 1379.28 L888.616 1379.28 L888.616 1355.28 L864.616 1355.28 Z" fill="#009af9" fill-rule="evenodd" fill-opacity="1" stroke="#000000" stroke-opacity="1" stroke-width="3.2"/>
<path clip-path="url(#clip153)" d="M891.225 1355.28 L891.225 1379.28 L915.225 1379.28 L915.225 1355.28 L891.225 1355.28 Z" fill="#009af9" fill-rule="evenodd" fill-opacity="1" stroke="#000000" stroke-opacity="1" stroke-width="3.2"/>
<path clip-path="url(#clip153)" d="M917.834 1355.28 L917.834 1379.28 L941.834 1379.28 L941.834 1355.28 L917.834 1355.28 Z" fill="#009af9" fill-rule="evenodd" fill-opacity="1" stroke="#000000" stroke-opacity="1" stroke-width="3.2"/>
<path clip-path="url(#clip153)" d="M944.443 859.828 L944.443 883.828 L968.443 883.828 L968.443 859.828 L944.443 859.828 Z" fill="#009af9" fill-rule="evenodd" fill-opacity="1" stroke="#000000" stroke-opacity="1" stroke-width="3.2"/>
<path clip-path="url(#clip153)" d="M971.053 1190.13 L971.053 1214.13 L995.053 1214.13 L995.053 1190.13 L971.053 1190.13 Z" fill="#009af9" fill-rule="evenodd" fill-opacity="1" stroke="#000000" stroke-opacity="1" stroke-width="3.2"/>
<path clip-path="url(#clip153)" d="M997.662 1024.98 L997.662 1048.98 L1021.66 1048.98 L1021.66 1024.98 L997.662 1024.98 Z" fill="#009af9" fill-rule="evenodd" fill-opacity="1" stroke="#000000" stroke-opacity="1" stroke-width="3.2"/>
<path clip-path="url(#clip153)" d="M1024.27 859.828 L1024.27 883.828 L1048.27 883.828 L1048.27 859.828 L1024.27 859.828 Z" fill="#009af9" fill-rule="evenodd" fill-opacity="1" stroke="#000000" stroke-opacity="1" stroke-width="3.2"/>
<path clip-path="url(#clip153)" d="M1050.88 1024.98 L1050.88 1048.98 L1074.88 1048.98 L1074.88 1024.98 L1050.88 1024.98 Z" fill="#009af9" fill-rule="evenodd" fill-opacity="1" stroke="#000000" stroke-opacity="1" stroke-width="3.2"/>
<path clip-path="url(#clip153)" d="M1077.49 1190.13 L1077.49 1214.13 L1101.49 1214.13 L1101.49 1190.13 L1077.49 1190.13 Z" fill="#009af9" fill-rule="evenodd" fill-opacity="1" stroke="#000000" stroke-opacity="1" stroke-width="3.2"/>
<path clip-path="url(#clip153)" d="M1104.1 1024.98 L1104.1 1048.98 L1128.1 1048.98 L1128.1 1024.98 L1104.1 1024.98 Z" fill="#009af9" fill-rule="evenodd" fill-opacity="1" stroke="#000000" stroke-opacity="1" stroke-width="3.2"/>
<path clip-path="url(#clip153)" d="M1130.71 1024.98 L1130.71 1048.98 L1154.71 1048.98 L1154.71 1024.98 L1130.71 1024.98 Z" fill="#009af9" fill-rule="evenodd" fill-opacity="1" stroke="#000000" stroke-opacity="1" stroke-width="3.2"/>
<path clip-path="url(#clip153)" d="M1157.32 1355.28 L1157.32 1379.28 L1181.32 1379.28 L1181.32 1355.28 L1157.32 1355.28 Z" fill="#009af9" fill-rule="evenodd" fill-opacity="1" stroke="#000000" stroke-opacity="1" stroke-width="3.2"/>
<path clip-path="url(#clip153)" d="M1183.93 859.828 L1183.93 883.828 L1207.93 883.828 L1207.93 859.828 L1183.93 859.828 Z" fill="#009af9" fill-rule="evenodd" fill-opacity="1" stroke="#000000" stroke-opacity="1" stroke-width="3.2"/>
<path clip-path="url(#clip153)" d="M1210.54 1355.28 L1210.54 1379.28 L1234.54 1379.28 L1234.54 1355.28 L1210.54 1355.28 Z" fill="#009af9" fill-rule="evenodd" fill-opacity="1" stroke="#000000" stroke-opacity="1" stroke-width="3.2"/>
<path clip-path="url(#clip153)" d="M1237.14 859.828 L1237.14 883.828 L1261.14 883.828 L1261.14 859.828 L1237.14 859.828 Z" fill="#009af9" fill-rule="evenodd" fill-opacity="1" stroke="#000000" stroke-opacity="1" stroke-width="3.2"/>
<path clip-path="url(#clip153)" d="M1263.75 1355.28 L1263.75 1379.28 L1287.75 1379.28 L1287.75 1355.28 L1263.75 1355.28 Z" fill="#009af9" fill-rule="evenodd" fill-opacity="1" stroke="#000000" stroke-opacity="1" stroke-width="3.2"/>
<path clip-path="url(#clip153)" d="M1290.36 859.828 L1290.36 883.828 L1314.36 883.828 L1314.36 859.828 L1290.36 859.828 Z" fill="#009af9" fill-rule="evenodd" fill-opacity="1" stroke="#000000" stroke-opacity="1" stroke-width="3.2"/>
<path clip-path="url(#clip153)" d="M1316.97 1355.28 L1316.97 1379.28 L1340.97 1379.28 L1340.97 1355.28 L1316.97 1355.28 Z" fill="#009af9" fill-rule="evenodd" fill-opacity="1" stroke="#000000" stroke-opacity="1" stroke-width="3.2"/>
<path clip-path="url(#clip153)" d="M1343.58 1024.98 L1343.58 1048.98 L1367.58 1048.98 L1367.58 1024.98 L1343.58 1024.98 Z" fill="#009af9" fill-rule="evenodd" fill-opacity="1" stroke="#000000" stroke-opacity="1" stroke-width="3.2"/>
<path clip-path="url(#clip153)" d="M1370.19 1355.28 L1370.19 1379.28 L1394.19 1379.28 L1394.19 1355.28 L1370.19 1355.28 Z" fill="#009af9" fill-rule="evenodd" fill-opacity="1" stroke="#000000" stroke-opacity="1" stroke-width="3.2"/>
<path clip-path="url(#clip153)" d="M1396.8 859.828 L1396.8 883.828 L1420.8 883.828 L1420.8 859.828 L1396.8 859.828 Z" fill="#009af9" fill-rule="evenodd" fill-opacity="1" stroke="#000000" stroke-opacity="1" stroke-width="3.2"/>
<path clip-path="url(#clip153)" d="M1423.41 1024.98 L1423.41 1048.98 L1447.41 1048.98 L1447.41 1024.98 L1423.41 1024.98 Z" fill="#009af9" fill-rule="evenodd" fill-opacity="1" stroke="#000000" stroke-opacity="1" stroke-width="3.2"/>
<path clip-path="url(#clip153)" d="M1450.02 1190.13 L1450.02 1214.13 L1474.02 1214.13 L1474.02 1190.13 L1450.02 1190.13 Z" fill="#009af9" fill-rule="evenodd" fill-opacity="1" stroke="#000000" stroke-opacity="1" stroke-width="3.2"/>
<path clip-path="url(#clip153)" d="M1476.63 1190.13 L1476.63 1214.13 L1500.63 1214.13 L1500.63 1190.13 L1476.63 1190.13 Z" fill="#009af9" fill-rule="evenodd" fill-opacity="1" stroke="#000000" stroke-opacity="1" stroke-width="3.2"/>
<path clip-path="url(#clip153)" d="M1503.24 1355.28 L1503.24 1379.28 L1527.24 1379.28 L1527.24 1355.28 L1503.24 1355.28 Z" fill="#009af9" fill-rule="evenodd" fill-opacity="1" stroke="#000000" stroke-opacity="1" stroke-width="3.2"/>
<polyline clip-path="url(#clip153)" style="stroke:#009af9; stroke-linecap:round; stroke-linejoin:round; stroke-width:4; stroke-opacity:1; fill:none" points="264.604,1119.55 264.604,1367.28 "/>
<polyline clip-path="url(#clip153)" style="stroke:#009af9; stroke-linecap:round; stroke-linejoin:round; stroke-width:4; stroke-opacity:1; fill:none" points="291.213,1119.55 291.213,1367.28 "/>
<polyline clip-path="url(#clip153)" style="stroke:#009af9; stroke-linecap:round; stroke-linejoin:round; stroke-width:4; stroke-opacity:1; fill:none" points="317.822,1119.55 317.822,871.828 "/>
<polyline clip-path="url(#clip153)" style="stroke:#009af9; stroke-linecap:round; stroke-linejoin:round; stroke-width:4; stroke-opacity:1; fill:none" points="344.431,1119.55 344.431,1202.13 "/>
<polyline clip-path="url(#clip153)" style="stroke:#009af9; stroke-linecap:round; stroke-linejoin:round; stroke-width:4; stroke-opacity:1; fill:none" points="371.041,1119.55 371.041,871.828 "/>
<polyline clip-path="url(#clip153)" style="stroke:#009af9; stroke-linecap:round; stroke-linejoin:round; stroke-width:4; stroke-opacity:1; fill:none" points="397.65,1119.55 397.65,1367.28 "/>
<polyline clip-path="url(#clip153)" style="stroke:#009af9; stroke-linecap:round; stroke-linejoin:round; stroke-width:4; stroke-opacity:1; fill:none" points="424.259,1119.55 424.259,1367.28 "/>
<polyline clip-path="url(#clip153)" style="stroke:#009af9; stroke-linecap:round; stroke-linejoin:round; stroke-width:4; stroke-opacity:1; fill:none" points="450.868,1119.55 450.868,871.828 "/>
<polyline clip-path="url(#clip153)" style="stroke:#009af9; stroke-linecap:round; stroke-linejoin:round; stroke-width:4; stroke-opacity:1; fill:none" points="477.477,1119.55 477.477,1367.28 "/>
<polyline clip-path="url(#clip153)" style="stroke:#009af9; stroke-linecap:round; stroke-linejoin:round; stroke-width:4; stroke-opacity:1; fill:none" points="504.087,1119.55 504.087,1036.98 "/>
<polyline clip-path="url(#clip153)" style="stroke:#009af9; stroke-linecap:round; stroke-linejoin:round; stroke-width:4; stroke-opacity:1; fill:none" points="530.696,1119.55 530.696,871.828 "/>
<polyline clip-path="url(#clip153)" style="stroke:#009af9; stroke-linecap:round; stroke-linejoin:round; stroke-width:4; stroke-opacity:1; fill:none" points="557.305,1119.55 557.305,1367.28 "/>
<polyline clip-path="url(#clip153)" style="stroke:#009af9; stroke-linecap:round; stroke-linejoin:round; stroke-width:4; stroke-opacity:1; fill:none" points="583.914,1119.55 583.914,1036.98 "/>
<polyline clip-path="url(#clip153)" style="stroke:#009af9; stroke-linecap:round; stroke-linejoin:round; stroke-width:4; stroke-opacity:1; fill:none" points="610.523,1119.55 610.523,1367.28 "/>
<polyline clip-path="url(#clip153)" style="stroke:#009af9; stroke-linecap:round; stroke-linejoin:round; stroke-width:4; stroke-opacity:1; fill:none" points="637.133,1119.55 637.133,1036.98 "/>
<polyline clip-path="url(#clip153)" style="stroke:#009af9; stroke-linecap:round; stroke-linejoin:round; stroke-width:4; stroke-opacity:1; fill:none" points="663.742,1119.55 663.742,1036.98 "/>
<polyline clip-path="url(#clip153)" style="stroke:#009af9; stroke-linecap:round; stroke-linejoin:round; stroke-width:4; stroke-opacity:1; fill:none" points="690.351,1119.55 690.351,871.828 "/>
<polyline clip-path="url(#clip153)" style="stroke:#009af9; stroke-linecap:round; stroke-linejoin:round; stroke-width:4; stroke-opacity:1; fill:none" points="716.96,1119.55 716.96,871.828 "/>
<polyline clip-path="url(#clip153)" style="stroke:#009af9; stroke-linecap:round; stroke-linejoin:round; stroke-width:4; stroke-opacity:1; fill:none" points="743.57,1119.55 743.57,1202.13 "/>
<polyline clip-path="url(#clip153)" style="stroke:#009af9; stroke-linecap:round; stroke-linejoin:round; stroke-width:4; stroke-opacity:1; fill:none" points="770.179,1119.55 770.179,1202.13 "/>
<polyline clip-path="url(#clip153)" style="stroke:#009af9; stroke-linecap:round; stroke-linejoin:round; stroke-width:4; stroke-opacity:1; fill:none" points="796.788,1119.55 796.788,1367.28 "/>
<polyline clip-path="url(#clip153)" style="stroke:#009af9; stroke-linecap:round; stroke-linejoin:round; stroke-width:4; stroke-opacity:1; fill:none" points="823.397,1119.55 823.397,1202.13 "/>
<polyline clip-path="url(#clip153)" style="stroke:#009af9; stroke-linecap:round; stroke-linejoin:round; stroke-width:4; stroke-opacity:1; fill:none" points="850.006,1119.55 850.006,1202.13 "/>
<polyline clip-path="url(#clip153)" style="stroke:#009af9; stroke-linecap:round; stroke-linejoin:round; stroke-width:4; stroke-opacity:1; fill:none" points="876.616,1119.55 876.616,1367.28 "/>
<polyline clip-path="url(#clip153)" style="stroke:#009af9; stroke-linecap:round; stroke-linejoin:round; stroke-width:4; stroke-opacity:1; fill:none" points="903.225,1119.55 903.225,1367.28 "/>
<polyline clip-path="url(#clip153)" style="stroke:#009af9; stroke-linecap:round; stroke-linejoin:round; stroke-width:4; stroke-opacity:1; fill:none" points="929.834,1119.55 929.834,1367.28 "/>
<polyline clip-path="url(#clip153)" style="stroke:#009af9; stroke-linecap:round; stroke-linejoin:round; stroke-width:4; stroke-opacity:1; fill:none" points="956.443,1119.55 956.443,871.828 "/>
<polyline clip-path="url(#clip153)" style="stroke:#009af9; stroke-linecap:round; stroke-linejoin:round; stroke-width:4; stroke-opacity:1; fill:none" points="983.053,1119.55 983.053,1202.13 "/>
<polyline clip-path="url(#clip153)" style="stroke:#009af9; stroke-linecap:round; stroke-linejoin:round; stroke-width:4; stroke-opacity:1; fill:none" points="1009.66,1119.55 1009.66,1036.98 "/>
<polyline clip-path="url(#clip153)" style="stroke:#009af9; stroke-linecap:round; stroke-linejoin:round; stroke-width:4; stroke-opacity:1; fill:none" points="1036.27,1119.55 1036.27,871.828 "/>
<polyline clip-path="url(#clip153)" style="stroke:#009af9; stroke-linecap:round; stroke-linejoin:round; stroke-width:4; stroke-opacity:1; fill:none" points="1062.88,1119.55 1062.88,1036.98 "/>
<polyline clip-path="url(#clip153)" style="stroke:#009af9; stroke-linecap:round; stroke-linejoin:round; stroke-width:4; stroke-opacity:1; fill:none" points="1089.49,1119.55 1089.49,1202.13 "/>
<polyline clip-path="url(#clip153)" style="stroke:#009af9; stroke-linecap:round; stroke-linejoin:round; stroke-width:4; stroke-opacity:1; fill:none" points="1116.1,1119.55 1116.1,1036.98 "/>
<polyline clip-path="url(#clip153)" style="stroke:#009af9; stroke-linecap:round; stroke-linejoin:round; stroke-width:4; stroke-opacity:1; fill:none" points="1142.71,1119.55 1142.71,1036.98 "/>
<polyline clip-path="url(#clip153)" style="stroke:#009af9; stroke-linecap:round; stroke-linejoin:round; stroke-width:4; stroke-opacity:1; fill:none" points="1169.32,1119.55 1169.32,1367.28 "/>
<polyline clip-path="url(#clip153)" style="stroke:#009af9; stroke-linecap:round; stroke-linejoin:round; stroke-width:4; stroke-opacity:1; fill:none" points="1195.93,1119.55 1195.93,871.828 "/>
<polyline clip-path="url(#clip153)" style="stroke:#009af9; stroke-linecap:round; stroke-linejoin:round; stroke-width:4; stroke-opacity:1; fill:none" points="1222.54,1119.55 1222.54,1367.28 "/>
<polyline clip-path="url(#clip153)" style="stroke:#009af9; stroke-linecap:round; stroke-linejoin:round; stroke-width:4; stroke-opacity:1; fill:none" points="1249.14,1119.55 1249.14,871.828 "/>
<polyline clip-path="url(#clip153)" style="stroke:#009af9; stroke-linecap:round; stroke-linejoin:round; stroke-width:4; stroke-opacity:1; fill:none" points="1275.75,1119.55 1275.75,1367.28 "/>
<polyline clip-path="url(#clip153)" style="stroke:#009af9; stroke-linecap:round; stroke-linejoin:round; stroke-width:4; stroke-opacity:1; fill:none" points="1302.36,1119.55 1302.36,871.828 "/>
<polyline clip-path="url(#clip153)" style="stroke:#009af9; stroke-linecap:round; stroke-linejoin:round; stroke-width:4; stroke-opacity:1; fill:none" points="1328.97,1119.55 1328.97,1367.28 "/>
<polyline clip-path="url(#clip153)" style="stroke:#009af9; stroke-linecap:round; stroke-linejoin:round; stroke-width:4; stroke-opacity:1; fill:none" points="1355.58,1119.55 1355.58,1036.98 "/>
<polyline clip-path="url(#clip153)" style="stroke:#009af9; stroke-linecap:round; stroke-linejoin:round; stroke-width:4; stroke-opacity:1; fill:none" points="1382.19,1119.55 1382.19,1367.28 "/>
<polyline clip-path="url(#clip153)" style="stroke:#009af9; stroke-linecap:round; stroke-linejoin:round; stroke-width:4; stroke-opacity:1; fill:none" points="1408.8,1119.55 1408.8,871.828 "/>
<polyline clip-path="url(#clip153)" style="stroke:#009af9; stroke-linecap:round; stroke-linejoin:round; stroke-width:4; stroke-opacity:1; fill:none" points="1435.41,1119.55 1435.41,1036.98 "/>
<polyline clip-path="url(#clip153)" style="stroke:#009af9; stroke-linecap:round; stroke-linejoin:round; stroke-width:4; stroke-opacity:1; fill:none" points="1462.02,1119.55 1462.02,1202.13 "/>
<polyline clip-path="url(#clip153)" style="stroke:#009af9; stroke-linecap:round; stroke-linejoin:round; stroke-width:4; stroke-opacity:1; fill:none" points="1488.63,1119.55 1488.63,1202.13 "/>
<polyline clip-path="url(#clip153)" style="stroke:#009af9; stroke-linecap:round; stroke-linejoin:round; stroke-width:4; stroke-opacity:1; fill:none" points="1515.24,1119.55 1515.24,1367.28 "/>
</svg>
