<?xml version="1.0" encoding="utf-8"?>
<svg xmlns="http://www.w3.org/2000/svg" xmlns:xlink="http://www.w3.org/1999/xlink" width="1200" height="400" viewBox="0 0 4800 1600">
<defs>
  <clipPath id="clip180">
    <rect x="0" y="0" width="4800" height="1600"/>
  </clipPath>
</defs>
<path clip-path="url(#clip180)" d="M0 1600 L4800 1600 L4800 0 L0 0  Z" fill="#ffffff" fill-rule="evenodd" fill-opacity="1"/>
<defs>
  <clipPath id="clip181">
    <rect x="960" y="0" width="3361" height="1600"/>
  </clipPath>
</defs>
<path clip-path="url(#clip180)" d="M86.7521 683.974 L4752.76 683.974 L4752.76 47.2441 L86.7521 47.2441  Z" fill="#ffffff" fill-rule="evenodd" fill-opacity="1"/>
<defs>
  <clipPath id="clip182">
    <rect x="86" y="47" width="4667" height="638"/>
  </clipPath>
</defs>
<polyline clip-path="url(#clip182)" style="stroke:#000000; stroke-linecap:round; stroke-linejoin:round; stroke-width:2; stroke-opacity:0.1; fill:none" points="86.7521,683.974 86.7521,47.2441 "/>
<polyline clip-path="url(#clip182)" style="stroke:#000000; stroke-linecap:round; stroke-linejoin:round; stroke-width:2; stroke-opacity:0.1; fill:none" points="1253.25,683.974 1253.25,47.2441 "/>
<polyline clip-path="url(#clip182)" style="stroke:#000000; stroke-linecap:round; stroke-linejoin:round; stroke-width:2; stroke-opacity:0.1; fill:none" points="2419.75,683.974 2419.75,47.2441 "/>
<polyline clip-path="url(#clip182)" style="stroke:#000000; stroke-linecap:round; stroke-linejoin:round; stroke-width:2; stroke-opacity:0.1; fill:none" points="3586.25,683.974 3586.25,47.2441 "/>
<polyline clip-path="url(#clip182)" style="stroke:#000000; stroke-linecap:round; stroke-linejoin:round; stroke-width:2; stroke-opacity:0.1; fill:none" points="4752.76,683.974 4752.76,47.2441 "/>
<polyline clip-path="url(#clip180)" style="stroke:#000000; stroke-linecap:round; stroke-linejoin:round; stroke-width:4; stroke-opacity:1; fill:none" points="86.7521,683.974 4752.76,683.974 "/>
<polyline clip-path="url(#clip180)" style="stroke:#000000; stroke-linecap:round; stroke-linejoin:round; stroke-width:4; stroke-opacity:1; fill:none" points="86.7521,683.974 86.7521,665.076 "/>
<polyline clip-path="url(#clip180)" style="stroke:#000000; stroke-linecap:round; stroke-linejoin:round; stroke-width:4; stroke-opacity:1; fill:none" points="1253.25,683.974 1253.25,665.076 "/>
<polyline clip-path="url(#clip180)" style="stroke:#000000; stroke-linecap:round; stroke-linejoin:round; stroke-width:4; stroke-opacity:1; fill:none" points="2419.75,683.974 2419.75,665.076 "/>
<polyline clip-path="url(#clip180)" style="stroke:#000000; stroke-linecap:round; stroke-linejoin:round; stroke-width:4; stroke-opacity:1; fill:none" points="3586.25,683.974 3586.25,665.076 "/>
<polyline clip-path="url(#clip180)" style="stroke:#000000; stroke-linecap:round; stroke-linejoin:round; stroke-width:4; stroke-opacity:1; fill:none" points="4752.76,683.974 4752.76,665.076 "/>
<path clip-path="url(#clip180)" d="M86.7521 734.093 Q83.141 734.093 81.3123 737.657 Q79.5068 741.199 79.5068 748.329 Q79.5068 755.435 81.3123 759 Q83.141 762.541 86.7521 762.541 Q90.3864 762.541 92.1919 759 Q94.0206 755.435 94.0206 748.329 Q94.0206 741.199 92.1919 737.657 Q90.3864 734.093 86.7521 734.093 M86.7521 730.389 Q92.5623 730.389 95.6178 734.995 Q98.6965 739.579 98.6965 748.329 Q98.6965 757.055 95.6178 761.662 Q92.5623 766.245 86.7521 766.245 Q80.942 766.245 77.8633 761.662 Q74.8077 757.055 74.8077 748.329 Q74.8077 739.579 77.8633 734.995 Q80.942 730.389 86.7521 730.389 Z" fill="#000000" fill-rule="nonzero" fill-opacity="1" /><path clip-path="url(#clip180)" d="M1247.91 761.639 L1264.23 761.639 L1264.23 765.574 L1242.28 765.574 L1242.28 761.639 Q1244.94 758.884 1249.53 754.254 Q1254.13 749.602 1255.31 748.259 Q1257.56 745.736 1258.44 744 Q1259.34 742.241 1259.34 740.551 Q1259.34 737.796 1257.4 736.06 Q1255.48 734.324 1252.37 734.324 Q1250.17 734.324 1247.72 735.088 Q1245.29 735.852 1242.51 737.403 L1242.51 732.681 Q1245.34 731.546 1247.79 730.968 Q1250.24 730.389 1252.28 730.389 Q1257.65 730.389 1260.85 733.074 Q1264.04 735.759 1264.04 740.25 Q1264.04 742.38 1263.23 744.301 Q1262.44 746.199 1260.34 748.792 Q1259.76 749.463 1256.66 752.68 Q1253.55 755.875 1247.91 761.639 Z" fill="#000000" fill-rule="nonzero" fill-opacity="1" /><path clip-path="url(#clip180)" d="M2422.76 735.088 L2410.96 753.537 L2422.76 753.537 L2422.76 735.088 M2421.54 731.014 L2427.42 731.014 L2427.42 753.537 L2432.35 753.537 L2432.35 757.426 L2427.42 757.426 L2427.42 765.574 L2422.76 765.574 L2422.76 757.426 L2407.16 757.426 L2407.16 752.912 L2421.54 731.014 Z" fill="#000000" fill-rule="nonzero" fill-opacity="1" /><path clip-path="url(#clip180)" d="M3586.66 746.43 Q3583.51 746.43 3581.66 748.583 Q3579.83 750.736 3579.83 754.486 Q3579.83 758.213 3581.66 760.389 Q3583.51 762.541 3586.66 762.541 Q3589.81 762.541 3591.64 760.389 Q3593.49 758.213 3593.49 754.486 Q3593.49 750.736 3591.64 748.583 Q3589.81 746.43 3586.66 746.43 M3595.94 731.778 L3595.94 736.037 Q3594.18 735.204 3592.38 734.764 Q3590.6 734.324 3588.84 734.324 Q3584.21 734.324 3581.75 737.449 Q3579.32 740.574 3578.97 746.893 Q3580.34 744.88 3582.4 743.815 Q3584.46 742.727 3586.94 742.727 Q3592.15 742.727 3595.16 745.898 Q3598.19 749.046 3598.19 754.486 Q3598.19 759.81 3595.04 763.028 Q3591.89 766.245 3586.66 766.245 Q3580.66 766.245 3577.49 761.662 Q3574.32 757.055 3574.32 748.329 Q3574.32 740.134 3578.21 735.273 Q3582.1 730.389 3588.65 730.389 Q3590.41 730.389 3592.19 730.736 Q3594 731.083 3595.94 731.778 Z" fill="#000000" fill-rule="nonzero" fill-opacity="1" /><path clip-path="url(#clip180)" d="M4752.76 749.162 Q4749.42 749.162 4747.5 750.944 Q4745.6 752.727 4745.6 755.852 Q4745.6 758.977 4747.5 760.759 Q4749.42 762.541 4752.76 762.541 Q4756.09 762.541 4758.01 760.759 Q4759.93 758.954 4759.93 755.852 Q4759.93 752.727 4758.01 750.944 Q4756.11 749.162 4752.76 749.162 M4748.08 747.171 Q4745.07 746.43 4743.38 744.37 Q4741.71 742.31 4741.71 739.347 Q4741.71 735.204 4744.65 732.796 Q4747.62 730.389 4752.76 730.389 Q4757.92 730.389 4760.86 732.796 Q4763.8 735.204 4763.8 739.347 Q4763.8 742.31 4762.11 744.37 Q4760.44 746.43 4757.45 747.171 Q4760.83 747.958 4762.71 750.25 Q4764.61 752.542 4764.61 755.852 Q4764.61 760.875 4761.53 763.56 Q4758.47 766.245 4752.76 766.245 Q4747.04 766.245 4743.96 763.56 Q4740.9 760.875 4740.9 755.852 Q4740.9 752.542 4742.8 750.25 Q4744.7 747.958 4748.08 747.171 M4746.37 739.787 Q4746.37 742.472 4748.03 743.977 Q4749.72 745.481 4752.76 745.481 Q4755.77 745.481 4757.45 743.977 Q4759.17 742.472 4759.17 739.787 Q4759.17 737.102 4757.45 735.597 Q4755.77 734.093 4752.76 734.093 Q4749.72 734.093 4748.03 735.597 Q4746.37 737.102 4746.37 739.787 Z" fill="#000000" fill-rule="nonzero" fill-opacity="1" /><polyline clip-path="url(#clip180)" style="stroke:#000000; stroke-linecap:round; stroke-linejoin:round; stroke-width:4; stroke-opacity:1; fill:none" points="86.7521,683.974 86.7521,47.2441 "/>
<path clip-path="url(#clip180)" d="M-105.783 439.96 L-100.309 439.96 Q-101.677 442.443 -102.346 444.958 Q-103.046 447.44 -103.046 449.986 Q-103.046 455.684 -99.4175 458.835 Q-95.8209 461.986 -89.296 461.986 Q-82.7712 461.986 -79.1427 458.835 Q-75.5461 455.684 -75.5461 449.986 Q-75.5461 447.44 -76.2145 444.958 Q-76.9147 442.443 -78.2834 439.96 L-72.8725 439.96 Q-71.7267 442.411 -71.1538 445.053 Q-70.5808 447.663 -70.5808 450.623 Q-70.5808 458.676 -75.6416 463.418 Q-80.7023 468.161 -89.296 468.161 Q-98.017 468.161 -103.014 463.386 Q-108.011 458.58 -108.011 450.241 Q-108.011 447.536 -107.438 444.958 Q-106.897 442.379 -105.783 439.96 Z" fill="#000000" fill-rule="nonzero" fill-opacity="1" /><path clip-path="url(#clip180)" d="M-89.4233 413.575 Q-89.4233 420.672 -87.8001 423.41 Q-86.1768 426.147 -82.2619 426.147 Q-79.1427 426.147 -77.2967 424.11 Q-75.4824 422.041 -75.4824 418.508 Q-75.4824 413.638 -78.9199 410.71 Q-82.3892 407.75 -88.1184 407.75 L-89.4233 407.75 L-89.4233 413.575 M-91.8423 401.894 L-71.5039 401.894 L-71.5039 407.75 L-76.9147 407.75 Q-73.6682 409.755 -72.1086 412.747 Q-70.5808 415.739 -70.5808 420.068 Q-70.5808 425.542 -73.6364 428.789 Q-76.7238 432.003 -81.88 432.003 Q-87.8956 432.003 -90.9511 427.993 Q-94.0066 423.951 -94.0066 415.962 L-94.0066 407.75 L-94.5796 407.75 Q-98.6218 407.75 -100.818 410.424 Q-103.046 413.065 -103.046 417.871 Q-103.046 420.927 -102.314 423.823 Q-101.582 426.72 -100.118 429.393 L-105.529 429.393 Q-106.77 426.179 -107.375 423.155 Q-108.011 420.131 -108.011 417.267 Q-108.011 409.532 -104.001 405.713 Q-99.9904 401.894 -91.8423 401.894 Z" fill="#000000" fill-rule="nonzero" fill-opacity="1" /><path clip-path="url(#clip180)" d="M-93.02 360.198 L-71.5039 360.198 L-71.5039 366.055 L-92.829 366.055 Q-97.8897 366.055 -100.404 368.028 Q-102.919 370.001 -102.919 373.948 Q-102.919 378.691 -99.8949 381.428 Q-96.8712 384.165 -91.6513 384.165 L-71.5039 384.165 L-71.5039 390.053 L-107.152 390.053 L-107.152 384.165 L-101.614 384.165 Q-104.828 382.064 -106.42 379.232 Q-108.011 376.367 -108.011 372.643 Q-108.011 366.5 -104.192 363.349 Q-100.404 360.198 -93.02 360.198 Z" fill="#000000" fill-rule="nonzero" fill-opacity="1" /><path clip-path="url(#clip180)" d="M-89.4233 332.316 Q-89.4233 339.414 -87.8001 342.151 Q-86.1768 344.889 -82.2619 344.889 Q-79.1427 344.889 -77.2967 342.852 Q-75.4824 340.783 -75.4824 337.25 Q-75.4824 332.38 -78.9199 329.452 Q-82.3892 326.492 -88.1184 326.492 L-89.4233 326.492 L-89.4233 332.316 M-91.8423 320.635 L-71.5039 320.635 L-71.5039 326.492 L-76.9147 326.492 Q-73.6682 328.497 -72.1086 331.489 Q-70.5808 334.481 -70.5808 338.809 Q-70.5808 344.284 -73.6364 347.53 Q-76.7238 350.745 -81.88 350.745 Q-87.8956 350.745 -90.9511 346.735 Q-94.0066 342.692 -94.0066 334.703 L-94.0066 326.492 L-94.5796 326.492 Q-98.6218 326.492 -100.818 329.165 Q-103.046 331.807 -103.046 336.613 Q-103.046 339.669 -102.314 342.565 Q-101.582 345.462 -100.118 348.135 L-105.529 348.135 Q-106.77 344.92 -107.375 341.897 Q-108.011 338.873 -108.011 336.008 Q-108.011 328.274 -104.001 324.455 Q-99.9904 320.635 -91.8423 320.635 Z" fill="#000000" fill-rule="nonzero" fill-opacity="1" /><path clip-path="url(#clip180)" d="M-121.029 308.572 L-121.029 302.716 L-71.5039 302.716 L-71.5039 308.572 L-121.029 308.572 Z" fill="#000000" fill-rule="nonzero" fill-opacity="1" /><path clip-path="url(#clip180)" d="M-119.024 269.487 L-119.024 263.057 L-71.5039 263.057 L-71.5039 269.487 L-119.024 269.487 Z" fill="#000000" fill-rule="nonzero" fill-opacity="1" /><polyline clip-path="url(#clip182)" style="stroke:#009af9; stroke-linecap:round; stroke-linejoin:round; stroke-width:4; stroke-opacity:1; fill:none" points="86.7521,577.852 186.029,577.852 186.029,394.727 285.305,394.727 285.305,312.513 384.582,312.513 384.582,327.959 483.859,327.959 483.859,558.303 583.136,558.303 583.136,356.757 682.412,356.757 682.412,569.415 781.689,569.415 781.689,607.444 880.966,607.444 880.966,433.712 980.242,433.712 980.242,287.616 1079.52,287.616 1079.52,387.552 1178.8,387.552 1178.8,344.848 1278.07,344.848 1278.07,325.813 1377.35,325.813 1377.35,285.374 1476.63,285.374 1476.63,368.114 1575.9,368.114 1575.9,320.583 1675.18,320.583 1675.18,350.567 1774.46,350.567 1774.46,455.184 1873.73,455.184 1873.73,313.215 1973.01,313.215 1973.01,238.801 2072.29,238.801 2072.29,305.567 2171.56,305.567 2171.56,520.109 2270.84,520.109 2270.84,276.21 2370.12,276.21 2370.12,253.661 2469.39,253.661 2469.39,365.609 2568.67,365.609 2568.67,625.746 2667.95,625.746 2667.95,485.031 2767.22,485.031 2767.22,262.837 2866.5,262.837 2866.5,439.869 2965.78,439.869 2965.78,486.445 3065.05,486.445 3065.05,400.577 3164.33,400.577 3164.33,277.158 3263.61,277.158 3263.61,327.591 3362.88,327.591 3362.88,199.725 3462.16,199.725 3462.16,409.992 3561.44,409.992 3561.44,475.042 3660.71,475.042 3660.71,352.344 3759.99,352.344 3759.99,441.315 3859.27,441.315 3859.27,335.621 3958.54,335.621 3958.54,232.692 4057.82,232.692 4057.82,456.688 4157.1,456.688 4157.1,356.872 4256.37,356.872 4256.37,444.534 4355.65,444.534 4355.65,464.576 4454.93,464.576 4454.93,370.941 4554.2,370.941 4554.2,454.987 4653.48,454.987 4653.48,243.717 4752.76,243.717 4752.76,422.524 "/>
<path clip-path="url(#clip180)" d="M86.7521 1464.22 L4752.76 1464.22 L4752.76 827.49 L86.7521 827.49  Z" fill="#ffffff" fill-rule="evenodd" fill-opacity="1"/>
<defs>
  <clipPath id="clip183">
    <rect x="86" y="827" width="4667" height="638"/>
  </clipPath>
</defs>
<polyline clip-path="url(#clip183)" style="stroke:#000000; stroke-linecap:round; stroke-linejoin:round; stroke-width:2; stroke-opacity:0.1; fill:none" points="86.7521,1464.22 86.7521,827.49 "/>
<polyline clip-path="url(#clip183)" style="stroke:#000000; stroke-linecap:round; stroke-linejoin:round; stroke-width:2; stroke-opacity:0.1; fill:none" points="1253.25,1464.22 1253.25,827.49 "/>
<polyline clip-path="url(#clip183)" style="stroke:#000000; stroke-linecap:round; stroke-linejoin:round; stroke-width:2; stroke-opacity:0.1; fill:none" points="2419.75,1464.22 2419.75,827.49 "/>
<polyline clip-path="url(#clip183)" style="stroke:#000000; stroke-linecap:round; stroke-linejoin:round; stroke-width:2; stroke-opacity:0.1; fill:none" points="3586.25,1464.22 3586.25,827.49 "/>
<polyline clip-path="url(#clip183)" style="stroke:#000000; stroke-linecap:round; stroke-linejoin:round; stroke-width:2; stroke-opacity:0.1; fill:none" points="4752.76,1464.22 4752.76,827.49 "/>
<polyline clip-path="url(#clip180)" style="stroke:#000000; stroke-linecap:round; stroke-linejoin:round; stroke-width:4; stroke-opacity:1; fill:none" points="86.7521,1464.22 4752.76,1464.22 "/>
<polyline clip-path="url(#clip180)" style="stroke:#000000; stroke-linecap:round; stroke-linejoin:round; stroke-width:4; stroke-opacity:1; fill:none" points="86.7521,1464.22 86.7521,1445.32 "/>
<polyline clip-path="url(#clip180)" style="stroke:#000000; stroke-linecap:round; stroke-linejoin:round; stroke-width:4; stroke-opacity:1; fill:none" points="1253.25,1464.22 1253.25,1445.32 "/>
<polyline clip-path="url(#clip180)" style="stroke:#000000; stroke-linecap:round; stroke-linejoin:round; stroke-width:4; stroke-opacity:1; fill:none" points="2419.75,1464.22 2419.75,1445.32 "/>
<polyline clip-path="url(#clip180)" style="stroke:#000000; stroke-linecap:round; stroke-linejoin:round; stroke-width:4; stroke-opacity:1; fill:none" points="3586.25,1464.22 3586.25,1445.32 "/>
<polyline clip-path="url(#clip180)" style="stroke:#000000; stroke-linecap:round; stroke-linejoin:round; stroke-width:4; stroke-opacity:1; fill:none" points="4752.76,1464.22 4752.76,1445.32 "/>
<path clip-path="url(#clip180)" d="M86.7521 1514.34 Q83.141 1514.34 81.3123 1517.9 Q79.5068 1521.44 79.5068 1528.57 Q79.5068 1535.68 81.3123 1539.25 Q83.141 1542.79 86.7521 1542.79 Q90.3864 1542.79 92.1919 1539.25 Q94.0206 1535.68 94.0206 1528.57 Q94.0206 1521.44 92.1919 1517.9 Q90.3864 1514.34 86.7521 1514.34 M86.7521 1510.63 Q92.5623 1510.63 95.6178 1515.24 Q98.6965 1519.82 98.6965 1528.57 Q98.6965 1537.3 95.6178 1541.91 Q92.5623 1546.49 86.7521 1546.49 Q80.942 1546.49 77.8633 1541.91 Q74.8077 1537.3 74.8077 1528.57 Q74.8077 1519.82 77.8633 1515.24 Q80.942 1510.63 86.7521 1510.63 Z" fill="#000000" fill-rule="nonzero" fill-opacity="1" /><path clip-path="url(#clip180)" d="M1247.91 1541.88 L1264.23 1541.88 L1264.23 1545.82 L1242.28 1545.82 L1242.28 1541.88 Q1244.94 1539.13 1249.53 1534.5 Q1254.13 1529.85 1255.31 1528.51 Q1257.56 1525.98 1258.44 1524.25 Q1259.34 1522.49 1259.34 1520.8 Q1259.34 1518.04 1257.4 1516.31 Q1255.48 1514.57 1252.37 1514.57 Q1250.17 1514.57 1247.72 1515.33 Q1245.29 1516.1 1242.51 1517.65 L1242.51 1512.93 Q1245.34 1511.79 1247.79 1511.21 Q1250.24 1510.63 1252.28 1510.63 Q1257.65 1510.63 1260.85 1513.32 Q1264.04 1516.01 1264.04 1520.5 Q1264.04 1522.63 1263.23 1524.55 Q1262.44 1526.44 1260.34 1529.04 Q1259.76 1529.71 1256.66 1532.93 Q1253.55 1536.12 1247.91 1541.88 Z" fill="#000000" fill-rule="nonzero" fill-opacity="1" /><path clip-path="url(#clip180)" d="M2422.76 1515.33 L2410.96 1533.78 L2422.76 1533.78 L2422.76 1515.33 M2421.54 1511.26 L2427.42 1511.26 L2427.42 1533.78 L2432.35 1533.78 L2432.35 1537.67 L2427.42 1537.67 L2427.42 1545.82 L2422.76 1545.82 L2422.76 1537.67 L2407.16 1537.67 L2407.16 1533.16 L2421.54 1511.26 Z" fill="#000000" fill-rule="nonzero" fill-opacity="1" /><path clip-path="url(#clip180)" d="M3586.66 1526.68 Q3583.51 1526.68 3581.66 1528.83 Q3579.83 1530.98 3579.83 1534.73 Q3579.83 1538.46 3581.66 1540.63 Q3583.51 1542.79 3586.66 1542.79 Q3589.81 1542.79 3591.64 1540.63 Q3593.49 1538.46 3593.49 1534.73 Q3593.49 1530.98 3591.64 1528.83 Q3589.81 1526.68 3586.66 1526.68 M3595.94 1512.02 L3595.94 1516.28 Q3594.18 1515.45 3592.38 1515.01 Q3590.6 1514.57 3588.84 1514.57 Q3584.21 1514.57 3581.75 1517.69 Q3579.32 1520.82 3578.97 1527.14 Q3580.34 1525.13 3582.4 1524.06 Q3584.46 1522.97 3586.94 1522.97 Q3592.15 1522.97 3595.16 1526.14 Q3598.19 1529.29 3598.19 1534.73 Q3598.19 1540.06 3595.04 1543.27 Q3591.89 1546.49 3586.66 1546.49 Q3580.66 1546.49 3577.49 1541.91 Q3574.32 1537.3 3574.32 1528.57 Q3574.32 1520.38 3578.21 1515.52 Q3582.1 1510.63 3588.65 1510.63 Q3590.41 1510.63 3592.19 1510.98 Q3594 1511.33 3595.94 1512.02 Z" fill="#000000" fill-rule="nonzero" fill-opacity="1" /><path clip-path="url(#clip180)" d="M4752.76 1529.41 Q4749.42 1529.41 4747.5 1531.19 Q4745.6 1532.97 4745.6 1536.1 Q4745.6 1539.22 4747.5 1541.01 Q4749.42 1542.79 4752.76 1542.79 Q4756.09 1542.79 4758.01 1541.01 Q4759.93 1539.2 4759.93 1536.1 Q4759.93 1532.97 4758.01 1531.19 Q4756.11 1529.41 4752.76 1529.41 M4748.08 1527.42 Q4745.07 1526.68 4743.38 1524.62 Q4741.71 1522.56 4741.71 1519.59 Q4741.71 1515.45 4744.65 1513.04 Q4747.62 1510.63 4752.76 1510.63 Q4757.92 1510.63 4760.86 1513.04 Q4763.8 1515.45 4763.8 1519.59 Q4763.8 1522.56 4762.11 1524.62 Q4760.44 1526.68 4757.45 1527.42 Q4760.83 1528.2 4762.71 1530.5 Q4764.61 1532.79 4764.61 1536.1 Q4764.61 1541.12 4761.53 1543.81 Q4758.47 1546.49 4752.76 1546.49 Q4747.04 1546.49 4743.96 1543.81 Q4740.9 1541.12 4740.9 1536.1 Q4740.9 1532.79 4742.8 1530.5 Q4744.7 1528.2 4748.08 1527.42 M4746.37 1520.03 Q4746.37 1522.72 4748.03 1524.22 Q4749.72 1525.73 4752.76 1525.73 Q4755.77 1525.73 4757.45 1524.22 Q4759.17 1522.72 4759.17 1520.03 Q4759.17 1517.35 4757.45 1515.84 Q4755.77 1514.34 4752.76 1514.34 Q4749.72 1514.34 4748.03 1515.84 Q4746.37 1517.35 4746.37 1520.03 Z" fill="#000000" fill-rule="nonzero" fill-opacity="1" /><path clip-path="url(#clip180)" d="M2347.33 1599.31 L2347.33 1609.44 L2359.39 1609.44 L2359.39 1613.99 L2347.33 1613.99 L2347.33 1633.34 Q2347.33 1637.7 2348.51 1638.94 Q2349.72 1640.18 2353.38 1640.18 L2359.39 1640.18 L2359.39 1645.08 L2353.38 1645.08 Q2346.6 1645.08 2344.02 1642.57 Q2341.44 1640.02 2341.44 1633.34 L2341.44 1613.99 L2337.14 1613.99 L2337.14 1609.44 L2341.44 1609.44 L2341.44 1599.31 L2347.33 1599.31 Z" fill="#000000" fill-rule="nonzero" fill-opacity="1" /><path clip-path="url(#clip180)" d="M2387.27 1595.56 L2400.77 1595.56 L2400.77 1600.11 L2393.13 1600.11 L2393.13 1649.13 L2400.77 1649.13 L2400.77 1653.68 L2387.27 1653.68 L2387.27 1595.56 Z" fill="#000000" fill-rule="nonzero" fill-opacity="1" /><path clip-path="url(#clip180)" d="M2412.64 1658.64 L2412.64 1609.44 L2418.5 1609.44 L2418.5 1631.59 Q2418.5 1636.2 2420.69 1638.56 Q2422.89 1640.91 2427.19 1640.91 Q2431.9 1640.91 2434.25 1638.24 Q2436.64 1635.57 2436.64 1630.22 L2436.64 1609.44 L2442.5 1609.44 L2442.5 1636.87 Q2442.5 1638.78 2443.04 1639.7 Q2443.61 1640.6 2444.79 1640.6 Q2445.07 1640.6 2445.58 1640.44 Q2446.09 1640.25 2446.98 1639.86 L2446.98 1644.57 Q2445.68 1645.31 2444.5 1645.66 Q2443.35 1646.01 2442.24 1646.01 Q2440.04 1646.01 2438.74 1644.77 Q2437.43 1643.52 2436.96 1640.98 Q2435.37 1643.49 2433.04 1644.77 Q2430.75 1646.01 2427.63 1646.01 Q2424.39 1646.01 2422.09 1644.77 Q2419.83 1643.52 2418.5 1641.04 L2418.5 1658.64 L2412.64 1658.64 Z" fill="#000000" fill-rule="nonzero" fill-opacity="1" /><path clip-path="url(#clip180)" d="M2477.44 1610.49 L2477.44 1616.02 Q2474.96 1614.75 2472.29 1614.11 Q2469.61 1613.48 2466.75 1613.48 Q2462.39 1613.48 2460.19 1614.81 Q2458.03 1616.15 2458.03 1618.83 Q2458.03 1620.86 2459.59 1622.04 Q2461.15 1623.19 2465.86 1624.24 L2467.86 1624.68 Q2474.1 1626.02 2476.71 1628.47 Q2479.35 1630.89 2479.35 1635.25 Q2479.35 1640.21 2475.41 1643.11 Q2471.49 1646.01 2464.62 1646.01 Q2461.75 1646.01 2458.63 1645.43 Q2455.55 1644.89 2452.11 1643.78 L2452.11 1637.73 Q2455.35 1639.42 2458.51 1640.28 Q2461.66 1641.11 2464.74 1641.11 Q2468.88 1641.11 2471.11 1639.7 Q2473.34 1638.27 2473.34 1635.69 Q2473.34 1633.31 2471.71 1632.03 Q2470.12 1630.76 2464.68 1629.58 L2462.64 1629.11 Q2457.2 1627.96 2454.78 1625.6 Q2452.36 1623.22 2452.36 1619.08 Q2452.36 1614.05 2455.93 1611.31 Q2459.49 1608.58 2466.05 1608.58 Q2469.3 1608.58 2472.16 1609.05 Q2475.02 1609.53 2477.44 1610.49 Z" fill="#000000" fill-rule="nonzero" fill-opacity="1" /><path clip-path="url(#clip180)" d="M2502.36 1595.56 L2502.36 1653.68 L2488.87 1653.68 L2488.87 1649.13 L2496.48 1649.13 L2496.48 1600.11 L2488.87 1600.11 L2488.87 1595.56 L2502.36 1595.56 Z" fill="#000000" fill-rule="nonzero" fill-opacity="1" /><polyline clip-path="url(#clip180)" style="stroke:#000000; stroke-linecap:round; stroke-linejoin:round; stroke-width:4; stroke-opacity:1; fill:none" points="86.7521,1464.22 86.7521,827.49 "/>
<path clip-path="url(#clip180)" d="M-105.783 1237.62 L-100.309 1237.62 Q-101.677 1240.1 -102.346 1242.61 Q-103.046 1245.1 -103.046 1247.64 Q-103.046 1253.34 -99.4175 1256.49 Q-95.8209 1259.64 -89.296 1259.64 Q-82.7712 1259.64 -79.1427 1256.49 Q-75.5461 1253.34 -75.5461 1247.64 Q-75.5461 1245.1 -76.2145 1242.61 Q-76.9147 1240.1 -78.2834 1237.62 L-72.8725 1237.62 Q-71.7267 1240.07 -71.1538 1242.71 Q-70.5808 1245.32 -70.5808 1248.28 Q-70.5808 1256.33 -75.6416 1261.07 Q-80.7023 1265.82 -89.296 1265.82 Q-98.017 1265.82 -103.014 1261.04 Q-108.011 1256.24 -108.011 1247.9 Q-108.011 1245.19 -107.438 1242.61 Q-106.897 1240.04 -105.783 1237.62 Z" fill="#000000" fill-rule="nonzero" fill-opacity="1" /><path clip-path="url(#clip180)" d="M-89.4233 1211.23 Q-89.4233 1218.33 -87.8001 1221.07 Q-86.1768 1223.8 -82.2619 1223.8 Q-79.1427 1223.8 -77.2967 1221.77 Q-75.4824 1219.7 -75.4824 1216.16 Q-75.4824 1211.29 -78.9199 1208.37 Q-82.3892 1205.41 -88.1184 1205.41 L-89.4233 1205.41 L-89.4233 1211.23 M-91.8423 1199.55 L-71.5039 1199.55 L-71.5039 1205.41 L-76.9147 1205.41 Q-73.6682 1207.41 -72.1086 1210.4 Q-70.5808 1213.4 -70.5808 1217.72 Q-70.5808 1223.2 -73.6364 1226.44 Q-76.7238 1229.66 -81.88 1229.66 Q-87.8956 1229.66 -90.9511 1225.65 Q-94.0066 1221.61 -94.0066 1213.62 L-94.0066 1205.41 L-94.5796 1205.41 Q-98.6218 1205.41 -100.818 1208.08 Q-103.046 1210.72 -103.046 1215.53 Q-103.046 1218.58 -102.314 1221.48 Q-101.582 1224.38 -100.118 1227.05 L-105.529 1227.05 Q-106.77 1223.83 -107.375 1220.81 Q-108.011 1217.79 -108.011 1214.92 Q-108.011 1207.19 -104.001 1203.37 Q-99.9904 1199.55 -91.8423 1199.55 Z" fill="#000000" fill-rule="nonzero" fill-opacity="1" /><path clip-path="url(#clip180)" d="M-93.02 1157.85 L-71.5039 1157.85 L-71.5039 1163.71 L-92.829 1163.71 Q-97.8897 1163.71 -100.404 1165.68 Q-102.919 1167.66 -102.919 1171.6 Q-102.919 1176.35 -99.8949 1179.08 Q-96.8712 1181.82 -91.6513 1181.82 L-71.5039 1181.82 L-71.5039 1187.71 L-107.152 1187.71 L-107.152 1181.82 L-101.614 1181.82 Q-104.828 1179.72 -106.42 1176.89 Q-108.011 1174.02 -108.011 1170.3 Q-108.011 1164.16 -104.192 1161.01 Q-100.404 1157.85 -93.02 1157.85 Z" fill="#000000" fill-rule="nonzero" fill-opacity="1" /><path clip-path="url(#clip180)" d="M-89.4233 1129.97 Q-89.4233 1137.07 -87.8001 1139.81 Q-86.1768 1142.54 -82.2619 1142.54 Q-79.1427 1142.54 -77.2967 1140.51 Q-75.4824 1138.44 -75.4824 1134.91 Q-75.4824 1130.04 -78.9199 1127.11 Q-82.3892 1124.15 -88.1184 1124.15 L-89.4233 1124.15 L-89.4233 1129.97 M-91.8423 1118.29 L-71.5039 1118.29 L-71.5039 1124.15 L-76.9147 1124.15 Q-73.6682 1126.15 -72.1086 1129.14 Q-70.5808 1132.14 -70.5808 1136.47 Q-70.5808 1141.94 -73.6364 1145.19 Q-76.7238 1148.4 -81.88 1148.4 Q-87.8956 1148.4 -90.9511 1144.39 Q-94.0066 1140.35 -94.0066 1132.36 L-94.0066 1124.15 L-94.5796 1124.15 Q-98.6218 1124.15 -100.818 1126.82 Q-103.046 1129.46 -103.046 1134.27 Q-103.046 1137.32 -102.314 1140.22 Q-101.582 1143.12 -100.118 1145.79 L-105.529 1145.79 Q-106.77 1142.58 -107.375 1139.55 Q-108.011 1136.53 -108.011 1133.66 Q-108.011 1125.93 -104.001 1122.11 Q-99.9904 1118.29 -91.8423 1118.29 Z" fill="#000000" fill-rule="nonzero" fill-opacity="1" /><path clip-path="url(#clip180)" d="M-121.029 1106.23 L-121.029 1100.37 L-71.5039 1100.37 L-71.5039 1106.23 L-121.029 1106.23 Z" fill="#000000" fill-rule="nonzero" fill-opacity="1" /><path clip-path="url(#clip180)" d="M-114.663 1047.85 Q-114.663 1054.86 -109.443 1058.99 Q-104.224 1063.1 -95.2161 1063.1 Q-86.2405 1063.1 -81.0206 1058.99 Q-75.8007 1054.86 -75.8007 1047.85 Q-75.8007 1040.85 -81.0206 1036.78 Q-86.2405 1032.67 -95.2161 1032.67 Q-104.224 1032.67 -109.443 1036.78 Q-114.663 1040.85 -114.663 1047.85 M-72.3632 1038.85 L-63.1011 1030.38 L-63.1011 1038.15 L-70.7082 1045.18 Q-70.6445 1046.23 -70.6127 1046.8 Q-70.5808 1047.35 -70.5808 1047.85 Q-70.5808 1057.88 -77.2648 1063.9 Q-83.9807 1069.88 -95.2161 1069.88 Q-106.483 1069.88 -113.167 1063.9 Q-119.883 1057.88 -119.883 1047.85 Q-119.883 1037.86 -113.167 1031.88 Q-106.483 1025.89 -95.2161 1025.89 Q-86.9407 1025.89 -81.0524 1029.24 Q-75.1642 1032.55 -72.3632 1038.85 Z" fill="#000000" fill-rule="nonzero" fill-opacity="1" /><polyline clip-path="url(#clip183)" style="stroke:#009af9; stroke-linecap:round; stroke-linejoin:round; stroke-width:4; stroke-opacity:1; fill:none" points="86.7521,1238.71 186.029,1238.71 186.029,1042.76 285.305,1042.76 285.305,1145.49 384.582,1145.49 384.582,1130 483.859,1130 483.859,1210.75 583.136,1210.75 583.136,1242.7 682.412,1242.7 682.412,1135.53 781.689,1135.53 781.689,1218.7 880.966,1218.7 880.966,1432.71 980.242,1432.71 980.242,1115.52 1079.52,1115.52 1079.52,1158.14 1178.8,1158.14 1178.8,1020.59 1278.07,1020.59 1278.07,1092.79 1377.35,1092.79 1377.35,1181.57 1476.63,1181.57 1476.63,1239.08 1575.9,1239.08 1575.9,1089.47 1675.18,1089.47 1675.18,1149.89 1774.46,1149.89 1774.46,1353.8 1873.73,1353.8 1873.73,1074.7 1973.01,1074.7 1973.01,1154.46 2072.29,1154.46 2072.29,935.04 2171.56,935.04 2171.56,1109.89 2270.84,1109.89 2270.84,963.794 2370.12,963.794 2370.12,1154.4 2469.39,1154.4 2469.39,1212.18 2568.67,1212.18 2568.67,1189.38 2667.95,1189.38 2667.95,1024.23 2767.22,1024.23 2767.22,972.78 2866.5,972.78 2866.5,1140.17 2965.78,1140.17 2965.78,1237.95 3065.05,1237.95 3065.05,1341.89 3164.33,1341.89 3164.33,1174.68 3263.61,1174.68 3263.61,1287.74 3362.88,1287.74 3362.88,1062.3 3462.16,1062.3 3462.16,1149.44 3561.44,1149.44 3561.44,1045.44 3660.71,1045.44 3660.71,1251.98 3759.99,1251.98 3759.99,1231.79 3859.27,1231.79 3859.27,1227.68 3958.54,1227.68 3958.54,1125.87 4057.82,1125.87 4057.82,1111.04 4157.1,1111.04 4157.1,1270.56 4256.37,1270.56 4256.37,1243.54 4355.65,1243.54 4355.65,1055 4454.93,1055 4454.93,1323.98 4554.2,1323.98 4554.2,1030.41 4653.48,1030.41 4653.48,1365.11 4752.76,1365.11 4752.76,1290.51 "/>
</svg>
