<?xml version="1.0" encoding="UTF-8" standalone="no"?>
<svg
   width="385.52979"
   height="344.21201"
   viewBox="0 0 1542.1191 1376.848"
   version="1.1"
   id="svg182"
   sodipodi:docname="compare.svg"
   inkscape:version="1.2.2 (b0a8486541, 2022-12-01)"
   xmlns:inkscape="http://www.inkscape.org/namespaces/inkscape"
   xmlns:sodipodi="http://sodipodi.sourceforge.net/DTD/sodipodi-0.dtd"
   xmlns="http://www.w3.org/2000/svg"
   xmlns:svg="http://www.w3.org/2000/svg">
  <sodipodi:namedview
     id="namedview184"
     pagecolor="#ffffff"
     bordercolor="#000000"
     borderopacity="0.25"
     inkscape:showpageshadow="2"
     inkscape:pageopacity="0.0"
     inkscape:pagecheckerboard="0"
     inkscape:deskcolor="#d1d1d1"
     showgrid="false"
     inkscape:zoom="0.59"
     inkscape:cx="76.271186"
     inkscape:cy="163.55932"
     inkscape:window-width="1680"
     inkscape:window-height="980"
     inkscape:window-x="0"
     inkscape:window-y="0"
     inkscape:window-maximized="1"
     inkscape:current-layer="svg182" />
  <defs
     id="defs5">
    <clipPath
       id="clip830">
      <rect
         x="0"
         y="0"
         width="1600"
         height="1600"
         id="rect2" />
    </clipPath>
  </defs>
  <defs
     id="defs12">
    <clipPath
       id="clip831">
      <rect
         x="320"
         y="160"
         width="1121"
         height="1121"
         id="rect9" />
    </clipPath>
  </defs>
  <path
     clip-path="url(#clip830)"
     d="M 134.272,678.888 H 1552.76 V 153.712 H 134.272 Z"
     fill="#ffffff"
     fill-rule="evenodd"
     fill-opacity="1"
     id="path14"
     transform="translate(-22.4909,-151.712)" />
  <defs
     id="defs19">
    <clipPath
       id="clip832">
      <rect
         x="134"
         y="153"
         width="1419"
         height="526"
         id="rect16" />
    </clipPath>
  </defs>
  <polyline
     clip-path="url(#clip832)"
     style="fill:none;stroke:#000000;stroke-width:2;stroke-linecap:round;stroke-linejoin:round;stroke-opacity:0.1"
     points="134.272,678.888 134.272,153.712 "
     id="polyline21"
     transform="translate(-22.4909,-151.712)" />
  <polyline
     clip-path="url(#clip832)"
     style="fill:none;stroke:#000000;stroke-width:2;stroke-linecap:round;stroke-linejoin:round;stroke-opacity:0.1"
     points="488.893,678.888 488.893,153.712 "
     id="polyline23"
     transform="translate(-22.4909,-151.712)" />
  <polyline
     clip-path="url(#clip832)"
     style="fill:none;stroke:#000000;stroke-width:2;stroke-linecap:round;stroke-linejoin:round;stroke-opacity:0.1"
     points="843.514,678.888 843.514,153.712 "
     id="polyline25"
     transform="translate(-22.4909,-151.712)" />
  <polyline
     clip-path="url(#clip832)"
     style="fill:none;stroke:#000000;stroke-width:2;stroke-linecap:round;stroke-linejoin:round;stroke-opacity:0.1"
     points="1198.13,678.888 1198.13,153.712 "
     id="polyline27"
     transform="translate(-22.4909,-151.712)" />
  <polyline
     clip-path="url(#clip832)"
     style="fill:none;stroke:#000000;stroke-width:2;stroke-linecap:round;stroke-linejoin:round;stroke-opacity:0.1"
     points="1552.76,678.888 1552.76,153.712 "
     id="polyline29"
     transform="translate(-22.4909,-151.712)" />
  <polyline
     clip-path="url(#clip830)"
     style="fill:none;stroke:#000000;stroke-width:4;stroke-linecap:round;stroke-linejoin:round;stroke-opacity:1"
     points="134.272,678.888 1552.76,678.888 "
     id="polyline31"
     transform="translate(-22.4909,-151.712)" />
  <polyline
     clip-path="url(#clip830)"
     style="fill:none;stroke:#000000;stroke-width:4;stroke-linecap:round;stroke-linejoin:round;stroke-opacity:1"
     points="134.272,678.888 134.272,659.99 "
     id="polyline33"
     transform="translate(-22.4909,-151.712)" />
  <polyline
     clip-path="url(#clip830)"
     style="fill:none;stroke:#000000;stroke-width:4;stroke-linecap:round;stroke-linejoin:round;stroke-opacity:1"
     points="488.893,678.888 488.893,659.99 "
     id="polyline35"
     transform="translate(-22.4909,-151.712)" />
  <polyline
     clip-path="url(#clip830)"
     style="fill:none;stroke:#000000;stroke-width:4;stroke-linecap:round;stroke-linejoin:round;stroke-opacity:1"
     points="843.514,678.888 843.514,659.99 "
     id="polyline37"
     transform="translate(-22.4909,-151.712)" />
  <polyline
     clip-path="url(#clip830)"
     style="fill:none;stroke:#000000;stroke-width:4;stroke-linecap:round;stroke-linejoin:round;stroke-opacity:1"
     points="1198.13,678.888 1198.13,659.99 "
     id="polyline39"
     transform="translate(-22.4909,-151.712)" />
  <polyline
     clip-path="url(#clip830)"
     style="fill:none;stroke:#000000;stroke-width:4;stroke-linecap:round;stroke-linejoin:round;stroke-opacity:1"
     points="1552.76,678.888 1552.76,659.99 "
     id="polyline41"
     transform="translate(-22.4909,-151.712)" />
  <path
     clip-path="url(#clip830)"
     d="m 134.272,703.407 q -3.611,0 -5.44,3.564 -1.805,3.542 -1.805,10.672 0,7.106 1.805,10.671 1.829,3.541 5.44,3.541 3.634,0 5.44,-3.541 1.829,-3.565 1.829,-10.671 0,-7.13 -1.829,-10.672 -1.806,-3.564 -5.44,-3.564 m 0,-3.704 q 5.81,0 8.866,4.606 3.079,4.584 3.079,13.334 0,8.726 -3.079,13.333 -3.056,4.583 -8.866,4.583 -5.81,0 -8.889,-4.583 -3.055,-4.607 -3.055,-13.333 0,-8.75 3.055,-13.334 3.079,-4.606 8.889,-4.606 z"
     fill="#000000"
     fill-rule="nonzero"
     fill-opacity="1"
     id="path43"
     transform="translate(-22.4909,-151.712)" />
  <path
     clip-path="url(#clip830)"
     d="m 483.546,730.953 h 16.319 v 3.935 h -21.944 v -3.935 q 2.662,-2.755 7.245,-7.385 4.607,-4.652 5.787,-5.995 2.246,-2.523 3.125,-4.259 0.903,-1.759 0.903,-3.449 0,-2.755 -1.944,-4.491 -1.922,-1.736 -5.024,-1.736 -2.199,0 -4.652,0.764 -2.431,0.764 -5.209,2.315 v -4.722 q 2.824,-1.135 5.278,-1.713 2.454,-0.579 4.491,-0.579 5.37,0 8.565,2.685 3.194,2.685 3.194,7.176 0,2.13 -0.81,4.051 -0.787,1.898 -2.894,4.491 -0.578,0.671 -3.68,3.888 -3.102,3.195 -8.75,8.959 z"
     fill="#000000"
     fill-rule="nonzero"
     fill-opacity="1"
     id="path45"
     transform="translate(-22.4909,-151.712)" />
  <path
     clip-path="url(#clip830)"
     d="m 846.523,704.402 -11.805,18.449 h 11.805 v -18.449 m -1.227,-4.074 h 5.88 v 22.523 h 4.931 v 3.889 h -4.931 v 8.148 h -4.653 v -8.148 h -15.602 v -4.514 z"
     fill="#000000"
     fill-rule="nonzero"
     fill-opacity="1"
     id="path47"
     transform="translate(-22.4909,-151.712)" />
  <path
     clip-path="url(#clip830)"
     d="m 1198.54,715.744 q -3.15,0 -5,2.153 -1.83,2.153 -1.83,5.903 0,3.727 1.83,5.903 1.85,2.152 5,2.152 3.15,0 4.98,-2.152 1.85,-2.176 1.85,-5.903 0,-3.75 -1.85,-5.903 -1.83,-2.153 -4.98,-2.153 m 9.28,-14.652 v 4.259 q -1.76,-0.833 -3.56,-1.273 -1.78,-0.44 -3.54,-0.44 -4.63,0 -7.09,3.125 -2.43,3.125 -2.78,9.444 1.37,-2.013 3.43,-3.078 2.06,-1.088 4.54,-1.088 5.21,0 8.22,3.171 3.03,3.148 3.03,8.588 0,5.324 -3.15,8.542 -3.15,3.217 -8.38,3.217 -6,0 -9.17,-4.583 -3.17,-4.607 -3.17,-13.333 0,-8.195 3.89,-13.056 3.89,-4.884 10.44,-4.884 1.76,0 3.54,0.347 1.81,0.347 3.75,1.042 z"
     fill="#000000"
     fill-rule="nonzero"
     fill-opacity="1"
     id="path49"
     transform="translate(-22.4909,-151.712)" />
  <path
     clip-path="url(#clip830)"
     d="m 1552.76,718.476 q -3.34,0 -5.26,1.782 -1.9,1.783 -1.9,4.908 0,3.125 1.9,4.907 1.92,1.782 5.26,1.782 3.33,0 5.25,-1.782 1.92,-1.805 1.92,-4.907 0,-3.125 -1.92,-4.908 -1.9,-1.782 -5.25,-1.782 m -4.68,-1.991 q -3.01,-0.741 -4.7,-2.801 -1.67,-2.06 -1.67,-5.023 0,-4.143 2.94,-6.551 2.97,-2.407 8.11,-2.407 5.16,0 8.1,2.407 2.94,2.408 2.94,6.551 0,2.963 -1.69,5.023 -1.67,2.06 -4.66,2.801 3.38,0.787 5.26,3.079 1.9,2.292 1.9,5.602 0,5.023 -3.08,7.708 -3.06,2.685 -8.77,2.685 -5.72,0 -8.8,-2.685 -3.06,-2.685 -3.06,-7.708 0,-3.31 1.9,-5.602 1.9,-2.292 5.28,-3.079 m -1.71,-7.384 q 0,2.685 1.66,4.19 1.69,1.504 4.73,1.504 3.01,0 4.69,-1.504 1.72,-1.505 1.72,-4.19 0,-2.685 -1.72,-4.19 -1.68,-1.504 -4.69,-1.504 -3.04,0 -4.73,1.504 -1.66,1.505 -1.66,4.19 z"
     fill="#000000"
     fill-rule="nonzero"
     fill-opacity="1"
     id="path51"
     transform="translate(-22.4909,-151.712)" />
  <polyline
     clip-path="url(#clip830)"
     style="fill:none;stroke:#000000;stroke-width:4;stroke-linecap:round;stroke-linejoin:round;stroke-opacity:1"
     points="134.272,678.888 134.272,153.712 "
     id="polyline53"
     transform="translate(-22.4909,-151.712)" />
  <path
     clip-path="url(#clip830)"
     d="m 37.7368,490.651 h 5.4745 q -1.3686,2.483 -2.037,4.998 -0.7003,2.482 -0.7003,5.028 0,5.698 3.6285,8.849 3.5966,3.151 10.1215,3.151 6.5248,0 10.1533,-3.151 3.5966,-3.151 3.5966,-8.849 0,-2.546 -0.6684,-5.028 -0.7002,-2.515 -2.0689,-4.998 h 5.4109 q 1.1458,2.451 1.7187,5.093 0.573,2.61 0.573,5.57 0,8.053 -5.0608,12.795 -5.0607,4.743 -13.6544,4.743 -8.721,0 -13.7181,-4.775 -4.9971,-4.806 -4.9971,-13.145 0,-2.705 0.5729,-5.283 0.5411,-2.579 1.6551,-4.998 z"
     fill="#000000"
     fill-rule="nonzero"
     fill-opacity="1"
     id="path55"
     transform="translate(-22.4909,-151.712)" />
  <path
     clip-path="url(#clip830)"
     d="m 54.0967,464.266 q 0,7.097 1.6232,9.835 1.6233,2.737 5.5382,2.737 3.1192,0 4.9652,-2.037 1.8143,-2.069 1.8143,-5.602 0,-4.87 -3.4375,-7.798 -3.4693,-2.96 -9.1985,-2.96 h -1.3049 v 5.825 m -2.419,-11.681 h 20.3384 v 5.856 h -5.4108 q 3.2465,2.005 4.8061,4.997 1.5278,2.992 1.5278,7.321 0,5.474 -3.0556,8.721 -3.0874,3.214 -8.2436,3.214 -6.0156,0 -9.0711,-4.01 -3.0555,-4.042 -3.0555,-12.031 v -8.212 h -0.573 q -4.0422,0 -6.2384,2.674 -2.228,2.641 -2.228,7.447 0,3.056 0.7321,5.952 0.7321,2.897 2.1962,5.57 h -5.4109 q -1.2413,-3.214 -1.846,-6.238 -0.6366,-3.024 -0.6366,-5.888 0,-7.735 4.0104,-11.554 4.0104,-3.819 12.1585,-3.819 z"
     fill="#000000"
     fill-rule="nonzero"
     fill-opacity="1"
     id="path57"
     transform="translate(-22.4909,-151.712)" />
  <path
     clip-path="url(#clip830)"
     d="m 50.5,410.889 h 21.5161 v 5.857 H 50.691 q -5.0607,0 -7.5752,1.973 -2.5144,1.973 -2.5144,5.92 0,4.743 3.0237,7.48 3.0237,2.737 8.2436,2.737 h 20.1474 v 5.888 H 36.3682 v -5.888 h 5.5381 q -3.2146,-2.101 -4.8061,-4.933 -1.5914,-2.865 -1.5914,-6.589 0,-6.143 3.8194,-9.294 3.7876,-3.151 11.1718,-3.151 z"
     fill="#000000"
     fill-rule="nonzero"
     fill-opacity="1"
     id="path59"
     transform="translate(-22.4909,-151.712)" />
  <path
     clip-path="url(#clip830)"
     d="m 54.0967,383.007 q 0,7.098 1.6232,9.835 1.6233,2.738 5.5382,2.738 3.1192,0 4.9652,-2.037 1.8143,-2.069 1.8143,-5.602 0,-4.87 -3.4375,-7.798 -3.4693,-2.96 -9.1985,-2.96 h -1.3049 v 5.824 m -2.419,-11.681 h 20.3384 v 5.857 h -5.4108 q 3.2465,2.005 4.8061,4.997 1.5278,2.992 1.5278,7.32 0,5.475 -3.0556,8.721 -3.0874,3.215 -8.2436,3.215 -6.0156,0 -9.0711,-4.01 -3.0555,-4.043 -3.0555,-12.032 v -8.211 h -0.573 q -4.0422,0 -6.2384,2.673 -2.228,2.642 -2.228,7.448 0,3.056 0.7321,5.952 0.7321,2.897 2.1962,5.57 h -5.4109 q -1.2413,-3.215 -1.846,-6.238 -0.6366,-3.024 -0.6366,-5.889 0,-7.734 4.0104,-11.553 4.0104,-3.82 12.1585,-3.82 z"
     fill="#000000"
     fill-rule="nonzero"
     fill-opacity="1"
     id="path61"
     transform="translate(-22.4909,-151.712)" />
  <path
     clip-path="url(#clip830)"
     d="m 22.4909,359.263 v -5.856 h 49.5252 v 5.856 z"
     fill="#000000"
     fill-rule="nonzero"
     fill-opacity="1"
     id="path63"
     transform="translate(-22.4909,-151.712)" />
  <path
     clip-path="url(#clip830)"
     d="m 24.4961,320.178 v -6.43 h 47.52 v 6.43 z"
     fill="#000000"
     fill-rule="nonzero"
     fill-opacity="1"
     id="path65"
     transform="translate(-22.4909,-151.712)" />
  <polyline
     clip-path="url(#clip832)"
     style="fill:none;stroke:#009af9;stroke-width:4;stroke-linecap:round;stroke-linejoin:round;stroke-opacity:1"
     points="134.272,295.947 164.453,295.947 164.453,517.105 194.633,517.105 194.633,423.033 224.814,423.033 224.814,498.471 254.994,498.471 254.994,516.917 285.175,516.917 285.175,235.224 315.355,235.224 315.355,370.658 345.536,370.658 345.536,521.937 375.716,521.937 375.716,342.644 405.897,342.644 405.897,386.235 436.077,386.235 436.077,455.542 466.258,455.542 466.258,325.214 496.438,325.214 496.438,317.83 526.619,317.83 526.619,493.775 556.799,493.775 556.799,469.016 586.98,469.016 586.98,403.244 617.16,403.244 617.16,501.683 647.341,501.683 647.341,256.569 677.521,256.569 677.521,508.361 707.702,508.361 707.702,411.207 737.882,411.207 737.882,403.213 768.063,403.213 768.063,345.51 798.243,345.51 798.243,353.749 828.424,353.749 828.424,520.725 858.604,520.725 858.604,361.594 888.785,361.594 888.785,552.702 918.965,552.702 918.965,638.546 949.146,638.546 949.146,446.195 979.326,446.195 979.326,500.898 1009.51,500.898 1009.51,445.489 1039.69,445.489 1039.69,308.766 1069.87,308.766 1069.87,459.196 1100.05,459.196 1100.05,615.387 1130.23,615.387 1130.23,576.559 1160.41,576.559 1160.41,454.431 1190.59,454.431 1190.59,263.698 1220.77,263.698 1220.77,427.241 1250.95,427.241 1250.95,345.046 1281.13,345.046 1281.13,445.25 1311.31,445.25 1311.31,448.583 1341.49,448.583 1341.49,380.545 1371.67,380.545 1371.67,440.727 1401.85,440.727 1401.85,477.415 1432.03,477.415 1432.03,452.211 1462.21,452.211 1462.21,462.996 1492.39,462.996 1492.39,400.66 1522.58,400.66 1522.58,484.715 1552.76,484.715 1552.76,507.505 "
     id="polyline111"
     transform="translate(-22.4909,-151.712)" />
  <polyline
     clip-path="url(#clip832)"
     style="fill:none;stroke:#e26f46;stroke-width:4;stroke-linecap:round;stroke-linejoin:round;stroke-opacity:1"
     stroke-dasharray="16, 10"
     points="134.272,295.947 164.453,295.947 164.453,517.105 194.633,517.105 194.633,423.033 224.814,423.033 224.814,498.471 254.994,498.471 254.994,516.917 285.175,516.917 285.175,235.224 315.355,235.224 315.355,370.658 345.536,370.658 345.536,521.937 375.716,521.937 375.716,342.644 405.897,342.644 405.897,386.235 436.077,386.235 436.077,455.542 466.258,455.542 466.258,325.214 496.438,325.214 496.438,317.83 526.619,317.83 526.619,493.775 556.799,493.775 556.799,469.016 586.98,469.016 586.98,403.244 617.16,403.244 617.16,501.683 647.341,501.683 647.341,256.569 677.521,256.569 677.521,508.361 707.702,508.361 707.702,411.207 737.882,411.207 737.882,403.213 768.063,403.213 768.063,345.51 798.243,345.51 798.243,353.749 828.424,353.749 828.424,520.725 858.604,520.725 858.604,361.594 888.785,361.594 888.785,552.702 918.965,552.702 918.965,638.546 949.146,638.546 949.146,446.195 979.326,446.195 979.326,500.898 1009.51,500.898 1009.51,445.489 1039.69,445.489 1039.69,308.766 1069.87,308.766 1069.87,459.196 1100.05,459.196 1100.05,615.387 1130.23,615.387 1130.23,576.559 1160.41,576.559 1160.41,454.431 1190.59,454.431 1190.59,263.698 1220.77,263.698 1220.77,427.241 1250.95,427.241 1250.95,345.046 1281.13,345.046 1281.13,445.25 1311.31,445.25 1311.31,448.583 1341.49,448.583 1341.49,380.545 1371.67,380.545 1371.67,440.727 1401.85,440.727 1401.85,477.415 1432.03,477.415 1432.03,452.211 1462.21,452.211 1462.21,462.996 1492.39,462.996 1492.39,400.66 1522.58,400.66 1522.58,484.715 1552.76,484.715 1552.76,507.505 "
     id="polyline113"
     transform="translate(-22.4909,-151.712)" />
  <path
     clip-path="url(#clip830)"
     d="M 134.272,1382.14 H 1552.76 V 856.964 H 134.272 Z"
     fill="#ffffff"
     fill-rule="evenodd"
     fill-opacity="1"
     id="path115"
     transform="translate(-22.4909,-151.712)" />
  <defs
     id="defs120">
    <clipPath
       id="clip833">
      <rect
         x="134"
         y="856"
         width="1419"
         height="526"
         id="rect117" />
    </clipPath>
  </defs>
  <polyline
     clip-path="url(#clip833)"
     style="fill:none;stroke:#000000;stroke-width:2;stroke-linecap:round;stroke-linejoin:round;stroke-opacity:0.1"
     points="134.272,1382.14 134.272,856.964 "
     id="polyline122"
     transform="translate(-22.4909,-151.712)" />
  <polyline
     clip-path="url(#clip833)"
     style="fill:none;stroke:#000000;stroke-width:2;stroke-linecap:round;stroke-linejoin:round;stroke-opacity:0.1"
     points="488.893,1382.14 488.893,856.964 "
     id="polyline124"
     transform="translate(-22.4909,-151.712)" />
  <polyline
     clip-path="url(#clip833)"
     style="fill:none;stroke:#000000;stroke-width:2;stroke-linecap:round;stroke-linejoin:round;stroke-opacity:0.1"
     points="843.514,1382.14 843.514,856.964 "
     id="polyline126"
     transform="translate(-22.4909,-151.712)" />
  <polyline
     clip-path="url(#clip833)"
     style="fill:none;stroke:#000000;stroke-width:2;stroke-linecap:round;stroke-linejoin:round;stroke-opacity:0.1"
     points="1198.13,1382.14 1198.13,856.964 "
     id="polyline128"
     transform="translate(-22.4909,-151.712)" />
  <polyline
     clip-path="url(#clip833)"
     style="fill:none;stroke:#000000;stroke-width:2;stroke-linecap:round;stroke-linejoin:round;stroke-opacity:0.1"
     points="1552.76,1382.14 1552.76,856.964 "
     id="polyline130"
     transform="translate(-22.4909,-151.712)" />
  <polyline
     clip-path="url(#clip830)"
     style="fill:none;stroke:#000000;stroke-width:4;stroke-linecap:round;stroke-linejoin:round;stroke-opacity:1"
     points="134.272,1382.14 1552.76,1382.14 "
     id="polyline132"
     transform="translate(-22.4909,-151.712)" />
  <polyline
     clip-path="url(#clip830)"
     style="fill:none;stroke:#000000;stroke-width:4;stroke-linecap:round;stroke-linejoin:round;stroke-opacity:1"
     points="134.272,1382.14 134.272,1363.24 "
     id="polyline134"
     transform="translate(-22.4909,-151.712)" />
  <polyline
     clip-path="url(#clip830)"
     style="fill:none;stroke:#000000;stroke-width:4;stroke-linecap:round;stroke-linejoin:round;stroke-opacity:1"
     points="488.893,1382.14 488.893,1363.24 "
     id="polyline136"
     transform="translate(-22.4909,-151.712)" />
  <polyline
     clip-path="url(#clip830)"
     style="fill:none;stroke:#000000;stroke-width:4;stroke-linecap:round;stroke-linejoin:round;stroke-opacity:1"
     points="843.514,1382.14 843.514,1363.24 "
     id="polyline138"
     transform="translate(-22.4909,-151.712)" />
  <polyline
     clip-path="url(#clip830)"
     style="fill:none;stroke:#000000;stroke-width:4;stroke-linecap:round;stroke-linejoin:round;stroke-opacity:1"
     points="1198.13,1382.14 1198.13,1363.24 "
     id="polyline140"
     transform="translate(-22.4909,-151.712)" />
  <polyline
     clip-path="url(#clip830)"
     style="fill:none;stroke:#000000;stroke-width:4;stroke-linecap:round;stroke-linejoin:round;stroke-opacity:1"
     points="1552.76,1382.14 1552.76,1363.24 "
     id="polyline142"
     transform="translate(-22.4909,-151.712)" />
  <path
     clip-path="url(#clip830)"
     d="m 134.272,1406.66 q -3.611,0 -5.44,3.56 -1.805,3.54 -1.805,10.67 0,7.11 1.805,10.68 1.829,3.54 5.44,3.54 3.634,0 5.44,-3.54 1.829,-3.57 1.829,-10.68 0,-7.13 -1.829,-10.67 -1.806,-3.56 -5.44,-3.56 m 0,-3.71 q 5.81,0 8.866,4.61 3.079,4.58 3.079,13.33 0,8.73 -3.079,13.34 -3.056,4.58 -8.866,4.58 -5.81,0 -8.889,-4.58 -3.055,-4.61 -3.055,-13.34 0,-8.75 3.055,-13.33 3.079,-4.61 8.889,-4.61 z"
     fill="#000000"
     fill-rule="nonzero"
     fill-opacity="1"
     id="path144"
     transform="translate(-22.4909,-151.712)" />
  <path
     clip-path="url(#clip830)"
     d="m 483.546,1434.2 h 16.319 v 3.94 h -21.944 v -3.94 q 2.662,-2.75 7.245,-7.38 4.607,-4.65 5.787,-5.99 2.246,-2.53 3.125,-4.26 0.903,-1.76 0.903,-3.45 0,-2.76 -1.944,-4.49 -1.922,-1.74 -5.024,-1.74 -2.199,0 -4.652,0.76 -2.431,0.77 -5.209,2.32 v -4.72 q 2.824,-1.14 5.278,-1.72 2.454,-0.58 4.491,-0.58 5.37,0 8.565,2.69 3.194,2.69 3.194,7.18 0,2.13 -0.81,4.05 -0.787,1.89 -2.894,4.49 -0.578,0.67 -3.68,3.89 -3.102,3.19 -8.75,8.95 z"
     fill="#000000"
     fill-rule="nonzero"
     fill-opacity="1"
     id="path146"
     transform="translate(-22.4909,-151.712)" />
  <path
     clip-path="url(#clip830)"
     d="m 846.523,1407.65 -11.805,18.45 h 11.805 v -18.45 m -1.227,-4.07 h 5.88 v 22.52 h 4.931 v 3.89 h -4.931 v 8.15 h -4.653 v -8.15 h -15.602 v -4.51 z"
     fill="#000000"
     fill-rule="nonzero"
     fill-opacity="1"
     id="path148"
     transform="translate(-22.4909,-151.712)" />
  <path
     clip-path="url(#clip830)"
     d="m 1198.54,1419 q -3.15,0 -5,2.15 -1.83,2.15 -1.83,5.9 0,3.73 1.83,5.9 1.85,2.16 5,2.16 3.15,0 4.98,-2.16 1.85,-2.17 1.85,-5.9 0,-3.75 -1.85,-5.9 -1.83,-2.15 -4.98,-2.15 m 9.28,-14.66 v 4.26 q -1.76,-0.83 -3.56,-1.27 -1.78,-0.44 -3.54,-0.44 -4.63,0 -7.09,3.12 -2.43,3.13 -2.78,9.45 1.37,-2.01 3.43,-3.08 2.06,-1.09 4.54,-1.09 5.21,0 8.22,3.17 3.03,3.15 3.03,8.59 0,5.33 -3.15,8.54 -3.15,3.22 -8.38,3.22 -6,0 -9.17,-4.58 -3.17,-4.61 -3.17,-13.34 0,-8.19 3.89,-13.05 3.89,-4.89 10.44,-4.89 1.76,0 3.54,0.35 1.81,0.35 3.75,1.04 z"
     fill="#000000"
     fill-rule="nonzero"
     fill-opacity="1"
     id="path150"
     transform="translate(-22.4909,-151.712)" />
  <path
     clip-path="url(#clip830)"
     d="m 1552.76,1421.73 q -3.34,0 -5.26,1.78 -1.9,1.78 -1.9,4.91 0,3.12 1.9,4.91 1.92,1.78 5.26,1.78 3.33,0 5.25,-1.78 1.92,-1.81 1.92,-4.91 0,-3.13 -1.92,-4.91 -1.9,-1.78 -5.25,-1.78 m -4.68,-1.99 q -3.01,-0.74 -4.7,-2.8 -1.67,-2.06 -1.67,-5.03 0,-4.14 2.94,-6.55 2.97,-2.41 8.11,-2.41 5.16,0 8.1,2.41 2.94,2.41 2.94,6.55 0,2.97 -1.69,5.03 -1.67,2.06 -4.66,2.8 3.38,0.78 5.26,3.08 1.9,2.29 1.9,5.6 0,5.02 -3.08,7.71 -3.06,2.68 -8.77,2.68 -5.72,0 -8.8,-2.68 -3.06,-2.69 -3.06,-7.71 0,-3.31 1.9,-5.6 1.9,-2.3 5.28,-3.08 m -1.71,-7.39 q 0,2.69 1.66,4.19 1.69,1.51 4.73,1.51 3.01,0 4.69,-1.51 1.72,-1.5 1.72,-4.19 0,-2.68 -1.72,-4.19 -1.68,-1.5 -4.69,-1.5 -3.04,0 -4.73,1.5 -1.66,1.51 -1.66,4.19 z"
     fill="#000000"
     fill-rule="nonzero"
     fill-opacity="1"
     id="path152"
     transform="translate(-22.4909,-151.712)" />
  <path
     clip-path="url(#clip830)"
     d="m 771.088,1469.23 v 10.13 h 12.063 v 4.55 h -12.063 v 19.35 q 0,4.36 1.178,5.6 1.209,1.24 4.87,1.24 h 6.015 v 4.9 h -6.015 q -6.78,0 -9.358,-2.51 -2.578,-2.55 -2.578,-9.23 v -19.35 h -4.297 v -4.55 h 4.297 v -10.13 z"
     fill="#000000"
     fill-rule="nonzero"
     fill-opacity="1"
     id="path154"
     transform="translate(-22.4909,-151.712)" />
  <path
     clip-path="url(#clip830)"
     d="m 811.033,1465.48 h 13.495 v 4.55 h -7.639 v 49.02 h 7.639 v 4.55 h -13.495 z"
     fill="#000000"
     fill-rule="nonzero"
     fill-opacity="1"
     id="path156"
     transform="translate(-22.4909,-151.712)" />
  <path
     clip-path="url(#clip830)"
     d="m 836.4,1528.56 v -49.2 h 5.857 v 22.15 q 0,4.61 2.196,6.97 2.196,2.35 6.493,2.35 4.711,0 7.066,-2.67 2.387,-2.67 2.387,-8.02 v -20.78 h 5.857 v 27.43 q 0,1.91 0.541,2.83 0.573,0.9 1.75,0.9 0.287,0 0.796,-0.16 0.509,-0.19 1.4,-0.58 v 4.71 q -1.305,0.74 -2.482,1.09 -1.146,0.35 -2.26,0.35 -2.196,0 -3.501,-1.24 -1.305,-1.25 -1.783,-3.79 -1.591,2.51 -3.915,3.79 -2.291,1.24 -5.41,1.24 -3.247,0 -5.539,-1.24 -2.259,-1.25 -3.596,-3.73 v 17.6 z"
     fill="#000000"
     fill-rule="nonzero"
     fill-opacity="1"
     id="path158"
     transform="translate(-22.4909,-151.712)" />
  <path
     clip-path="url(#clip830)"
     d="m 901.203,1480.41 v 5.53 q -2.482,-1.27 -5.156,-1.91 -2.674,-0.63 -5.538,-0.63 -4.361,0 -6.557,1.33 -2.164,1.34 -2.164,4.02 0,2.03 1.559,3.21 1.56,1.15 6.271,2.2 l 2.005,0.44 q 6.238,1.34 8.848,3.79 2.642,2.42 2.642,6.78 0,4.96 -3.947,7.86 -3.915,2.9 -10.79,2.9 -2.864,0 -5.983,-0.58 -3.088,-0.54 -6.525,-1.65 v -6.05 q 3.246,1.69 6.397,2.55 3.151,0.83 6.239,0.83 4.137,0 6.365,-1.41 2.228,-1.43 2.228,-4.01 0,-2.38 -1.623,-3.66 -1.591,-1.27 -7.034,-2.45 l -2.037,-0.47 q -5.443,-1.15 -7.862,-3.51 -2.419,-2.38 -2.419,-6.52 0,-5.03 3.565,-7.77 3.565,-2.73 10.122,-2.73 3.246,0 6.111,0.47 2.864,0.48 5.283,1.44 z"
     fill="#000000"
     fill-rule="nonzero"
     fill-opacity="1"
     id="path160"
     transform="translate(-22.4909,-151.712)" />
  <path
     clip-path="url(#clip830)"
     d="m 926.125,1465.48 v 58.12 H 912.63 v -4.55 h 7.607 v -49.02 h -7.607 v -4.55 z"
     fill="#000000"
     fill-rule="nonzero"
     fill-opacity="1"
     id="path162"
     transform="translate(-22.4909,-151.712)" />
  <polyline
     clip-path="url(#clip830)"
     style="fill:none;stroke:#000000;stroke-width:4;stroke-linecap:round;stroke-linejoin:round;stroke-opacity:1"
     points="134.272,1382.14 134.272,856.964 "
     id="polyline164"
     transform="translate(-22.4909,-151.712)" />
  <path
     clip-path="url(#clip830)"
     d="m 37.7368,1211.31 h 5.4745 q -1.3686,2.49 -2.037,5 -0.7003,2.48 -0.7003,5.03 0,5.7 3.6285,8.85 3.5966,3.15 10.1215,3.15 6.5248,0 10.1533,-3.15 3.5966,-3.15 3.5966,-8.85 0,-2.55 -0.6684,-5.03 -0.7002,-2.51 -2.0689,-5 h 5.4109 q 1.1458,2.45 1.7187,5.1 0.573,2.61 0.573,5.57 0,8.05 -5.0608,12.79 -5.0607,4.74 -13.6544,4.74 -8.721,0 -13.7181,-4.77 -4.9971,-4.81 -4.9971,-13.15 0,-2.7 0.5729,-5.28 0.5411,-2.58 1.6551,-5 z"
     fill="#000000"
     fill-rule="nonzero"
     fill-opacity="1"
     id="path166"
     transform="translate(-22.4909,-151.712)" />
  <path
     clip-path="url(#clip830)"
     d="m 54.0967,1184.93 q 0,7.1 1.6232,9.83 1.6233,2.74 5.5382,2.74 3.1192,0 4.9652,-2.04 1.8143,-2.07 1.8143,-5.6 0,-4.87 -3.4375,-7.8 -3.4693,-2.96 -9.1985,-2.96 h -1.3049 v 5.83 m -2.419,-11.68 h 20.3384 v 5.85 h -5.4108 q 3.2465,2.01 4.8061,5 1.5278,2.99 1.5278,7.32 0,5.48 -3.0556,8.72 -3.0874,3.22 -8.2436,3.22 -6.0156,0 -9.0711,-4.01 -3.0555,-4.05 -3.0555,-12.04 v -8.21 h -0.573 q -4.0422,0 -6.2384,2.68 -2.228,2.64 -2.228,7.44 0,3.06 0.7321,5.96 0.7321,2.89 2.1962,5.57 h -5.4109 q -1.2413,-3.22 -1.846,-6.24 -0.6366,-3.03 -0.6366,-5.89 0,-7.73 4.0104,-11.55 4.0104,-3.82 12.1585,-3.82 z"
     fill="#000000"
     fill-rule="nonzero"
     fill-opacity="1"
     id="path168"
     transform="translate(-22.4909,-151.712)" />
  <path
     clip-path="url(#clip830)"
     d="m 50.5,1131.55 h 21.5161 v 5.86 H 50.691 q -5.0607,0 -7.5752,1.97 -2.5144,1.97 -2.5144,5.92 0,4.74 3.0237,7.48 3.0237,2.74 8.2436,2.74 h 20.1474 v 5.89 H 36.3682 v -5.89 h 5.5381 q -3.2146,-2.1 -4.8061,-4.94 -1.5914,-2.86 -1.5914,-6.58 0,-6.15 3.8194,-9.3 3.7876,-3.15 11.1718,-3.15 z"
     fill="#000000"
     fill-rule="nonzero"
     fill-opacity="1"
     id="path170"
     transform="translate(-22.4909,-151.712)" />
  <path
     clip-path="url(#clip830)"
     d="m 54.0967,1103.67 q 0,7.1 1.6232,9.83 1.6233,2.74 5.5382,2.74 3.1192,0 4.9652,-2.04 1.8143,-2.06 1.8143,-5.6 0,-4.87 -3.4375,-7.8 -3.4693,-2.96 -9.1985,-2.96 h -1.3049 v 5.83 m -2.419,-11.68 h 20.3384 v 5.85 h -5.4108 q 3.2465,2.01 4.8061,5 1.5278,2.99 1.5278,7.32 0,5.48 -3.0556,8.72 -3.0874,3.22 -8.2436,3.22 -6.0156,0 -9.0711,-4.01 -3.0555,-4.04 -3.0555,-12.03 v -8.22 h -0.573 q -4.0422,0 -6.2384,2.68 -2.228,2.64 -2.228,7.45 0,3.05 0.7321,5.95 0.7321,2.89 2.1962,5.57 h -5.4109 q -1.2413,-3.22 -1.846,-6.24 -0.6366,-3.02 -0.6366,-5.89 0,-7.73 4.0104,-11.55 4.0104,-3.82 12.1585,-3.82 z"
     fill="#000000"
     fill-rule="nonzero"
     fill-opacity="1"
     id="path172"
     transform="translate(-22.4909,-151.712)" />
  <path
     clip-path="url(#clip830)"
     d="m 22.4909,1079.93 v -5.86 h 49.5252 v 5.86 z"
     fill="#000000"
     fill-rule="nonzero"
     fill-opacity="1"
     id="path174"
     transform="translate(-22.4909,-151.712)" />
  <path
     clip-path="url(#clip830)"
     d="m 28.8566,1021.55 q 0,7 5.2199,11.14 5.2199,4.11 14.2274,4.11 8.9756,0 14.1955,-4.11 5.2199,-4.14 5.2199,-11.14 0,-7 -5.2199,-11.07 -5.2199,-4.11 -14.1955,-4.11 -9.0075,0 -14.2274,4.11 -5.2199,4.07 -5.2199,11.07 m 42.3002,-9.01 9.2621,-8.46 v 7.76 l -7.6071,7.04 q 0.0637,1.05 0.0955,1.62 0.0319,0.54 0.0319,1.05 0,10.03 -6.684,16.04 -6.7159,5.99 -17.9513,5.99 -11.2673,0 -17.9513,-5.99 -6.7158,-6.01 -6.7158,-16.04 0,-9.99 6.7158,-15.98 6.684,-5.98 17.9513,-5.98 8.2754,0 14.1637,3.34 5.8882,3.31 8.6892,9.61 z"
     fill="#000000"
     fill-rule="nonzero"
     fill-opacity="1"
     id="path176"
     transform="translate(-22.4909,-151.712)" />
  <polyline
     clip-path="url(#clip833)"
     style="fill:none;stroke:#009af9;stroke-width:4;stroke-linecap:round;stroke-linejoin:round;stroke-opacity:1"
     points="134.272,1207.08 164.453,1207.08 164.453,1175.58 194.633,1175.58 194.633,1203.24 224.814,1203.24 224.814,1041.54 254.994,1041.54 254.994,1152.38 285.175,1152.38 285.175,1162.19 315.355,1162.19 315.355,1062.97 345.536,1062.97 345.536,1169.42 375.716,1169.42 375.716,1083.8 405.897,1083.8 405.897,1042.22 436.077,1042.22 436.077,1072.5 466.258,1072.5 466.258,1137.38 496.438,1137.38 496.438,1119.55 526.619,1119.55 526.619,1157.14 556.799,1157.14 556.799,1113.34 586.98,1113.34 586.98,1010.76 617.16,1010.76 617.16,1127.56 647.341,1127.56 647.341,1086.76 677.521,1086.76 677.521,1078.44 707.702,1078.44 707.702,1195.04 737.882,1195.04 737.882,1152.38 768.063,1152.38 768.063,1220.66 798.243,1220.66 798.243,989.553 828.424,989.553 828.424,1158.05 858.604,1158.05 858.604,1228.96 888.785,1228.96 888.785,1230.79 918.965,1230.79 918.965,1030 949.146,1030 949.146,1103.63 979.326,1103.63 979.326,1048.83 1009.51,1048.83 1009.51,1082.5 1039.69,1082.5 1039.69,1001.08 1069.87,1001.08 1069.87,1120.42 1100.05,1120.42 1100.05,1089.66 1130.23,1089.66 1130.23,1185.17 1160.41,1185.17 1160.41,1084.94 1190.59,1084.94 1190.59,1297.11 1220.77,1297.11 1220.77,922.611 1250.95,922.611 1250.95,1018.24 1281.13,1018.24 1281.13,1016.35 1311.31,1016.35 1311.31,1103.46 1341.49,1103.46 1341.49,1045.9 1371.67,1045.9 1371.67,1174.5 1401.85,1174.5 1401.85,985.603 1432.03,985.603 1432.03,857.738 1462.21,857.738 1462.21,1124.63 1492.39,1124.63 1492.39,1161.45 1522.58,1161.45 1522.58,1140.14 1552.76,1140.14 1552.76,977.486 "
     id="polyline178"
     transform="translate(-22.4909,-151.712)" />
  <polyline
     clip-path="url(#clip833)"
     style="fill:none;stroke:#e26f46;stroke-width:4;stroke-linecap:round;stroke-linejoin:round;stroke-opacity:1"
     stroke-dasharray="16, 10"
     points="134.272,1207.08 164.453,1207.08 164.453,1175.58 194.633,1175.58 194.633,1203.24 224.814,1203.24 224.814,1041.54 254.994,1041.54 254.994,1152.38 285.175,1152.38 285.175,1162.19 315.355,1162.19 315.355,1062.97 345.536,1062.97 345.536,1169.42 375.716,1169.42 375.716,1083.8 405.897,1083.8 405.897,1042.22 436.077,1042.22 436.077,1072.5 466.258,1072.5 466.258,1137.38 496.438,1137.38 496.438,1119.55 526.619,1119.55 526.619,1157.14 556.799,1157.14 556.799,1113.34 586.98,1113.34 586.98,1010.76 617.16,1010.76 617.16,1127.56 647.341,1127.56 647.341,1086.76 677.521,1086.76 677.521,1078.44 707.702,1078.44 707.702,1195.04 737.882,1195.04 737.882,1152.38 768.063,1152.38 768.063,1220.66 798.243,1220.66 798.243,989.553 828.424,989.553 828.424,1158.05 858.604,1158.05 858.604,1228.96 888.785,1228.96 888.785,1230.79 918.965,1230.79 918.965,1030 949.146,1030 949.146,1103.63 979.326,1103.63 979.326,1048.83 1009.51,1048.83 1009.51,1082.5 1039.69,1082.5 1039.69,1001.08 1069.87,1001.08 1069.87,1120.42 1100.05,1120.42 1100.05,1089.66 1130.23,1089.66 1130.23,1185.17 1160.41,1185.17 1160.41,1084.94 1190.59,1084.94 1190.59,1297.11 1220.77,1297.11 1220.77,922.611 1250.95,922.611 1250.95,1018.24 1281.13,1018.24 1281.13,1016.35 1311.31,1016.35 1311.31,1103.46 1341.49,1103.46 1341.49,1045.9 1371.67,1045.9 1371.67,1174.5 1401.85,1174.5 1401.85,985.603 1432.03,985.603 1432.03,857.738 1462.21,857.738 1462.21,1124.63 1492.39,1124.63 1492.39,1161.45 1522.58,1161.45 1522.58,1140.14 1552.76,1140.14 1552.76,977.486 "
     id="polyline180"
     transform="translate(-22.4909,-151.712)" />
</svg>
