<?xml version="1.0" encoding="utf-8" standalone="no"?>
<!DOCTYPE svg PUBLIC "-//W3C//DTD SVG 1.1//EN"
  "http://www.w3.org/Graphics/SVG/1.1/DTD/svg11.dtd">
<svg xmlns:xlink="http://www.w3.org/1999/xlink" width="864pt" height="288pt" viewBox="0 0 864 288" xmlns="http://www.w3.org/2000/svg" version="1.1">
 <metadata>
  <rdf:RDF xmlns:dc="http://purl.org/dc/elements/1.1/" xmlns:cc="http://creativecommons.org/ns#" xmlns:rdf="http://www.w3.org/1999/02/22-rdf-syntax-ns#">
   <cc:Work>
    <dc:type rdf:resource="http://purl.org/dc/dcmitype/StillImage"/>
    <dc:date>2023-06-13T10:44:28.966658</dc:date>
    <dc:format>image/svg+xml</dc:format>
    <dc:creator>
     <cc:Agent>
      <dc:title>Matplotlib v3.7.1, https://matplotlib.org/</dc:title>
     </cc:Agent>
    </dc:creator>
   </cc:Work>
  </rdf:RDF>
 </metadata>
 <defs>
  <style type="text/css">*{stroke-linejoin: round; stroke-linecap: butt}</style>
 </defs>
 <g id="figure_1">
  <g id="patch_1">
   <path d="M 0 288 
L 864 288 
L 864 0 
L 0 0 
z
" style="fill: #ffffff"/>
  </g>
  <g id="axes_1">
   <g id="patch_2">
    <path d="M 16.914646 121.985354 
L 858.150354 121.985354 
L 858.150354 2.834646 
L 16.914646 2.834646 
z
" style="fill: #ffffff"/>
   </g>
   <g id="matplotlib.axis_1">
    <g id="xtick_1">
     <g id="line2d_1">
      <path d="M 16.914646 121.985354 
L 16.914646 2.834646 
" clip-path="url(#pddb3ea457e)" style="fill: none; stroke: #000000; stroke-opacity: 0.1; stroke-width: 0.5; stroke-linecap: square"/>
     </g>
     <g id="line2d_2">
      <defs>
       <path id="mcac7d1430c" d="M 0 0 
L 0 -2.5 
" style="stroke: #000000; stroke-width: 0.5"/>
      </defs>
      <g>
       <use xlink:href="#mcac7d1430c" x="16.914646" y="121.985354" style="stroke: #000000; stroke-width: 0.5"/>
      </g>
     </g>
     <g id="text_1">
      <!-- $0$ -->
      <g transform="translate(14.354646 131.564104) scale(0.08 -0.08)">
       <defs>
        <path id="DejaVuSerif-30" d="M 2034 219 
Q 2513 219 2750 744 
Q 2988 1269 2988 2328 
Q 2988 3391 2750 3916 
Q 2513 4441 2034 4441 
Q 1556 4441 1318 3916 
Q 1081 3391 1081 2328 
Q 1081 1269 1318 744 
Q 1556 219 2034 219 
z
M 2034 -91 
Q 1275 -91 848 546 
Q 422 1184 422 2328 
Q 422 3475 848 4112 
Q 1275 4750 2034 4750 
Q 2797 4750 3222 4112 
Q 3647 3475 3647 2328 
Q 3647 1184 3222 546 
Q 2797 -91 2034 -91 
z
" transform="scale(0.015625)"/>
       </defs>
       <use xlink:href="#DejaVuSerif-30" transform="translate(0 0.78125)"/>
      </g>
     </g>
    </g>
    <g id="xtick_2">
     <g id="line2d_3">
      <path d="M 227.223573 121.985354 
L 227.223573 2.834646 
" clip-path="url(#pddb3ea457e)" style="fill: none; stroke: #000000; stroke-opacity: 0.1; stroke-width: 0.5; stroke-linecap: square"/>
     </g>
     <g id="line2d_4">
      <g>
       <use xlink:href="#mcac7d1430c" x="227.223573" y="121.985354" style="stroke: #000000; stroke-width: 0.5"/>
      </g>
     </g>
     <g id="text_2">
      <!-- $2$ -->
      <g transform="translate(224.663573 131.564104) scale(0.08 -0.08)">
       <defs>
        <path id="DejaVuSerif-32" d="M 819 3553 
L 469 3553 
L 469 4384 
Q 803 4563 1142 4656 
Q 1481 4750 1806 4750 
Q 2534 4750 2956 4397 
Q 3378 4044 3378 3438 
Q 3378 2753 2422 1800 
Q 2347 1728 2309 1691 
L 1131 513 
L 3078 513 
L 3078 1088 
L 3444 1088 
L 3444 0 
L 434 0 
L 434 341 
L 1850 1753 
Q 2319 2222 2519 2614 
Q 2719 3006 2719 3438 
Q 2719 3909 2473 4175 
Q 2228 4441 1797 4441 
Q 1350 4441 1106 4219 
Q 863 3997 819 3553 
z
" transform="scale(0.015625)"/>
       </defs>
       <use xlink:href="#DejaVuSerif-32" transform="translate(0 0.78125)"/>
      </g>
     </g>
    </g>
    <g id="xtick_3">
     <g id="line2d_5">
      <path d="M 437.5325 121.985354 
L 437.5325 2.834646 
" clip-path="url(#pddb3ea457e)" style="fill: none; stroke: #000000; stroke-opacity: 0.1; stroke-width: 0.5; stroke-linecap: square"/>
     </g>
     <g id="line2d_6">
      <g>
       <use xlink:href="#mcac7d1430c" x="437.5325" y="121.985354" style="stroke: #000000; stroke-width: 0.5"/>
      </g>
     </g>
     <g id="text_3">
      <!-- $4$ -->
      <g transform="translate(434.9725 131.564104) scale(0.08 -0.08)">
       <defs>
        <path id="DejaVuSerif-34" d="M 2234 1581 
L 2234 4063 
L 641 1581 
L 2234 1581 
z
M 3609 0 
L 1484 0 
L 1484 331 
L 2234 331 
L 2234 1247 
L 197 1247 
L 197 1588 
L 2241 4750 
L 2859 4750 
L 2859 1581 
L 3750 1581 
L 3750 1247 
L 2859 1247 
L 2859 331 
L 3609 331 
L 3609 0 
z
" transform="scale(0.015625)"/>
       </defs>
       <use xlink:href="#DejaVuSerif-34" transform="translate(0 0.78125)"/>
      </g>
     </g>
    </g>
    <g id="xtick_4">
     <g id="line2d_7">
      <path d="M 647.841427 121.985354 
L 647.841427 2.834646 
" clip-path="url(#pddb3ea457e)" style="fill: none; stroke: #000000; stroke-opacity: 0.1; stroke-width: 0.5; stroke-linecap: square"/>
     </g>
     <g id="line2d_8">
      <g>
       <use xlink:href="#mcac7d1430c" x="647.841427" y="121.985354" style="stroke: #000000; stroke-width: 0.5"/>
      </g>
     </g>
     <g id="text_4">
      <!-- $6$ -->
      <g transform="translate(645.281427 131.564104) scale(0.08 -0.08)">
       <defs>
        <path id="DejaVuSerif-36" d="M 2094 219 
Q 2534 219 2771 542 
Q 3009 866 3009 1472 
Q 3009 2078 2771 2401 
Q 2534 2725 2094 2725 
Q 1647 2725 1412 2412 
Q 1178 2100 1178 1509 
Q 1178 888 1415 553 
Q 1653 219 2094 219 
z
M 1075 2569 
Q 1288 2803 1556 2918 
Q 1825 3034 2163 3034 
Q 2859 3034 3264 2615 
Q 3669 2197 3669 1472 
Q 3669 763 3233 336 
Q 2797 -91 2069 -91 
Q 1278 -91 853 498 
Q 428 1088 428 2181 
Q 428 3406 931 4078 
Q 1434 4750 2350 4750 
Q 2597 4750 2869 4703 
Q 3141 4656 3425 4563 
L 3425 3794 
L 3072 3794 
Q 3034 4109 2831 4275 
Q 2628 4441 2284 4441 
Q 1678 4441 1381 3981 
Q 1084 3522 1075 2569 
z
" transform="scale(0.015625)"/>
       </defs>
       <use xlink:href="#DejaVuSerif-36" transform="translate(0 0.78125)"/>
      </g>
     </g>
    </g>
    <g id="xtick_5">
     <g id="line2d_9">
      <path d="M 858.150354 121.985354 
L 858.150354 2.834646 
" clip-path="url(#pddb3ea457e)" style="fill: none; stroke: #000000; stroke-opacity: 0.1; stroke-width: 0.5; stroke-linecap: square"/>
     </g>
     <g id="line2d_10">
      <g>
       <use xlink:href="#mcac7d1430c" x="858.150354" y="121.985354" style="stroke: #000000; stroke-width: 0.5"/>
      </g>
     </g>
     <g id="text_5">
      <!-- $8$ -->
      <g transform="translate(855.590354 131.564104) scale(0.08 -0.08)">
       <defs>
        <path id="DejaVuSerif-38" d="M 2981 1275 
Q 2981 1775 2732 2051 
Q 2484 2328 2034 2328 
Q 1584 2328 1336 2051 
Q 1088 1775 1088 1275 
Q 1088 772 1336 495 
Q 1584 219 2034 219 
Q 2484 219 2732 495 
Q 2981 772 2981 1275 
z
M 2853 3541 
Q 2853 3966 2637 4203 
Q 2422 4441 2034 4441 
Q 1650 4441 1433 4203 
Q 1216 3966 1216 3541 
Q 1216 3113 1433 2875 
Q 1650 2638 2034 2638 
Q 2422 2638 2637 2875 
Q 2853 3113 2853 3541 
z
M 2516 2484 
Q 3047 2413 3344 2092 
Q 3641 1772 3641 1275 
Q 3641 619 3225 264 
Q 2809 -91 2034 -91 
Q 1263 -91 845 264 
Q 428 619 428 1275 
Q 428 1772 725 2092 
Q 1022 2413 1556 2484 
Q 1084 2569 832 2842 
Q 581 3116 581 3541 
Q 581 4103 968 4426 
Q 1356 4750 2034 4750 
Q 2713 4750 3100 4426 
Q 3488 4103 3488 3541 
Q 3488 3116 3236 2842 
Q 2984 2569 2516 2484 
z
" transform="scale(0.015625)"/>
       </defs>
       <use xlink:href="#DejaVuSerif-38" transform="translate(0 0.78125)"/>
      </g>
     </g>
    </g>
   </g>
   <g id="matplotlib.axis_2">
    <g id="text_6">
     <!-- canal I -->
     <g transform="translate(10.626989 81.270703) rotate(-90) scale(0.11 -0.11)">
      <defs>
       <path id="DejaVuSerif-63" d="M 3291 997 
Q 3169 466 2822 187 
Q 2475 -91 1925 -91 
Q 1200 -91 759 389 
Q 319 869 319 1663 
Q 319 2459 759 2936 
Q 1200 3413 1925 3413 
Q 2241 3413 2553 3339 
Q 2866 3266 3181 3116 
L 3181 2266 
L 2847 2266 
Q 2781 2703 2561 2903 
Q 2341 3103 1931 3103 
Q 1466 3103 1228 2742 
Q 991 2381 991 1663 
Q 991 944 1227 581 
Q 1463 219 1931 219 
Q 2303 219 2525 412 
Q 2747 606 2828 997 
L 3291 997 
z
" transform="scale(0.015625)"/>
       <path id="DejaVuSerif-61" d="M 2547 1044 
L 2547 1747 
L 1806 1747 
Q 1378 1747 1168 1562 
Q 959 1378 959 997 
Q 959 650 1171 447 
Q 1384 244 1747 244 
Q 2106 244 2326 466 
Q 2547 688 2547 1044 
z
M 3122 2075 
L 3122 331 
L 3634 331 
L 3634 0 
L 2547 0 
L 2547 359 
Q 2356 128 2106 18 
Q 1856 -91 1522 -91 
Q 969 -91 644 203 
Q 319 497 319 997 
Q 319 1513 691 1797 
Q 1063 2081 1741 2081 
L 2547 2081 
L 2547 2309 
Q 2547 2688 2317 2895 
Q 2088 3103 1672 3103 
Q 1328 3103 1125 2947 
Q 922 2791 872 2484 
L 575 2484 
L 575 3156 
Q 875 3284 1158 3348 
Q 1441 3413 1709 3413 
Q 2400 3413 2761 3070 
Q 3122 2728 3122 2075 
z
" transform="scale(0.015625)"/>
       <path id="DejaVuSerif-6e" d="M 263 0 
L 263 331 
L 781 331 
L 781 2988 
L 231 2988 
L 231 3322 
L 1356 3322 
L 1356 2731 
Q 1516 3069 1770 3241 
Q 2025 3413 2363 3413 
Q 2913 3413 3172 3097 
Q 3431 2781 3431 2113 
L 3431 331 
L 3944 331 
L 3944 0 
L 2356 0 
L 2356 331 
L 2853 331 
L 2853 1931 
Q 2853 2541 2703 2767 
Q 2553 2994 2175 2994 
Q 1775 2994 1565 2701 
Q 1356 2409 1356 1850 
L 1356 331 
L 1856 331 
L 1856 0 
L 263 0 
z
" transform="scale(0.015625)"/>
       <path id="DejaVuSerif-6c" d="M 1313 331 
L 1856 331 
L 1856 0 
L 184 0 
L 184 331 
L 738 331 
L 738 4531 
L 184 4531 
L 184 4863 
L 1313 4863 
L 1313 331 
z
" transform="scale(0.015625)"/>
       <path id="DejaVuSerif-20" transform="scale(0.015625)"/>
       <path id="DejaVuSerif-49" d="M 1581 331 
L 2175 331 
L 2175 0 
L 353 0 
L 353 331 
L 947 331 
L 947 4331 
L 353 4331 
L 353 4666 
L 2175 4666 
L 2175 4331 
L 1581 4331 
L 1581 331 
z
" transform="scale(0.015625)"/>
      </defs>
      <use xlink:href="#DejaVuSerif-63"/>
      <use xlink:href="#DejaVuSerif-61" x="56.005859"/>
      <use xlink:href="#DejaVuSerif-6e" x="115.625"/>
      <use xlink:href="#DejaVuSerif-61" x="180.029297"/>
      <use xlink:href="#DejaVuSerif-6c" x="239.648438"/>
      <use xlink:href="#DejaVuSerif-20" x="271.630859"/>
      <use xlink:href="#DejaVuSerif-49" x="303.417969"/>
     </g>
    </g>
   </g>
   <g id="line2d_11">
    <path d="M 16.914646 62.41 
L 34.813278 62.41 
L 34.813278 62.940142 
L 52.71191 62.940142 
L 52.71191 79.874947 
L 70.610542 79.874947 
L 70.610542 64.695745 
L 88.509174 64.695745 
L 88.509174 64.316285 
L 106.407806 64.316285 
L 106.407806 72.753229 
L 124.306438 72.753229 
L 124.306438 88.437681 
L 142.20507 88.437681 
L 142.20507 68.344238 
L 160.103702 68.344238 
L 160.103702 58.929996 
L 178.002335 58.929996 
L 178.002335 73.957824 
L 195.900967 73.957824 
L 195.900967 74.174844 
L 213.799599 74.174844 
L 213.799599 56.679426 
L 231.698231 56.679426 
L 231.698231 77.303839 
L 249.596863 77.303839 
L 249.596863 67.601244 
L 267.495495 67.601244 
L 267.495495 58.237777 
L 285.394127 58.237777 
L 285.394127 78.41913 
L 303.292759 78.41913 
L 303.292759 57.956175 
L 321.191391 57.956175 
L 321.191391 83.122105 
L 339.090023 83.122105 
L 339.090023 48.11847 
L 356.988656 48.11847 
L 356.988656 48.584337 
L 374.887288 48.584337 
L 374.887288 72.915247 
L 392.78592 72.915247 
L 392.78592 50.453131 
L 410.684552 50.453131 
L 410.684552 29.542033 
L 428.583184 29.542033 
L 428.583184 72.266615 
L 446.481816 72.266615 
L 446.481816 67.374613 
L 464.380448 67.374613 
L 464.380448 56.972101 
L 482.27908 56.972101 
L 482.27908 98.712441 
L 500.177712 98.712441 
L 500.177712 58.670153 
L 518.076344 58.670153 
L 518.076344 79.031902 
L 535.974977 79.031902 
L 535.974977 66.28951 
L 553.873609 66.28951 
L 553.873609 46.311544 
L 571.772241 46.311544 
L 571.772241 90.268108 
L 589.670873 90.268108 
L 589.670873 96.651502 
L 607.569505 96.651502 
L 607.569505 66.358323 
L 625.468137 66.358323 
L 625.468137 61.417735 
L 643.366769 61.417735 
L 643.366769 30.499386 
L 661.265401 30.499386 
L 661.265401 102.126903 
L 679.164033 102.126903 
L 679.164033 93.244454 
L 697.062665 93.244454 
L 697.062665 81.962972 
L 714.961298 81.962972 
L 714.961298 37.925746 
L 732.85993 37.925746 
L 732.85993 46.031553 
L 750.758562 46.031553 
L 750.758562 75.79102 
L 768.657194 75.79102 
L 768.657194 27.055401 
L 786.555826 27.055401 
L 786.555826 58.310976 
L 804.454458 58.310976 
L 804.454458 53.235017 
L 822.35309 53.235017 
L 822.35309 68.799948 
L 840.251722 68.799948 
L 840.251722 84.861831 
L 858.150354 84.861831 
L 858.150354 54.468462 
" clip-path="url(#pddb3ea457e)" style="fill: none; stroke: #4c72b0"/>
   </g>
   <g id="patch_3">
    <path d="M 16.914646 121.985354 
L 16.914646 2.834646 
" style="fill: none; stroke: #000000; stroke-linejoin: miter; stroke-linecap: square"/>
   </g>
   <g id="patch_4">
    <path d="M 16.914646 121.985354 
L 858.150354 121.985354 
" style="fill: none; stroke: #000000; stroke-linejoin: miter; stroke-linecap: square"/>
   </g>
  </g>
  <g id="axes_2">
   <g id="patch_5">
    <path d="M 16.914646 258.945354 
L 858.150354 258.945354 
L 858.150354 139.794646 
L 16.914646 139.794646 
z
" style="fill: #ffffff"/>
   </g>
   <g id="matplotlib.axis_3">
    <g id="xtick_6">
     <g id="line2d_12">
      <path d="M 16.914646 258.945354 
L 16.914646 139.794646 
" clip-path="url(#pfad56c731d)" style="fill: none; stroke: #000000; stroke-opacity: 0.1; stroke-width: 0.5; stroke-linecap: square"/>
     </g>
     <g id="line2d_13">
      <g>
       <use xlink:href="#mcac7d1430c" x="16.914646" y="258.945354" style="stroke: #000000; stroke-width: 0.5"/>
      </g>
     </g>
     <g id="text_7">
      <!-- $0$ -->
      <g transform="translate(14.354646 268.524104) scale(0.08 -0.08)">
       <use xlink:href="#DejaVuSerif-30" transform="translate(0 0.78125)"/>
      </g>
     </g>
    </g>
    <g id="xtick_7">
     <g id="line2d_14">
      <path d="M 227.223573 258.945354 
L 227.223573 139.794646 
" clip-path="url(#pfad56c731d)" style="fill: none; stroke: #000000; stroke-opacity: 0.1; stroke-width: 0.5; stroke-linecap: square"/>
     </g>
     <g id="line2d_15">
      <g>
       <use xlink:href="#mcac7d1430c" x="227.223573" y="258.945354" style="stroke: #000000; stroke-width: 0.5"/>
      </g>
     </g>
     <g id="text_8">
      <!-- $2$ -->
      <g transform="translate(224.663573 268.524104) scale(0.08 -0.08)">
       <use xlink:href="#DejaVuSerif-32" transform="translate(0 0.78125)"/>
      </g>
     </g>
    </g>
    <g id="xtick_8">
     <g id="line2d_16">
      <path d="M 437.5325 258.945354 
L 437.5325 139.794646 
" clip-path="url(#pfad56c731d)" style="fill: none; stroke: #000000; stroke-opacity: 0.1; stroke-width: 0.5; stroke-linecap: square"/>
     </g>
     <g id="line2d_17">
      <g>
       <use xlink:href="#mcac7d1430c" x="437.5325" y="258.945354" style="stroke: #000000; stroke-width: 0.5"/>
      </g>
     </g>
     <g id="text_9">
      <!-- $4$ -->
      <g transform="translate(434.9725 268.524104) scale(0.08 -0.08)">
       <use xlink:href="#DejaVuSerif-34" transform="translate(0 0.78125)"/>
      </g>
     </g>
    </g>
    <g id="xtick_9">
     <g id="line2d_18">
      <path d="M 647.841427 258.945354 
L 647.841427 139.794646 
" clip-path="url(#pfad56c731d)" style="fill: none; stroke: #000000; stroke-opacity: 0.1; stroke-width: 0.5; stroke-linecap: square"/>
     </g>
     <g id="line2d_19">
      <g>
       <use xlink:href="#mcac7d1430c" x="647.841427" y="258.945354" style="stroke: #000000; stroke-width: 0.5"/>
      </g>
     </g>
     <g id="text_10">
      <!-- $6$ -->
      <g transform="translate(645.281427 268.524104) scale(0.08 -0.08)">
       <use xlink:href="#DejaVuSerif-36" transform="translate(0 0.78125)"/>
      </g>
     </g>
    </g>
    <g id="xtick_10">
     <g id="line2d_20">
      <path d="M 858.150354 258.945354 
L 858.150354 139.794646 
" clip-path="url(#pfad56c731d)" style="fill: none; stroke: #000000; stroke-opacity: 0.1; stroke-width: 0.5; stroke-linecap: square"/>
     </g>
     <g id="line2d_21">
      <g>
       <use xlink:href="#mcac7d1430c" x="858.150354" y="258.945354" style="stroke: #000000; stroke-width: 0.5"/>
      </g>
     </g>
     <g id="text_11">
      <!-- $8$ -->
      <g transform="translate(855.590354 268.524104) scale(0.08 -0.08)">
       <use xlink:href="#DejaVuSerif-38" transform="translate(0 0.78125)"/>
      </g>
     </g>
    </g>
    <g id="text_12">
     <!-- t [μs] -->
     <g transform="translate(422.886172 282.546136) scale(0.11 -0.11)">
      <defs>
       <path id="DejaVuSerif-74" d="M 691 2988 
L 184 2988 
L 184 3322 
L 691 3322 
L 691 4353 
L 1269 4353 
L 1269 3322 
L 2350 3322 
L 2350 2988 
L 1269 2988 
L 1269 878 
Q 1269 456 1350 337 
Q 1431 219 1650 219 
Q 1875 219 1978 351 
Q 2081 484 2088 781 
L 2522 781 
Q 2497 328 2275 118 
Q 2053 -91 1600 -91 
Q 1103 -91 897 129 
Q 691 350 691 878 
L 691 2988 
z
" transform="scale(0.015625)"/>
       <path id="DejaVuSerif-5b" d="M 550 4863 
L 2003 4863 
L 2003 4531 
L 1147 4531 
L 1147 -513 
L 2003 -513 
L 2003 -844 
L 550 -844 
L 550 4863 
z
" transform="scale(0.015625)"/>
       <path id="DejaVuSerif-3bc" d="M 2309 3322 
L 3384 3322 
L 3384 325 
L 3928 325 
L 3928 0 
L 2809 0 
L 2809 588 
Q 2647 256 2417 82 
Q 2188 -91 1906 -91 
Q 1728 -91 1581 -34 
Q 1434 22 1313 134 
L 1313 -1331 
L 738 -1331 
L 738 2988 
L 219 2988 
L 219 3322 
L 1313 3322 
L 1313 1388 
Q 1313 781 1463 556 
Q 1613 331 1991 331 
Q 2391 331 2600 625 
Q 2809 919 2809 1478 
L 2809 2988 
L 2309 2988 
L 2309 3322 
z
" transform="scale(0.015625)"/>
       <path id="DejaVuSerif-73" d="M 359 184 
L 359 959 
L 691 959 
Q 703 588 923 403 
Q 1144 219 1575 219 
Q 1963 219 2166 364 
Q 2369 509 2369 788 
Q 2369 1006 2220 1140 
Q 2072 1275 1594 1428 
L 1178 1569 
Q 750 1706 558 1912 
Q 366 2119 366 2438 
Q 366 2894 700 3153 
Q 1034 3413 1625 3413 
Q 1888 3413 2178 3344 
Q 2469 3275 2778 3144 
L 2778 2419 
L 2447 2419 
Q 2434 2741 2221 2922 
Q 2009 3103 1644 3103 
Q 1281 3103 1095 2975 
Q 909 2847 909 2591 
Q 909 2381 1050 2254 
Q 1191 2128 1613 1997 
L 2069 1856 
Q 2541 1709 2748 1489 
Q 2956 1269 2956 922 
Q 2956 450 2595 179 
Q 2234 -91 1600 -91 
Q 1278 -91 972 -22 
Q 666 47 359 184 
z
" transform="scale(0.015625)"/>
       <path id="DejaVuSerif-5d" d="M 1947 4863 
L 1947 -844 
L 494 -844 
L 494 -513 
L 1350 -513 
L 1350 4531 
L 494 4531 
L 494 4863 
L 1947 4863 
z
" transform="scale(0.015625)"/>
      </defs>
      <use xlink:href="#DejaVuSerif-74"/>
      <use xlink:href="#DejaVuSerif-20" x="40.185547"/>
      <use xlink:href="#DejaVuSerif-5b" x="71.972656"/>
      <use xlink:href="#DejaVuSerif-3bc" x="110.986328"/>
      <use xlink:href="#DejaVuSerif-73" x="175.976562"/>
      <use xlink:href="#DejaVuSerif-5d" x="227.294922"/>
     </g>
    </g>
   </g>
   <g id="matplotlib.axis_4">
    <g id="text_13">
     <!-- canal Q -->
     <g transform="translate(10.626989 220.567344) rotate(-90) scale(0.11 -0.11)">
      <defs>
       <path id="DejaVuSerif-51" d="M 2700 -91 
Q 1628 -91 993 567 
Q 359 1225 359 2328 
Q 359 2894 529 3339 
Q 700 3784 1050 4134 
Q 1356 4441 1750 4595 
Q 2144 4750 2625 4750 
Q 3641 4750 4266 4084 
Q 4891 3419 4891 2328 
Q 4891 1403 4422 773 
Q 3953 144 3128 -38 
Q 3297 -247 3539 -347 
Q 3781 -447 4122 -447 
L 4219 -447 
L 4219 -1025 
Q 3691 -1000 3314 -767 
Q 2938 -534 2700 -91 
z
M 2625 244 
Q 3391 244 3781 770 
Q 4172 1297 4172 2328 
Q 4172 3363 3781 3889 
Q 3391 4416 2625 4416 
Q 1856 4416 1465 3889 
Q 1075 3363 1075 2328 
Q 1075 1297 1465 770 
Q 1856 244 2625 244 
z
" transform="scale(0.015625)"/>
      </defs>
      <use xlink:href="#DejaVuSerif-63"/>
      <use xlink:href="#DejaVuSerif-61" x="56.005859"/>
      <use xlink:href="#DejaVuSerif-6e" x="115.625"/>
      <use xlink:href="#DejaVuSerif-61" x="180.029297"/>
      <use xlink:href="#DejaVuSerif-6c" x="239.648438"/>
      <use xlink:href="#DejaVuSerif-20" x="271.630859"/>
      <use xlink:href="#DejaVuSerif-51" x="303.417969"/>
     </g>
    </g>
   </g>
   <g id="line2d_22">
    <path d="M 16.914646 186.958468 
L 34.813278 186.958468 
L 34.813278 178.414193 
L 52.71191 178.414193 
L 52.71191 183.959279 
L 70.610542 183.959279 
L 70.610542 212.796894 
L 88.509174 212.796894 
L 88.509174 220.047928 
L 106.407806 220.047928 
L 106.407806 196.354722 
L 124.306438 196.354722 
L 124.306438 206.816919 
L 142.20507 206.816919 
L 142.20507 201.524806 
L 160.103702 201.524806 
L 160.103702 192.012192 
L 178.002335 192.012192 
L 178.002335 205.0928 
L 195.900967 205.0928 
L 195.900967 190.014015 
L 213.799599 190.014015 
L 213.799599 222.470483 
L 231.698231 222.470483 
L 231.698231 206.816919 
L 249.596863 206.816919 
L 249.596863 206.38098 
L 267.495495 206.38098 
L 267.495495 193.720244 
L 285.394127 193.720244 
L 285.394127 205.413176 
L 303.292759 205.413176 
L 303.292759 174.636046 
L 321.191391 174.636046 
L 321.191391 217.112141 
L 339.090023 217.112141 
L 339.090023 188.412569 
L 356.988656 188.412569 
L 356.988656 200.689164 
L 374.887288 200.689164 
L 374.887288 198.550524 
L 392.78592 198.550524 
L 392.78592 213.515983 
L 410.684552 213.515983 
L 410.684552 231.01495 
L 428.583184 231.01495 
L 428.583184 206.683734 
L 446.481816 206.683734 
L 446.481816 152.206178 
L 464.380448 152.206178 
L 464.380448 181.632951 
L 482.27908 181.632951 
L 482.27908 158.352806 
L 500.177712 158.352806 
L 500.177712 171.651576 
L 518.076344 171.651576 
L 518.076344 194.916175 
L 535.974977 194.916175 
L 535.974977 215.640826 
L 553.873609 215.640826 
L 553.873609 206.816919 
L 571.772241 206.816919 
L 571.772241 208.747719 
L 589.670873 208.747719 
L 589.670873 191.83397 
L 607.569505 191.83397 
L 607.569505 185.172075 
L 625.468137 185.172075 
L 625.468137 160.897031 
L 643.366769 160.897031 
L 643.366769 207.801209 
L 661.265401 207.801209 
L 661.265401 172.064629 
L 679.164033 172.064629 
L 679.164033 201.620642 
L 697.062665 201.620642 
L 697.062665 176.075433 
L 714.961298 176.075433 
L 714.961298 157.972226 
L 732.85993 157.972226 
L 732.85993 209.210115 
L 750.758562 209.210115 
L 750.758562 207.73277 
L 768.657194 207.73277 
L 768.657194 195.433592 
L 786.555826 195.433592 
L 786.555826 159.747605 
L 804.454458 159.747605 
L 804.454458 233.611502 
L 822.35309 233.611502 
L 822.35309 183.769916 
L 840.251722 183.769916 
L 840.251722 181.775535 
L 858.150354 181.775535 
L 858.150354 236.941408 
" clip-path="url(#pfad56c731d)" style="fill: none; stroke: #4c72b0"/>
   </g>
   <g id="patch_6">
    <path d="M 16.914646 258.945354 
L 16.914646 139.794646 
" style="fill: none; stroke: #000000; stroke-linejoin: miter; stroke-linecap: square"/>
   </g>
   <g id="patch_7">
    <path d="M 16.914646 258.945354 
L 858.150354 258.945354 
" style="fill: none; stroke: #000000; stroke-linejoin: miter; stroke-linecap: square"/>
   </g>
  </g>
 </g>
 <defs>
  <clipPath id="pddb3ea457e">
   <rect x="16.914646" y="2.834646" width="841.235709" height="119.150709"/>
  </clipPath>
  <clipPath id="pfad56c731d">
   <rect x="16.914646" y="139.794646" width="841.235709" height="119.150709"/>
  </clipPath>
 </defs>
</svg>
